<svg width="500" height="500" viewBox="0 0 500 500" fill="none" xmlns="http://www.w3.org/2000/svg">
<path d="M471.19 262.66C460.5 302.55 435.11 347.05 394.94 363.35C334.25 387.99 331.61 439.06 219.27 445.11C202.872 446.065 186.419 445.237 170.2 442.64C162.269 441.347 154.43 439.547 146.73 437.25C78.82 417 39.14 362 30.47 301.33C19.06 221.49 71.35 177.91 105.57 152.05C139.79 126.19 175.32 35.2601 285.71 28.4501C302.565 27.3572 319.491 28.2129 336.15 31.0001C374.15 37.4701 413.89 56.0001 438.87 86.3401C440.743 88.6201 442.55 90.9534 444.29 93.3401C478.31 140.17 485.77 208.27 471.19 262.66Z" fill="#1F6587"/>
<path opacity="0.7" d="M471.19 262.66C460.5 302.55 435.11 347.05 394.94 363.35C334.25 387.99 331.61 439.06 219.27 445.11C202.872 446.065 186.419 445.237 170.2 442.64C162.269 441.347 154.43 439.547 146.73 437.25C78.82 417 39.14 362 30.47 301.33C19.06 221.49 71.35 177.91 105.57 152.05C139.79 126.19 175.32 35.2601 285.71 28.4501C302.565 27.3572 319.491 28.2129 336.15 31.0001C374.15 37.4701 413.89 56.0001 438.87 86.3401C440.743 88.6201 442.55 90.9534 444.29 93.3401C478.31 140.17 485.77 208.27 471.19 262.66Z" fill="white"/>
<path opacity="0.3" d="M88.3601 110.73V105.06C88.3601 93.8798 80.9201 89.9198 73.3601 89.9198C71.3742 89.8846 69.402 90.2542 67.5636 91.006C65.7252 91.7577 64.0591 92.876 62.6669 94.2925C61.2747 95.709 60.1855 97.3942 59.4657 99.2454C58.7459 101.097 58.4105 103.075 58.4801 105.06V110.73H56.3201V142.11H90.3201V110.73H88.3601ZM74.3201 128V133.69H71.1001V128C70.1774 127.626 69.4133 126.943 68.9388 126.068C68.4643 125.193 68.3089 124.18 68.4992 123.203C68.6895 122.226 69.2137 121.346 69.9819 120.713C70.7501 120.08 71.7146 119.733 72.7101 119.733C73.7055 119.733 74.67 120.08 75.4382 120.713C76.2065 121.346 76.7306 122.226 76.9209 123.203C77.1112 124.18 76.9558 125.193 76.4813 126.068C76.0068 126.943 75.2428 127.626 74.3201 128ZM83.6501 110.76H63.0001V105.09C62.9948 102.349 64.0777 99.7185 66.0109 97.776C67.9441 95.8334 70.5695 94.7377 73.3101 94.7298C79.0101 94.7298 83.6501 98.6298 83.6501 105.06V110.76Z" stroke="black" stroke-miterlimit="10"/>
<path opacity="0.3" d="M208.29 51.6299H111.95C104.505 51.6299 98.47 57.6628 98.47 65.1049C98.47 72.5469 104.505 78.5799 111.95 78.5799H208.29C215.735 78.5799 221.77 72.5469 221.77 65.1049C221.77 57.6628 215.735 51.6299 208.29 51.6299Z" stroke="black" stroke-miterlimit="10"/>
<g opacity="0.3">
<path d="M124.11 63.8499L126.92 66.9499L125.57 67.9499L123.47 64.2599L121.4 67.9999L120.05 66.9999L122.84 63.8999L118.73 62.9999L119.23 61.3799L123.1 63.0799L122.62 58.8899H124.32L123.87 63.0799L127.74 61.4099L128.24 63.0299L124.11 63.8499Z" fill="black"/>
<path d="M134.58 63.8499L137.39 66.9499L136 67.9999L133.91 64.3099L131.87 67.9999L130.52 66.9999L133.3 63.8999L129.19 62.9999L129.7 61.3799L133.57 63.0799L133.09 58.8899H134.79L134.34 63.0799L138.21 61.4099L138.71 63.0299L134.58 63.8499Z" fill="black"/>
<path d="M145 63.8499L147.81 66.9499L146.46 67.9499L144.37 64.2599L142.34 67.9999L141 66.9999L143.78 63.8999L139.66 62.9999L140.17 61.3799L144.04 63.0799L143.56 58.8899H145.26L144.81 63.0799L148.68 61.4099L149.18 63.0299L145 63.8499Z" fill="black"/>
<path d="M155.51 63.8499L158.32 66.9499L157 67.9999L154.9 64.3099L152.81 67.9999L151.46 66.9999L154.24 63.8999L150.13 62.9999L150.63 61.3799L154.5 63.0799L154 58.8899H155.69L155.24 63.0799L159.11 61.4099L159.62 63.0299L155.51 63.8499Z" fill="black"/>
<path d="M166 63.8499L168.81 66.9499L167.46 67.9499L165.36 64.2599L163.28 67.9999L161.92 66.9999L164.71 63.8999L160.6 62.9999L161.1 61.3799L164.97 63.0799L164.49 58.8899H166.19L165.74 63.0799L169.61 61.4099L170.11 63.0299L166 63.8499Z" fill="black"/>
<path d="M176.45 63.8499L179.26 66.9499L177.9 67.9499L175.81 64.2599L173.74 67.9999L172.39 66.9999L175.17 63.8999L171.06 62.9999L171.57 61.3799L175.44 63.0799L175 58.8899H176.7L176.25 63.0799L180.12 61.4099L180.62 63.0299L176.45 63.8499Z" fill="black"/>
<path d="M186.91 63.8499L189.72 66.9499L188.37 67.9499L186.28 64.2599L184.21 67.9999L182.86 66.9999L185.64 63.8999L181.53 62.9999L182.04 61.3799L185.91 63.0799L185.43 58.8899H187.13L186.68 63.0799L190.55 61.4099L191.05 63.0299L186.91 63.8499Z" fill="black"/>
<path d="M197.38 63.8499L200.19 66.9499L198.84 67.9499L196.74 64.2599L194.68 67.9999L193.33 66.9999L196.11 63.8999L192 62.9999L192.5 61.3799L196.37 63.0799L195.9 58.8899H197.59L197.14 63.0799L201 61.4099L201.51 63.0299L197.38 63.8499Z" fill="black"/>
</g>
<path opacity="0.3" d="M83.7098 235.44C83.4025 234.766 82.9225 234.185 82.3183 233.757C81.7142 233.328 81.0075 233.067 80.2698 233H77.9998V231C79.7527 228.792 80.6951 226.049 80.6698 223.23C80.6698 218.13 77.5998 213.99 73.8098 213.99C70.0198 213.99 66.9998 218.13 66.9998 223.23C66.9789 225.948 67.8462 228.6 69.4698 230.78V233H66.4698C65.7236 233.059 65.0058 233.312 64.3882 233.735C63.7705 234.158 63.2746 234.736 62.9498 235.41L58.8398 242.33H87.7098L83.7098 235.44Z" stroke="black" stroke-miterlimit="10"/>
<path opacity="0.3" d="M93.3109 238.411C97.8591 227.43 92.6448 214.842 81.6643 210.294C70.6839 205.745 58.0954 210.96 53.5471 221.94C48.9989 232.921 54.2132 245.509 65.1936 250.057C76.1741 254.606 88.7626 249.391 93.3109 238.411Z" stroke="black" stroke-miterlimit="10"/>
<g opacity="0.2">
<path d="M234.33 323.75C208.939 309.638 189.441 286.902 179.364 259.657C169.287 232.412 169.298 202.459 179.395 175.222C189.491 147.984 209.007 125.262 234.408 111.169C259.809 97.0751 289.416 92.542 317.87 98.39L314.77 108.79L349.33 100.56L324.93 74.75L321.93 84.68C312.553 82.6729 302.989 81.6673 293.4 81.68C218.49 81.68 157.54 142.62 157.54 217.53C157.56 242.464 164.434 266.912 177.411 288.202C190.388 309.493 208.968 326.806 231.12 338.25L222.55 324L234.33 323.75Z" fill="black"/>
<path d="M343.56 91.24L354.23 102.53L341.13 105.65C369.75 117.842 392.609 140.538 405.004 169.07C417.399 197.602 418.388 229.8 407.767 259.039C397.146 288.278 375.724 312.334 347.906 326.259C320.089 340.184 287.992 342.919 258.22 333.9L262.44 326.25L226.93 326.94L245.28 357.35L251.2 346.63C264.831 351.097 279.086 353.369 293.43 353.36C368.34 353.36 429.29 292.42 429.29 217.5C429.257 190.296 421.072 163.727 405.791 141.221C390.509 118.715 368.833 101.305 343.56 91.24Z" fill="black"/>
</g>
<path d="M454 69.2299L431.1 64.8599V64.9399C429.96 67.2499 428.1 68.5299 426.37 68.1999L425.37 68.0099C423.64 67.6899 422.37 65.7999 422.17 63.2299V63.1499L399.27 58.7799C397.754 58.4884 396.195 58.499 394.683 58.8109C393.17 59.1227 391.735 59.7299 390.457 60.5974C389.18 61.465 388.087 62.576 387.239 63.8668C386.392 65.1577 385.808 66.6029 385.52 68.1199L355.8 218.83C355.466 220.588 355.844 222.407 356.851 223.887C357.858 225.366 359.412 226.385 361.17 226.72L425.78 239.05C426.65 239.217 427.544 239.21 428.412 239.031C429.28 238.852 430.103 238.503 430.836 238.006C431.569 237.508 432.196 236.87 432.683 236.13C433.169 235.389 433.504 234.56 433.67 233.69L463.37 82.9999C463.663 81.4801 463.652 79.9176 463.339 78.4019C463.026 76.8863 462.417 75.4474 461.546 74.1679C460.675 72.8884 459.561 71.7935 458.266 70.9461C456.971 70.0987 455.521 69.5154 454 69.2299Z" fill="#1F6587" stroke="#263238" stroke-linecap="round" stroke-linejoin="round"/>
<path d="M462.73 86.3399L463.37 82.9799C463.66 81.4616 463.647 79.9011 463.333 78.3877C463.018 76.8744 462.408 75.4379 461.538 74.1606C460.668 72.8833 459.554 71.7903 458.26 70.9442C456.967 70.0981 455.519 69.5155 454 69.2299L431.1 64.8599V64.9399C429.96 67.2499 428.1 68.5299 426.37 68.1999L425.37 68.0099C423.64 67.6899 422.37 65.7999 422.17 63.2299V63.1499L399.27 58.7799C397.754 58.4884 396.195 58.499 394.683 58.8109C393.17 59.1227 391.735 59.7299 390.457 60.5974C389.18 61.465 388.087 62.576 387.239 63.8668C386.392 65.1577 385.808 66.6029 385.52 68.1199L384.87 71.4899L462.73 86.3399Z" fill="white" stroke="#263238" stroke-linecap="round" stroke-linejoin="round"/>
<path d="M457.71 134.6L460.5 120L459.18 119.75L467.51 80.9999C468.09 77.9371 467.431 74.7692 465.678 72.1914C463.926 69.6136 461.222 67.8364 458.16 67.2499L396.16 55.4099C393.097 54.8271 389.927 55.4847 387.349 57.238C384.771 58.9914 382.994 61.697 382.41 64.7599L351.85 219.85C351.559 221.366 351.569 222.925 351.881 224.437C352.193 225.949 352.8 227.385 353.668 228.663C354.535 229.94 355.646 231.033 356.937 231.881C358.228 232.728 359.673 233.312 361.19 233.6L423.19 245.44C424.71 245.737 426.274 245.731 427.793 245.423C429.311 245.114 430.753 244.508 432.036 243.64C433.319 242.772 434.418 241.659 435.27 240.365C436.122 239.071 436.71 237.622 437 236.1L454 146.82L455.32 147.08L456.97 138.43L455.65 138.18L456.38 134.35L457.71 134.6ZM434.92 227.16C434.331 230.222 432.552 232.925 429.972 234.676C427.392 236.427 424.223 237.083 421.16 236.5L366.39 226.05C363.329 225.464 360.626 223.686 358.874 221.108C357.123 218.53 356.467 215.362 357.05 212.3L385.51 68.1199C385.798 66.603 386.382 65.1577 387.229 63.8669C388.077 62.5761 389.17 61.4651 390.447 60.5975C391.725 59.7299 393.16 59.1228 394.673 58.8109C396.185 58.4991 397.744 58.4885 399.26 58.7799L422.16 63.1499V63.2299C422.38 65.7999 423.63 67.6899 425.36 68.0099L426.36 68.1999C428.08 68.5299 429.95 67.1999 431.09 64.9399V64.8599L454 69.2299C455.521 69.5155 456.971 70.0987 458.266 70.9462C459.561 71.7936 460.676 72.8885 461.546 74.168C462.417 75.4475 463.026 76.8864 463.339 78.402C463.652 79.9177 463.663 81.4802 463.37 82.9999L434.92 227.16Z" fill="#707070" stroke="#263238" stroke-linecap="round" stroke-linejoin="round"/>
<path d="M455.83 68.4899L397.83 57.4199C394.585 56.8017 391.228 57.4973 388.496 59.3538C385.763 61.2102 383.88 64.0755 383.26 67.3199L353.62 217.83C353.313 219.437 353.325 221.088 353.656 222.69C353.987 224.292 354.631 225.813 355.55 227.167C356.47 228.52 357.647 229.678 359.014 230.576C360.382 231.474 361.913 232.094 363.52 232.4L421.52 243.46C423.127 243.767 424.778 243.755 426.38 243.424C427.983 243.093 429.504 242.449 430.857 241.529C432.21 240.61 433.368 239.433 434.266 238.065C435.164 236.698 435.784 235.167 436.09 233.56L465.73 83.0499C466.348 79.8063 465.652 76.45 463.795 73.7195C461.939 70.989 459.074 69.1078 455.83 68.4899ZM434.92 227.16C434.331 230.222 432.552 232.925 429.972 234.676C427.392 236.427 424.223 237.083 421.16 236.5L366.39 226.05C363.329 225.464 360.626 223.686 358.874 221.108C357.123 218.53 356.467 215.362 357.05 212.3L385.51 68.1199C385.798 66.6029 386.382 65.1577 387.229 63.8669C388.077 62.576 389.17 61.465 390.447 60.5975C391.725 59.7299 393.16 59.1228 394.673 58.8109C396.185 58.499 397.744 58.4884 399.26 58.7799L422.16 63.1499V63.2299C422.38 65.7999 423.63 67.6899 425.36 68.0099L426.36 68.1999C428.08 68.5299 429.95 67.1999 431.09 64.9399V64.8599L454 69.2299C455.521 69.5154 456.971 70.0987 458.266 70.9461C459.561 71.7935 460.676 72.8884 461.546 74.1679C462.417 75.4474 463.026 76.8863 463.339 78.4019C463.652 79.9176 463.663 81.4802 463.37 82.9999L434.92 227.16Z" fill="#263238" stroke="#263238" stroke-linecap="round" stroke-linejoin="round"/>
<path d="M427.38 64.7199C427.421 64.5063 427.399 64.2853 427.315 64.0847C427.23 63.8841 427.089 63.7129 426.907 63.5929C426.726 63.4728 426.513 63.4092 426.295 63.4102C426.078 63.4111 425.865 63.4765 425.685 63.5982C425.505 63.7198 425.365 63.8922 425.282 64.0935C425.2 64.2949 425.179 64.5161 425.222 64.7293C425.266 64.9425 425.371 65.138 425.526 65.2912C425.68 65.4444 425.876 65.5483 426.09 65.5899C426.232 65.6189 426.378 65.6193 426.52 65.5911C426.662 65.5629 426.798 65.5066 426.918 65.4256C427.038 65.3446 427.14 65.2405 427.22 65.1193C427.299 64.9981 427.354 64.8624 427.38 64.7199Z" fill="#707070"/>
<path d="M393.73 62.5999C393.52 63.6999 392.21 63.8599 392.05 64.6899V64.7499L393.24 64.9799L393.17 65.3499L391.57 64.9999L391.63 64.6899C391.85 63.5199 393.13 63.5199 393.32 62.4999C393.39 62.1299 393.32 61.8999 393.01 61.8499C392.7 61.7999 392.54 61.9799 392.48 62.2999L392.42 62.6199L392.04 62.5499V62.2499C392.15 61.6999 392.47 61.3799 393.04 61.4799C393.168 61.489 393.292 61.5285 393.402 61.5951C393.512 61.6617 393.605 61.7535 393.672 61.863C393.739 61.9724 393.78 62.0963 393.79 62.2244C393.8 62.3526 393.779 62.4813 393.73 62.5999Z" fill="#263238"/>
<path d="M395.72 63V63.09C395.704 63.2484 395.639 63.3977 395.533 63.5163C395.427 63.635 395.286 63.7168 395.13 63.75C395.265 63.8383 395.367 63.9681 395.421 64.1197C395.475 64.2713 395.478 64.4364 395.43 64.59L395.38 64.87C395.27 65.43 394.94 65.74 394.38 65.64C393.82 65.54 393.63 65.12 393.74 64.56V64.31L394.12 64.38L394.06 64.66C394 64.99 394.06 65.21 394.39 65.26C394.72 65.31 394.85 65.15 394.92 64.78L394.98 64.5C395.04 64.15 394.98 63.95 394.62 63.88H394.4L394.47 63.52H394.71C394.773 63.5314 394.838 63.5293 394.9 63.5138C394.962 63.4983 395.02 63.4697 395.07 63.4299C395.12 63.3902 395.161 63.3402 395.191 63.2833C395.22 63.2264 395.237 63.1639 395.24 63.1V62.93C395.31 62.56 395.24 62.34 394.92 62.29C394.6 62.24 394.45 62.41 394.39 62.74V62.92L394.01 62.85V62.68C394.11 62.13 394.44 61.82 395.01 61.92C395.58 62.02 395.83 62.42 395.72 63Z" fill="#263238"/>
<path d="M396.46 63.3998L396.36 63.9098L395.97 63.8298L396.07 63.3298L396.46 63.3998ZM396.08 65.3998L395.98 65.9098L395.59 65.8298L395.69 65.3298L396.08 65.3998Z" fill="#263238"/>
<path d="M397.22 63.8899C397.288 63.8029 397.38 63.7376 397.485 63.7021C397.59 63.6666 397.703 63.6624 397.81 63.6899C398.28 63.7799 398.42 64.1599 398.32 64.6899L398.19 65.3999C398.08 65.9599 397.75 66.2699 397.19 66.1599C396.63 66.0499 396.45 65.6499 396.55 65.0899L396.6 64.8399L396.98 64.9199L396.93 65.1899C396.86 65.5099 396.93 65.7399 397.25 65.7899C397.57 65.8399 397.72 65.6799 397.78 65.3499L397.91 64.6399C397.98 64.3199 397.91 64.0899 397.59 64.0399C397.537 64.0266 397.483 64.0242 397.429 64.0328C397.375 64.0414 397.324 64.0607 397.278 64.0897C397.233 64.1187 397.193 64.1567 397.162 64.2015C397.132 64.2462 397.111 64.2967 397.1 64.3499V64.4299L396.72 64.3599L397.2 62.3599L398.64 62.6299L398.57 62.9899L397.5 62.7899L397.22 63.8899Z" fill="#263238"/>
<path d="M400.57 63.8999V63.9999L400.19 63.9299V63.8399C400.25 63.5099 400.19 63.2899 399.85 63.2399C399.51 63.1899 399.37 63.3499 399.3 63.7399L399.14 64.5499C399.207 64.4382 399.309 64.3515 399.43 64.3027C399.551 64.254 399.684 64.246 399.81 64.2799C400.27 64.3699 400.42 64.7399 400.32 65.2799L400.21 65.8299C400.206 65.9501 400.175 66.0679 400.12 66.1747C400.065 66.2815 399.986 66.3747 399.891 66.4475C399.795 66.5202 399.684 66.5708 399.566 66.5954C399.449 66.62 399.327 66.6181 399.21 66.5899C399.09 66.5729 398.976 66.5297 398.875 66.4632C398.773 66.3968 398.688 66.3088 398.625 66.2055C398.562 66.1023 398.523 65.9864 398.51 65.8661C398.497 65.7459 398.51 65.6242 398.55 65.5099L398.91 63.6599C399.02 63.0799 399.35 62.7699 399.91 62.8799C400.024 62.8953 400.134 62.9353 400.231 62.9972C400.329 63.059 400.412 63.1412 400.475 63.2381C400.537 63.335 400.578 63.4443 400.595 63.5585C400.611 63.6728 400.603 63.7892 400.57 63.8999ZM399.06 64.9999L398.95 65.5399C398.89 65.8699 398.95 66.0899 399.28 66.1499C399.61 66.2099 399.75 66.0399 399.82 65.7099L399.92 65.1599C399.98 64.8399 399.92 64.6099 399.59 64.5599C399.26 64.5099 399.12 64.6899 399.06 64.9999Z" fill="#263238"/>
<path d="M440.259 71.6498L439.228 71.4529L438.739 74.0166L439.77 74.2135L440.259 71.6498Z" fill="#263238"/>
<path d="M441.738 71.3772L440.707 71.1804L440.118 74.2648L441.15 74.4616L441.738 71.3772Z" fill="#263238"/>
<path d="M443.174 71.2615L442.142 71.0647L441.485 74.5125L442.516 74.7093L443.174 71.2615Z" fill="#263238"/>
<path d="M444.679 70.8982L443.648 70.7014L442.868 74.7877L443.9 74.9845L444.679 70.8982Z" fill="#263238"/>
<path d="M456.61 77.3399L450.45 76.1699L451.16 72.3999L457.33 73.5799L456.61 77.3399ZM450.85 75.8899L456.33 76.8899L456.92 73.7999L451.44 72.7999L450.85 75.8899Z" fill="#263238"/>
<path d="M455.146 73.8741L451.895 73.2539L451.449 75.5917L454.7 76.212L455.146 73.8741Z" fill="#263238"/>
<path d="M456.372 76.1518L455.597 76.0017L455.426 76.8837L456.201 77.0338L456.372 76.1518Z" fill="#263238"/>
<path d="M448.34 74.9201C448.299 74.9102 448.261 74.8895 448.23 74.8601C447.968 74.5759 447.623 74.3814 447.244 74.3042C446.866 74.227 446.472 74.271 446.12 74.4301C446.094 74.4463 446.065 74.4571 446.034 74.4618C446.004 74.4665 445.973 74.4651 445.943 74.4577C445.913 74.4502 445.885 74.4369 445.861 74.4184C445.836 74.3999 445.815 74.3767 445.8 74.3501C445.784 74.3239 445.773 74.2948 445.768 74.2644C445.763 74.234 445.765 74.203 445.772 74.1732C445.78 74.1433 445.793 74.1153 445.812 74.0907C445.83 74.0661 445.853 74.0455 445.88 74.0301C446.316 73.8144 446.81 73.7446 447.289 73.831C447.768 73.9174 448.207 74.1555 448.54 74.5101C448.562 74.5315 448.579 74.5572 448.591 74.5855C448.603 74.6138 448.61 74.6443 448.61 74.6751C448.61 74.7058 448.603 74.7363 448.591 74.7646C448.579 74.793 448.562 74.8186 448.54 74.8401C448.515 74.8681 448.484 74.8899 448.449 74.9038C448.415 74.9177 448.377 74.9232 448.34 74.9201Z" fill="#263238"/>
<path d="M449 74.2299C448.964 74.2392 448.926 74.2392 448.89 74.2299C448.515 73.8291 448.025 73.555 447.487 73.4457C446.95 73.3363 446.391 73.3972 445.89 73.6199C445.864 73.6357 445.834 73.6461 445.804 73.6506C445.774 73.6551 445.743 73.6536 445.713 73.6462C445.684 73.6387 445.656 73.6255 445.631 73.6073C445.606 73.5891 445.586 73.5662 445.57 73.5399C445.554 73.5136 445.544 73.4845 445.539 73.4542C445.535 73.4239 445.536 73.3931 445.544 73.3633C445.551 73.3336 445.564 73.3057 445.582 73.281C445.601 73.2564 445.624 73.2357 445.65 73.2199C446.242 72.9391 446.907 72.8517 447.551 72.9701C448.196 73.0886 448.787 73.4069 449.24 73.8799C449.262 73.9013 449.279 73.927 449.291 73.9553C449.303 73.9837 449.31 74.0141 449.31 74.0449C449.31 74.0757 449.303 74.1061 449.291 74.1345C449.279 74.1628 449.262 74.1885 449.24 74.2099C449.206 74.2362 449.165 74.2521 449.123 74.2557C449.08 74.2592 449.037 74.2503 449 74.2299Z" fill="#263238"/>
<path d="M449.55 73.42C449.506 73.4082 449.466 73.3878 449.43 73.36C448.949 72.8354 448.313 72.4786 447.615 72.3419C446.917 72.2051 446.193 72.2956 445.55 72.6C445.495 72.6292 445.432 72.6362 445.372 72.6194C445.312 72.6026 445.261 72.5634 445.23 72.51C445.214 72.4839 445.203 72.4547 445.198 72.4244C445.194 72.394 445.195 72.363 445.202 72.3331C445.21 72.3033 445.223 72.2752 445.242 72.2507C445.26 72.2261 445.283 72.2055 445.31 72.19C446.041 71.8441 446.862 71.7372 447.658 71.8844C448.453 72.0316 449.181 72.4254 449.74 73.01C449.762 73.0315 449.78 73.0571 449.792 73.0854C449.804 73.1138 449.81 73.1442 449.81 73.175C449.81 73.2058 449.804 73.2362 449.792 73.2646C449.78 73.2929 449.762 73.3186 449.74 73.34C449.717 73.3679 449.688 73.3897 449.655 73.4037C449.622 73.4176 449.586 73.4232 449.55 73.42Z" fill="#263238"/>
<path d="M447.57 75.1701C447.557 75.2458 447.529 75.3182 447.487 75.383C447.446 75.4478 447.392 75.5037 447.328 75.5475C447.265 75.5912 447.194 75.6219 447.118 75.6378C447.043 75.6537 446.966 75.6545 446.89 75.6401C446.736 75.6109 446.6 75.5218 446.512 75.3924C446.424 75.263 446.391 75.1039 446.42 74.9501C446.449 74.7962 446.538 74.6603 446.668 74.5722C446.797 74.484 446.956 74.4509 447.11 74.4801C447.186 74.4944 447.258 74.5237 447.323 74.5663C447.387 74.609 447.442 74.664 447.485 74.7283C447.528 74.7926 447.558 74.8648 447.572 74.9406C447.587 75.0165 447.586 75.0945 447.57 75.1701Z" fill="#263238"/>
<path d="M442.487 127.926L388.226 117.575C385.329 117.022 382.532 118.923 381.98 121.82L373.291 167.369C372.738 170.265 374.639 173.062 377.536 173.615L431.797 183.966C434.694 184.518 437.491 182.618 438.043 179.721L446.732 134.172C447.285 131.275 445.384 128.479 442.487 127.926Z" fill="white" stroke="#263238" stroke-miterlimit="10"/>
<path d="M398.24 110.79L397.54 105.45L398.45 105.62L398.93 109.7L400.93 106.09L401.76 106.24L399.1 111L398.57 113.81L397.7 113.65L398.24 110.79Z" fill="#263238"/>
<path d="M401.76 108.21C401.779 107.951 401.853 107.699 401.977 107.471C402.1 107.243 402.271 107.044 402.477 106.886C402.683 106.728 402.92 106.616 403.172 106.557C403.425 106.497 403.687 106.492 403.942 106.541C404.197 106.59 404.438 106.692 404.651 106.841C404.863 106.99 405.042 107.182 405.175 107.405C405.308 107.627 405.392 107.876 405.422 108.134C405.452 108.391 405.428 108.652 405.35 108.9L404.58 112.9C404.56 113.159 404.487 113.41 404.363 113.638C404.239 113.867 404.069 114.066 403.863 114.224C403.657 114.381 403.42 114.493 403.167 114.553C402.915 114.613 402.652 114.618 402.398 114.569C402.143 114.52 401.901 114.418 401.689 114.269C401.476 114.12 401.298 113.928 401.165 113.705C401.032 113.482 400.948 113.234 400.918 112.976C400.887 112.718 400.912 112.457 400.99 112.21L401.76 108.21ZM401.84 112.47C401.7 113.19 401.93 113.66 402.55 113.78C403.17 113.9 403.55 113.54 403.7 112.78L404.49 108.64C404.62 107.93 404.41 107.45 403.78 107.33C403.15 107.21 402.78 107.58 402.63 108.33L401.84 112.47Z" fill="#263238"/>
<path d="M406.23 113.31C406.1 114.02 406.29 114.49 406.93 114.62C407.57 114.75 407.93 114.36 408.06 113.62L409.2 107.62L410.02 107.78L408.88 113.72C408.65 114.91 407.95 115.6 406.75 115.36C405.55 115.12 405.15 114.24 405.38 113.05L406.51 107.11L407.37 107.27L406.23 113.31Z" fill="#263238"/>
<path d="M412.63 108.32C412.878 108.333 413.119 108.404 413.335 108.527C413.55 108.65 413.733 108.823 413.87 109.03C414.006 109.238 414.092 109.474 414.12 109.721C414.147 109.968 414.117 110.217 414.03 110.45L413.91 111.09C413.74 111.95 413.34 112.43 412.63 112.51C412.939 112.685 413.176 112.964 413.299 113.297C413.421 113.63 413.422 113.996 413.3 114.33L413.07 115.55C412.985 115.878 412.985 116.222 413.07 116.55L412.19 116.39C412.109 116.062 412.109 115.718 412.19 115.39L412.42 114.16C412.59 113.27 412.23 112.91 411.5 112.77L410.89 112.66L410.25 116L409.37 115.84L410.87 108L412.63 108.32ZM411.7 112C412.39 112.13 412.85 112 413.01 111.13L413.15 110.38C413.29 109.68 413.15 109.26 412.45 109.13L411.6 108.97L411.05 111.87L411.7 112Z" fill="#263238"/>
<path d="M420.12 111.72L419.99 112.42L419.16 112.26L419.3 111.51C419.44 110.81 419.24 110.33 418.6 110.21C417.96 110.09 417.6 110.46 417.47 111.21L416.68 115.35C416.54 116.06 416.75 116.54 417.38 116.66C418.01 116.78 418.38 116.41 418.51 115.66L418.71 114.66L419.54 114.81L419.35 115.81C419.12 116.99 418.42 117.67 417.21 117.44C416 117.21 415.6 116.32 415.83 115.13L416.6 111.13C416.82 109.95 417.53 109.27 418.73 109.5C418.976 109.538 419.21 109.628 419.418 109.765C419.626 109.901 419.801 110.081 419.933 110.292C420.065 110.502 420.15 110.739 420.182 110.986C420.215 111.232 420.193 111.483 420.12 111.72Z" fill="#263238"/>
<path d="M420.85 111.85C420.876 111.596 420.954 111.35 421.08 111.128C421.206 110.906 421.376 110.712 421.581 110.559C421.786 110.407 422.02 110.299 422.269 110.241C422.518 110.184 422.776 110.18 423.027 110.228C423.278 110.276 423.516 110.376 423.726 110.521C423.936 110.666 424.114 110.853 424.248 111.07C424.381 111.288 424.469 111.531 424.503 111.784C424.538 112.037 424.52 112.294 424.45 112.54L423.67 116.54C423.638 116.787 423.556 117.025 423.428 117.239C423.301 117.454 423.131 117.64 422.929 117.786C422.727 117.932 422.498 118.036 422.255 118.09C422.011 118.145 421.759 118.149 421.515 118.102C421.27 118.056 421.037 117.96 420.83 117.82C420.624 117.681 420.448 117.5 420.314 117.291C420.179 117.081 420.089 116.845 420.049 116.599C420.009 116.353 420.019 116.102 420.08 115.86L420.85 111.85ZM420.93 116.12C420.8 116.83 421.02 117.3 421.65 117.42C422.28 117.54 422.65 117.19 422.79 116.42L423.58 112.28C423.72 111.57 423.51 111.09 422.87 110.97C422.23 110.85 421.87 111.22 421.72 111.97L420.93 116.12Z" fill="#263238"/>
<path d="M427.47 111.16C427.727 111.188 427.974 111.274 428.193 111.412C428.411 111.55 428.595 111.736 428.731 111.956C428.867 112.176 428.951 112.423 428.977 112.681C429.003 112.938 428.97 113.197 428.88 113.44L428.13 117.44C427.9 118.63 427.2 119.27 425.98 119.03L424.14 118.68L425.64 110.85L427.47 111.16ZM426.12 118.16C426.75 118.28 427.12 117.94 427.26 117.22L428.03 113.22C428.16 112.5 427.94 112.05 427.3 111.93L426.36 111.75L425.17 118L426.12 118.16Z" fill="#263238"/>
<path d="M432.2 115.66L432.05 116.44L430.13 116.07L429.6 118.86L431.95 119.31L431.8 120.1L428.58 119.49L430.07 111.65L433.3 112.27L433.14 113.06L430.79 112.61L430.28 115.29L432.2 115.66Z" fill="#263238"/>
<path d="M387.803 142.29C388.093 141.943 388.474 141.684 388.904 141.543C389.333 141.401 389.794 141.383 390.233 141.49C392.133 141.85 392.713 143.41 392.303 145.49L391.753 148.38C391.323 150.64 389.963 151.91 387.703 151.48C385.443 151.05 384.703 149.37 385.103 147.11L385.293 146.11L386.833 146.4L386.623 147.5C386.373 148.83 386.763 149.74 387.943 149.96C389.123 150.18 389.833 149.49 390.083 148.16L390.633 145.29C390.893 143.96 390.493 143.05 389.313 142.83C389.099 142.772 388.875 142.76 388.655 142.793C388.436 142.826 388.226 142.904 388.038 143.023C387.85 143.141 387.689 143.297 387.564 143.481C387.439 143.664 387.354 143.872 387.313 144.09L387.243 144.43L385.703 144.14L387.703 136L393.533 137.11L393.253 138.59L388.903 137.76L387.803 142.29Z" fill="#263238"/>
<path d="M401.424 142.33V142.61L399.884 142.31L399.954 141.93C400.214 140.6 399.814 139.72 398.604 139.49C397.394 139.26 396.604 139.95 396.354 141.49L395.724 144.81C395.987 144.353 396.392 143.996 396.878 143.792C397.364 143.587 397.903 143.548 398.414 143.68C400.314 144.04 400.894 145.57 400.484 147.68L400.064 149.92C399.634 152.18 398.224 153.44 395.974 153.01C393.724 152.58 392.854 150.88 393.284 148.62L394.724 141.08C395.164 138.74 396.504 137.48 398.844 137.93C401.184 138.38 401.854 140.07 401.424 142.33ZM395.284 146.9L394.864 149.11C394.604 150.44 395.004 151.35 396.204 151.58C397.404 151.81 398.114 151.11 398.364 149.78L398.784 147.56C399.044 146.23 398.624 145.32 397.444 145.1C396.264 144.88 395.584 145.57 395.284 146.9Z" fill="#263238"/>
<path d="M433.83 149.25V149.53L432.29 149.23L432.36 148.85C432.62 147.52 432.22 146.64 431.01 146.41C429.8 146.18 429.01 146.87 428.76 148.41L428.13 151.73C428.393 151.274 428.799 150.916 429.284 150.712C429.77 150.508 430.31 150.469 430.82 150.6C432.72 150.96 433.3 152.49 432.89 154.6L432.47 156.84C432.04 159.1 430.63 160.36 428.38 159.93C426.13 159.5 425.26 157.8 425.69 155.54L427.13 148C427.57 145.66 428.91 144.4 431.25 144.85C433.59 145.3 434.26 146.99 433.83 149.25ZM427.69 153.82L427.27 156.03C427.01 157.36 427.41 158.27 428.61 158.5C429.81 158.73 430.52 158.03 430.77 156.7L431.19 154.48C431.45 153.15 431.03 152.24 429.85 152.02C428.67 151.8 427.99 152.49 427.69 153.82Z" fill="#263238"/>
<path d="M409.643 143.9L409.593 144.18L408.043 143.88L408.123 143.5C408.373 142.17 407.973 141.29 406.773 141.06C405.573 140.83 404.823 141.52 404.523 143.06L403.883 146.37C404.15 145.918 404.557 145.564 405.042 145.362C405.527 145.16 406.064 145.121 406.573 145.25C408.473 145.61 409.063 147.14 408.653 149.25L408.223 151.48C407.793 153.74 406.393 155.01 404.133 154.58C401.873 154.15 401.013 152.45 401.443 150.19L402.883 142.76C403.333 140.42 404.663 139.16 407.013 139.61C409.363 140.06 410.073 141.64 409.643 143.9ZM403.493 148.46L403.073 150.68C402.823 152.01 403.213 152.92 404.423 153.15C405.633 153.38 406.323 152.68 406.583 151.35L407.003 149.13C407.253 147.8 406.843 146.89 405.653 146.66C404.463 146.43 403.753 147.13 403.493 148.46Z" fill="#263238"/>
<path d="M417.853 145.49L416.413 153.03C415.963 155.37 414.633 156.65 412.263 156.2C409.893 155.75 409.203 154.1 409.633 151.85L409.693 151.57L411.233 151.86L411.153 152.25C410.903 153.58 411.323 154.47 412.503 154.69C413.683 154.91 414.503 154.24 414.773 152.69L415.403 149.38C415.137 149.83 414.732 150.181 414.248 150.38C413.764 150.578 413.229 150.614 412.723 150.48C410.823 150.12 410.233 148.61 410.643 146.48L411.073 144.22C411.503 141.96 412.883 140.71 415.163 141.14C417.443 141.57 418.283 143.23 417.853 145.49ZM412.713 144.42L412.293 146.64C412.043 147.97 412.453 148.88 413.643 149.11C414.833 149.34 415.543 148.64 415.793 147.31L416.223 145.09C416.483 143.74 416.083 142.85 414.873 142.62C413.663 142.39 412.973 143.07 412.713 144.42Z" fill="#263238"/>
<path d="M426.223 147.02L426.133 147.49C425.853 148.99 425.133 149.98 423.863 150.21C425.003 150.92 425.243 152.21 424.963 153.65L424.753 154.75C424.313 157.03 422.863 158.22 420.563 157.75C418.263 157.28 417.343 155.67 417.783 153.39L417.993 152.29C418.273 150.79 418.993 149.76 420.303 149.49C419.183 148.8 418.883 147.63 419.173 146.13L419.253 145.66C419.693 143.38 421.153 142.24 423.443 142.66C425.733 143.08 426.663 144.76 426.223 147.02ZM420.873 146.02L420.743 146.73C420.463 148.17 421.043 148.94 422.203 149.16C423.363 149.38 424.203 148.88 424.453 147.44L424.583 146.76C424.873 145.24 424.313 144.41 423.143 144.19C421.973 143.97 421.163 144.52 420.873 146.05V146.02ZM419.653 152.41L419.413 153.66C419.123 155.18 419.663 156.03 420.843 156.25C422.023 156.47 422.843 155.89 423.133 154.37L423.373 153.12C423.643 151.69 423.143 150.87 421.923 150.64C420.703 150.41 419.933 151.01 419.653 152.44V152.41Z" fill="#263238"/>
<path d="M377.37 186.51L428.43 196.25" stroke="#263238" stroke-miterlimit="10"/>
<path d="M375.47 196.47L426.52 206.21" stroke="#263238" stroke-miterlimit="10"/>
<path d="M460.16 148.98L472.51 147.08" stroke="#263238" stroke-miterlimit="10"/>
<path d="M458.26 163.23L464.91 165.13" stroke="#263238" stroke-miterlimit="10"/>
<path d="M454.46 175.58L466.81 184.13" stroke="#263238" stroke-miterlimit="10"/>
<path d="M341.77 172.7C342.412 172.7 343.027 172.445 343.481 171.991C343.935 171.537 344.19 170.922 344.19 170.28V150.28C344.19 149.638 343.935 149.023 343.481 148.569C343.027 148.115 342.412 147.86 341.77 147.86H341.67V140.04C341.669 138.772 341.418 137.516 340.931 136.345C340.444 135.175 339.731 134.111 338.833 133.216C337.935 132.32 336.869 131.611 335.697 131.128C334.524 130.645 333.268 130.397 332 130.4H121C118.441 130.4 115.986 131.417 114.177 133.226C112.367 135.036 111.35 137.491 111.35 140.05V285.82C111.353 288.378 112.371 290.829 114.18 292.637C115.989 294.445 118.442 295.46 121 295.46H332C334.558 295.46 337.011 294.445 338.82 292.637C340.63 290.829 341.647 288.378 341.65 285.82V233.52H341.75C342.392 233.52 343.007 233.265 343.461 232.811C343.915 232.357 344.17 231.742 344.17 231.1V211.1C344.17 210.458 343.915 209.843 343.461 209.389C343.007 208.935 342.392 208.68 341.75 208.68H341.65V206.15H341.75C342.392 206.15 343.007 205.895 343.461 205.441C343.915 204.987 344.17 204.372 344.17 203.73V183.73C344.17 183.088 343.915 182.473 343.461 182.019C343.007 181.565 342.392 181.31 341.75 181.31H341.65V172.7H341.77Z" fill="#263238"/>
<path d="M333.07 136.83H119.98V289.03H333.07V136.83Z" fill="#1F6587" stroke="#263238" stroke-miterlimit="10"/>
<path d="M236.96 483.71C272.29 483.71 300.93 456.798 300.93 423.6C300.93 390.402 272.29 363.49 236.96 363.49C201.63 363.49 172.99 390.402 172.99 423.6C172.99 456.798 201.63 483.71 236.96 483.71Z" fill="#263238"/>
<path d="M235.61 480.58C270.94 480.58 299.58 453.668 299.58 420.47C299.58 387.272 270.94 360.36 235.61 360.36C200.28 360.36 171.64 387.272 171.64 420.47C171.64 453.668 200.28 480.58 235.61 480.58Z" fill="white" stroke="#263238" stroke-miterlimit="10"/>
<path d="M235.61 472.36C266.102 472.36 290.82 449.128 290.82 420.47C290.82 391.812 266.102 368.58 235.61 368.58C205.118 368.58 180.4 391.812 180.4 420.47C180.4 449.128 205.118 472.36 235.61 472.36Z" fill="white" stroke="#263238" stroke-miterlimit="10"/>
<path d="M250.91 385.54C228.75 385.54 210.78 408.11 210.78 435.96C210.78 453.96 218.27 469.68 229.52 478.61C231.38 478.77 233.26 478.86 235.16 478.86C258.46 478.86 278.77 466.94 289.62 449.24C290.549 444.888 291.012 440.45 291 436C291 408.11 273.07 385.54 250.91 385.54Z" fill="#263238"/>
<path d="M211.25 413.22H185.12V419.47H211.25V413.22Z" fill="white" stroke="#263238" stroke-miterlimit="10"/>
<path d="M244.83 453.46C266.844 453.46 284.69 436.693 284.69 416.01C284.69 395.327 266.844 378.56 244.83 378.56C222.816 378.56 204.97 395.327 204.97 416.01C204.97 436.693 222.816 453.46 244.83 453.46Z" fill="white" stroke="#263238" stroke-miterlimit="10"/>
<path d="M244.83 447.28C263.204 447.28 278.1 433.28 278.1 416.01C278.1 398.74 263.204 384.74 244.83 384.74C226.455 384.74 211.56 398.74 211.56 416.01C211.56 433.28 226.455 447.28 244.83 447.28Z" fill="#263238" stroke="#263238" stroke-miterlimit="10"/>
<path d="M230.89 387.33C230.678 386.807 230.43 386.299 230.15 385.81C226.75 379.9 227.15 372.39 229.72 365.41" stroke="#263238" stroke-miterlimit="10"/>
<path d="M231.42 399.76C231.42 399.76 233.2 393 230.89 387.33" stroke="white" stroke-miterlimit="10"/>
<path d="M243.29 385.81C239.9 379.9 240.29 372.39 242.87 365.41" stroke="#263238" stroke-miterlimit="10"/>
<path d="M244.56 399.76C244.56 399.76 246.68 391.71 243.29 385.81" stroke="white" stroke-miterlimit="10"/>
<path d="M256.86 386.6C256.73 386.33 256.59 386.07 256.44 385.81C253.05 379.9 253.44 372.39 256.01 365.41" stroke="#263238" stroke-miterlimit="10"/>
<path d="M257.71 399.76C257.71 399.76 259.65 392.41 256.86 386.6" stroke="white" stroke-miterlimit="10"/>
<path d="M384.14 360.24C384.14 360.24 383.14 360.3 381.23 360.5C379.47 354.5 374.17 336.76 370.69 327.59C366.47 316.45 360.69 300.7 356.87 294.17C353.05 287.64 353.41 283.8 346.11 277.66C338.81 271.52 332.28 274.2 332.28 274.2C332.28 274.2 331.13 269.59 323.83 267.29C316.53 264.99 306.55 269.59 306.55 269.59C306.55 269.59 305.01 266.9 297.71 267.67C295.559 267.933 293.511 268.742 291.761 270.02C290.011 271.298 288.616 273.002 287.71 274.97C287.71 274.97 272.71 244.97 266.97 242.7C261.23 240.43 255.44 246.16 257.75 251.54C260.06 256.92 277.34 286.88 279.64 293.79C281.94 300.7 286.94 312.23 286.94 312.23C286.94 312.23 270.42 300.32 265.43 299.17C260.44 298.02 253.14 297.25 248.91 301.86C244.68 306.47 254.67 307.62 262.74 314.92C270.81 322.22 283.87 339.11 290.01 349.87C296.15 360.63 309.22 362.55 315.01 368.69C319.06 373.02 324.83 379.05 327.89 382.25C326.854 383.299 325.889 384.414 325 385.59L337.67 416.7C337.67 416.7 340.36 412.48 351.12 404.03C361.88 395.58 395.29 385.21 395.29 385.21L384.14 360.24Z" fill="#263238" stroke="#263238" stroke-miterlimit="10"/>
<path d="M329.51 376.4C329.51 376.4 320.29 366.8 314.51 360.66C308.73 354.52 295.69 352.59 289.51 341.83C283.33 331.07 270.3 314.18 262.24 306.88C254.18 299.58 244.19 298.43 248.41 293.82C252.63 289.21 260 290 265 291.13C270 292.26 286.51 304.19 286.51 304.19C286.51 304.19 281.51 292.67 279.21 285.76C276.91 278.85 259.6 248.88 257.3 243.5C255 238.12 260.75 232.36 266.51 234.67C272.27 236.98 287.26 266.93 287.26 266.93C288.164 264.961 289.558 263.256 291.309 261.98C293.059 260.703 295.109 259.898 297.26 259.64C304.56 258.87 306.1 261.56 306.1 261.56C306.1 261.56 316.1 256.95 323.38 259.25C330.66 261.55 331.83 266.17 331.83 266.17C331.83 266.17 338.36 263.48 345.66 269.62C352.96 275.76 352.57 279.62 356.41 286.14C360.25 292.66 366.02 308.42 370.24 319.56C374.46 330.7 381.38 354.51 381.38 354.51L331.81 381.4L329.51 376.4Z" fill="white" stroke="#263238" stroke-miterlimit="10"/>
<path d="M287.26 266.93L300.7 286.91" stroke="#263238" stroke-miterlimit="10"/>
<path d="M306.08 261.56L318.37 280.76" stroke="#263238" stroke-miterlimit="10"/>
<path d="M331.81 266.17L340.26 281.15" stroke="#263238" stroke-miterlimit="10"/>
<path d="M292.41 321.37L294.17 326.47" stroke="#263238" stroke-miterlimit="10"/>
<path d="M286.49 304.19L291.19 317.83" stroke="#263238" stroke-miterlimit="10"/>
<path d="M308 291.52L311.07 295.74" stroke="#263238" stroke-miterlimit="10"/>
<path d="M322.21 287.29L325.67 291.9" stroke="#263238" stroke-miterlimit="10"/>
<path d="M341.03 284.99L343.33 292.29" stroke="#263238" stroke-miterlimit="10"/>
<path d="M324.51 377.56C324.51 377.56 333.35 365.27 351.4 359.12C361.828 355.486 372.668 353.165 383.67 352.21L394.81 377.21C394.81 377.21 361.39 387.54 350.63 396C339.87 404.46 337.19 408.68 337.19 408.68L324.51 377.56Z" fill="white" stroke="#263238" stroke-miterlimit="10"/>
<path d="M354.86 460.52C354.86 460.52 340.26 424.03 336.42 416.35C332.58 408.67 338.73 404.83 338.73 404.83C338.73 404.83 347.56 392.92 370.61 383.7C393.66 374.48 395.61 374.1 401.33 380.63C407.05 387.16 444.89 460.63 444.89 460.63" fill="white"/>
<path d="M354.86 460.52C354.86 460.52 340.26 424.03 336.42 416.35C332.58 408.67 338.73 404.83 338.73 404.83C338.73 404.83 347.56 392.92 370.61 383.7C393.66 374.48 395.61 374.1 401.33 380.63C407.05 387.16 444.89 460.63 444.89 460.63" stroke="#263238" stroke-miterlimit="10"/>
<path d="M115.08 422.13C119.045 414.623 125.206 408.504 132.74 404.59C145.17 398.25 153.25 395.52 165.15 383.78C177.05 372.04 196.66 361.56 204.74 360.12C212.82 358.68 215.51 355.19 212.03 351.23C208.55 347.27 199.03 347.04 190.58 349.9C182.13 352.76 174.29 356.26 174.29 356.26C178.58 347.82 181.43 337.65 185.65 329.18C188.65 323.18 193.56 313.24 196.48 307.18C198.38 303.23 204.04 296.65 201.48 292.33C198.92 288.01 192.89 290.88 189.82 295C184.94 301.56 161.07 337.55 161.07 337.55L174.68 308.75C181.57 294.16 184.85 287.2 183.88 289.27C185.88 285.01 189.8 279.27 187.41 274.4C186.869 273.26 186.031 272.286 184.986 271.58C183.94 270.874 182.723 270.462 181.464 270.386C180.204 270.311 178.947 270.575 177.824 271.15C176.701 271.726 175.754 272.593 175.08 273.66C171.76 279.06 146.39 327.07 146.39 327.07C146.39 327.07 162.27 285.87 164.3 281.13C166.78 275.35 165.3 270.3 161.66 270.33C156.34 270.33 153.83 276.26 151.75 280.26L152.91 278.57C147.91 285.2 144.6 293.9 140.44 301.09C135.607 309.503 130.593 317.807 125.4 326C126.4 317.51 129.83 309.55 134.05 302.18C136.6 297.74 147.21 286.83 145.39 281.47C143.83 276.85 132.2 285.53 125.39 295C121.71 300.16 112.04 314.24 109.39 324.14C106.74 334.04 88.11 367.77 83.14 377.14C78.17 386.51 72.2 403.14 72.2 403.14L115.08 422.13Z" fill="#263238" stroke="#263238" stroke-miterlimit="10"/>
<path d="M129.27 413.07C129.27 413.07 119.69 401.35 101.27 396.33C90.6386 393.349 79.6781 391.699 68.6401 391.42L59.0801 417C59.0801 417 93.0801 425.3 104.33 433.07C115.58 440.84 118.53 444.89 118.53 444.89L129.27 413.07Z" fill="#263238" stroke="#263238" stroke-miterlimit="10"/>
<path d="M113.82 417.69C117.785 410.189 123.942 404.074 131.47 400.16C143.9 393.81 151.99 391.08 163.88 379.35C175.77 367.62 195.39 357.13 203.48 355.68C211.57 354.23 214.25 350.76 210.76 346.79C207.27 342.82 197.76 342.61 189.31 345.47C180.86 348.33 173 351.82 173 351.82C177.29 343.38 180.14 333.22 184.36 324.74C187.36 318.74 192.28 308.81 195.19 302.74C197.09 298.79 202.75 292.21 200.19 287.9C197.63 283.59 191.61 286.44 188.54 290.57C183.66 297.13 159.79 333.11 159.79 333.11C164.317 323.51 168.85 313.913 173.39 304.32C180.28 289.73 183.57 282.77 182.59 284.83C184.59 280.58 188.52 274.88 186.13 269.97C185.588 268.83 184.75 267.855 183.704 267.149C182.658 266.442 181.441 266.029 180.181 265.953C178.921 265.876 177.663 266.139 176.539 266.713C175.415 267.288 174.466 268.154 173.79 269.22C170.47 274.63 145.1 322.64 145.1 322.64C145.1 322.64 160.98 281.43 163.01 276.7C165.49 270.91 164.01 265.87 160.37 265.9C155.05 265.9 152.54 271.82 150.46 275.83L151.62 274.14C146.62 280.76 143.31 289.47 139.15 296.66C134.297 305.06 129.27 313.36 124.07 321.56C125.07 313.07 128.5 305.12 132.72 297.75C135.27 293.31 145.88 282.4 144.07 277.03C142.51 272.42 130.87 281.09 124.07 290.57C120.38 295.73 110.72 309.8 108.07 319.71C105.42 329.62 86.7899 363.33 81.8199 372.71C76.8499 382.09 70.8799 398.71 70.8799 398.71L113.82 417.69Z" fill="white" stroke="#263238" stroke-miterlimit="10"/>
<path d="M145.16 322.65L140.57 331.92" stroke="#263238" stroke-miterlimit="10"/>
<path d="M159.85 333.12L156.27 337.76" stroke="#263238" stroke-miterlimit="10"/>
<path d="M173.02 351.82L168.42 358.52" stroke="#263238" stroke-miterlimit="10"/>
<path d="M149.24 347.42L148.87 351.41" stroke="#263238" stroke-miterlimit="10"/>
<path d="M137.78 340.15L137.8 344" stroke="#263238" stroke-miterlimit="10"/>
<path d="M120.92 332.12L121.85 338.67" stroke="#263238" stroke-miterlimit="10"/>
<path d="M128 408.64C128 408.64 118.42 396.92 100 391.9C89.3777 388.925 78.4275 387.279 67.4001 387L57.8201 412.6C57.8201 412.6 91.8201 420.89 103.07 428.66C114.32 436.43 117.27 440.49 117.27 440.49L128 408.64Z" fill="white" stroke="#263238" stroke-miterlimit="10"/>
<path d="M112.76 464C112.76 464 115.15 456 118.51 448.09C121.87 440.18 115.51 436.73 115.51 436.73C115.51 436.73 105.95 425.39 82.38 417.61C58.81 409.83 56.87 409.56 51.52 416.43C46.17 423.3 29 464.62 29 464.62" fill="white"/>
<path d="M112.76 464C112.76 464 115.15 456 118.51 448.09C121.87 440.18 115.51 436.73 115.51 436.73C115.51 436.73 105.95 425.39 82.38 417.61C58.81 409.83 56.87 409.56 51.52 416.43C46.17 423.3 29 464.62 29 464.62" stroke="#263238" stroke-miterlimit="10"/>
</svg>
