<svg width="120" height="121" viewBox="0 0 120 121" fill="none" xmlns="http://www.w3.org/2000/svg">
<path d="M52.4971 15.5137C45.2036 15.5137 38.2091 18.4109 33.0519 23.5682C27.8946 28.7254 24.9971 35.7202 24.9971 43.0137C25.0006 49.4372 27.2526 55.6567 31.3624 60.5933C35.4723 65.53 41.1806 68.8721 47.4971 70.04V55.5185H57.4971V70.0351C63.8126 68.8674 69.5201 65.5259 73.6299 60.5903C77.7396 55.6546 79.9924 49.4363 79.9971 43.0137C79.9971 35.7202 77.0995 28.7254 71.9422 23.5682C66.785 18.4109 59.7905 15.5137 52.4971 15.5137ZM59.9385 33.0185C60.4416 33.0037 60.9377 33.1413 61.3612 33.4131C61.7847 33.685 62.1162 34.0784 62.3121 34.542C62.508 35.0056 62.5589 35.5176 62.4586 36.0108C62.3583 36.504 62.1113 36.9553 61.75 37.3057L51.7695 47.2861C51.3014 47.7542 50.6664 48.017 50.0044 48.017C49.3423 48.017 48.7074 47.7542 48.2393 47.2861L43.2441 42.2959C43.0123 42.0638 42.8281 41.7882 42.7028 41.485C42.5774 41.1819 42.5133 40.8569 42.5135 40.5289C42.5138 40.2009 42.5782 39.8764 42.704 39.5734C42.8297 39.2704 43.0144 38.995 43.2466 38.7632C43.4787 38.5314 43.7539 38.3477 44.0571 38.2224C44.3603 38.0971 44.6855 38.0327 45.0135 38.0329C45.3416 38.0331 45.6663 38.0979 45.9694 38.2236C46.2724 38.3494 46.5475 38.5335 46.7793 38.7656L50.0068 41.9932L58.2246 33.7754C58.676 33.3102 59.2905 33.0387 59.9385 33.0185Z" fill="#1F6587"/>
<path d="M72.4971 75.5195C68.3853 75.5195 64.9971 78.9078 64.9971 83.0195H69.9971C69.9971 81.5913 71.0688 80.5195 72.4971 80.5195C73.9253 80.5195 74.9971 81.5913 74.9971 83.0195V90.5195H79.9971V83.0195C79.9971 78.9078 76.6088 75.5195 72.4971 75.5195Z" fill="#1F6587"/>
<path d="M62.5039 70.5186C58.3922 70.5186 55.0039 73.9068 55.0039 78.0186H60.0039C60.0039 76.5903 61.0757 75.5186 62.5039 75.5186C63.9322 75.5186 65.0039 76.5903 65.0039 78.0186V90.5185H70.0039V78.0186C70.0039 73.9068 66.6157 70.5186 62.5039 70.5186Z" fill="#1F6587"/>
<path d="M42.499 80.5205C38.3865 80.5205 34.999 83.9085 34.999 88.0205V106.771C34.999 114.344 41.1748 120.52 48.749 120.52H49.999V115.52H48.749C43.8583 115.52 39.999 111.661 39.999 106.771V88.0205C39.999 86.611 41.0888 85.5205 42.499 85.5205C43.9095 85.5205 44.999 86.611 44.999 88.0205H49.999C49.999 83.9085 46.6115 80.5205 42.499 80.5205Z" fill="#1F6587"/>
<path d="M82.5 80.5205C78.3937 80.5205 75.0244 83.9143 75.0244 88.0205H80.0244C80.0244 86.605 81.1077 85.5205 82.5 85.5205C83.8922 85.5205 84.9756 86.605 84.9756 88.0205L85.0006 106.771C85.0006 111.667 81.1567 115.52 76.2994 115.52H75V120.52H76.2988C83.8518 120.52 90 114.338 90 106.771L89.975 88.0254C89.975 83.9191 86.6056 80.526 82.4994 80.526L82.5 80.5205Z" fill="#1F6587"/>
<path d="M52.5026 50.5225C48.3906 50.5225 45.002 53.9107 45.002 58.0225V100.522H50.002V58.0225C50.002 56.5942 51.0741 55.5225 52.5026 55.5225C53.9306 55.5225 55.0026 56.5942 55.0026 58.0225V90.5218H60.0026V58.0225C60.0026 53.9107 56.6143 50.5225 52.5026 50.5225Z" fill="#1F6587"/>
<path d="M102.458 5.4837C102.13 5.48882 101.806 5.55841 101.504 5.68878C101.203 5.81915 100.93 6.00782 100.702 6.24359C100.473 6.47936 100.293 6.75741 100.173 7.06268C100.052 7.36796 99.9922 7.69446 99.9974 8.02277V17.9495C99.9925 18.2809 100.053 18.6094 100.177 18.9169C100.3 19.2245 100.484 19.5049 100.716 19.7409C100.949 19.9769 101.227 20.1641 101.532 20.292C101.838 20.42 102.166 20.4861 102.497 20.4861C102.829 20.4861 103.157 20.42 103.462 20.292C103.768 20.1641 104.046 19.9769 104.278 19.7409C104.511 19.5049 104.694 19.2245 104.818 18.9169C104.941 18.6094 105.002 18.2809 104.997 17.9495V8.02277C105.003 7.6879 104.941 7.35539 104.815 7.04498C104.689 6.73457 104.502 6.45233 104.266 6.21552C104.029 5.9787 103.747 5.79194 103.436 5.6662C103.126 5.54045 102.793 5.47847 102.458 5.4837Z" fill="#1F6587"/>
<path d="M97.5385 10.4856C97.2073 10.4812 96.8782 10.5426 96.571 10.6662C96.2639 10.7899 95.9846 10.9732 95.7489 11.2058C95.5132 11.4384 95.3261 11.7157 95.1984 12.0212C95.0706 12.3267 95.0049 12.6544 95.0049 12.9856C95.0049 13.3167 95.0706 13.6444 95.1984 13.9499C95.3261 14.2554 95.5132 14.5322 95.7489 14.7647C95.9846 14.9973 96.2639 15.1812 96.571 15.3049C96.8782 15.4286 97.2073 15.49 97.5385 15.4856H107.47C107.801 15.49 108.13 15.4286 108.437 15.3049C108.744 15.1812 109.024 14.9973 109.26 14.7647C109.495 14.5322 109.682 14.2554 109.81 13.9499C109.938 13.6444 110.004 13.3167 110.004 12.9856C110.004 12.6544 109.938 12.3267 109.81 12.0212C109.682 11.7157 109.495 11.4384 109.26 11.2058C109.024 10.9732 108.744 10.7899 108.437 10.6662C108.13 10.5426 107.801 10.4812 107.47 10.4856H97.5385Z" fill="#1F6587"/>
<path d="M7.46222 20.5706C7.13391 20.5757 6.8096 20.6459 6.50824 20.7763C6.20688 20.9067 5.93415 21.0947 5.70563 21.3305C5.4771 21.5663 5.29735 21.8449 5.17645 22.1502C5.05555 22.4555 4.99615 22.7814 5.00128 23.1097V33.0364C4.99645 33.3678 5.05726 33.6969 5.18073 34.0044C5.3042 34.312 5.48765 34.5918 5.72028 34.8278C5.9529 35.0638 6.22999 35.251 6.53571 35.379C6.84142 35.5069 7.16988 35.5731 7.50128 35.5731C7.83269 35.5731 8.16053 35.5069 8.46625 35.379C8.77196 35.251 9.04905 35.0638 9.28168 34.8278C9.5143 34.5918 9.69776 34.312 9.82123 34.0044C9.9447 33.6969 10.0061 33.3678 10.0013 33.0364V23.1097C10.0065 22.7748 9.94453 22.4423 9.81879 22.1319C9.69304 21.8215 9.50568 21.5399 9.26886 21.303C9.03204 21.0662 8.75041 20.8795 8.44 20.7537C8.12959 20.628 7.79709 20.5654 7.46222 20.5706Z" fill="#1F6587"/>
<path d="M2.53357 25.5725C2.20247 25.5681 1.87394 25.6295 1.56677 25.7531C1.2596 25.8768 0.979713 26.0601 0.744018 26.2927C0.508324 26.5253 0.321215 26.8026 0.193481 27.1081C0.0657481 27.4136 0 27.7414 0 28.0725C0 28.4036 0.0657481 28.7313 0.193481 29.0368C0.321215 29.3423 0.508324 29.6197 0.744018 29.8523C0.979713 30.0849 1.2596 30.2682 1.56677 30.3918C1.87394 30.5155 2.20247 30.5769 2.53357 30.5725H12.4652C12.7963 30.5769 13.1248 30.5155 13.432 30.3918C13.7392 30.2682 14.0191 30.0849 14.2548 29.8523C14.4905 29.6197 14.6776 29.3423 14.8053 29.0368C14.933 28.7313 14.9988 28.4036 14.9988 28.0725C14.9988 27.7414 14.933 27.4136 14.8053 27.1081C14.6776 26.8026 14.4905 26.5253 14.2548 26.2927C14.0191 26.0601 13.7392 25.8768 13.432 25.7531C13.1248 25.6295 12.7963 25.5681 12.4652 25.5725H2.53357Z" fill="#1F6587"/>
<path d="M95.0039 33.0176C95.0039 33.6806 94.7403 34.3163 94.2715 34.7852C93.8027 35.254 93.1669 35.5175 92.5039 35.5176C92.1756 35.5176 91.8502 35.4528 91.5469 35.3271C91.2435 35.2015 90.9679 35.0179 90.7357 34.7858C90.5035 34.5536 90.3194 34.2779 90.1937 33.9746C90.0681 33.6713 90.0039 33.3459 90.0039 33.0176C90.0039 32.6893 90.0681 32.3645 90.1937 32.0612C90.3194 31.7578 90.5035 31.4821 90.7357 31.25C90.9679 31.0178 91.2435 30.8336 91.5469 30.708C91.8502 30.5824 92.1756 30.5175 92.5039 30.5176C93.1669 30.5176 93.8027 30.7812 94.2715 31.25C94.7403 31.7188 95.0039 32.3546 95.0039 33.0176Z" fill="#1F6587"/>
<path d="M120.001 3.01953C120.001 3.68252 119.737 4.31832 119.269 4.78711C118.8 5.2559 118.164 5.51953 117.501 5.51953C116.838 5.51953 116.202 5.2559 115.733 4.78711C115.265 4.31832 115.001 3.68252 115.001 3.01953C115.001 2.69123 115.066 2.36642 115.191 2.06311C115.317 1.7598 115.501 1.4841 115.733 1.25195C115.966 1.01981 116.241 0.835599 116.545 0.709961C116.848 0.584323 117.173 0.519533 117.501 0.519531C117.829 0.519533 118.154 0.584323 118.457 0.709961C118.761 0.835599 119.036 1.01981 119.269 1.25195C119.501 1.4841 119.685 1.7598 119.811 2.06311C119.936 2.36642 120.001 2.69123 120.001 3.01953Z" fill="#1F6587"/>
<path d="M85.001 3.01953C85.0009 3.68252 84.7374 4.31832 84.2686 4.78711C83.7997 5.2559 83.164 5.51953 82.501 5.51953C81.838 5.51953 81.2016 5.2559 80.7328 4.78711C80.264 4.31832 80.001 3.68252 80.001 3.01953C80.001 2.69123 80.0652 2.36642 80.1908 2.06311C80.3164 1.7598 80.5006 1.4841 80.7328 1.25195C80.9649 1.01981 81.2406 0.835599 81.5439 0.709961C81.8473 0.584323 82.1727 0.519533 82.501 0.519531C82.8293 0.519533 83.1541 0.584323 83.4574 0.709961C83.7607 0.835599 84.0364 1.01981 84.2686 1.25195C84.5007 1.4841 84.6849 1.7598 84.8105 2.06311C84.9362 2.36642 85.001 2.69123 85.001 3.01953Z" fill="#1F6587"/>
<path d="M24.9961 8.02051C24.9961 8.34881 24.9313 8.67361 24.8057 8.97693C24.68 9.28024 24.4964 9.55594 24.2643 9.78808C24.0321 10.0202 23.7564 10.2044 23.4531 10.3301C23.1498 10.4557 22.8244 10.5205 22.4961 10.5205C22.1678 10.5205 21.843 10.4557 21.5397 10.3301C21.2364 10.2044 20.9607 10.0202 20.7285 9.78808C20.4964 9.55594 20.3122 9.28024 20.1865 8.97693C20.0609 8.67361 19.9961 8.34881 19.9961 8.02051C19.9961 7.69221 20.0609 7.36679 20.1865 7.06348C20.3122 6.76016 20.4964 6.48447 20.7285 6.25232C20.9607 6.02017 21.2364 5.83597 21.5397 5.71033C21.843 5.58469 22.1678 5.52051 22.4961 5.52051C22.8244 5.52051 23.1498 5.58469 23.4531 5.71033C23.7564 5.83597 24.0321 6.02017 24.2643 6.25232C24.4964 6.48447 24.68 6.76016 24.8057 7.06348C24.9313 7.36679 24.9961 7.69221 24.9961 8.02051Z" fill="#1F6587"/>
<path d="M20.0039 53.0225C20.0039 53.3508 19.9391 53.6756 19.8135 53.9789C19.6878 54.2822 19.5042 54.5579 19.2721 54.79C19.0399 55.0222 18.7643 55.2064 18.4609 55.332C18.1576 55.4577 17.8322 55.5225 17.5039 55.5225C17.1756 55.5225 16.8508 55.4577 16.5475 55.332C16.2442 55.2064 15.9685 55.0222 15.7363 54.79C15.5042 54.5579 15.32 54.2822 15.1943 53.9789C15.0687 53.6756 15.0039 53.3508 15.0039 53.0225C15.0039 52.6942 15.0687 52.3687 15.1943 52.0654C15.32 51.7621 15.5042 51.4864 15.7363 51.2543C15.9685 51.0221 16.2442 50.8385 16.5475 50.7129C16.8508 50.5873 17.1756 50.5225 17.5039 50.5225C17.8322 50.5225 18.1576 50.5873 18.4609 50.7129C18.7643 50.8385 19.0399 51.0221 19.2721 51.2543C19.5042 51.4864 19.6878 51.7621 19.8135 52.0654C19.9391 52.3687 20.0039 52.6942 20.0039 53.0225Z" fill="#1F6587"/>
<path d="M114.999 63.0156C114.999 63.3439 114.934 63.6687 114.809 63.972C114.683 64.2754 114.499 64.5511 114.267 64.7832C114.034 65.0153 113.759 65.1996 113.455 65.3252C113.152 65.4508 112.827 65.5156 112.499 65.5156C112.171 65.5156 111.846 65.4508 111.543 65.3252C111.239 65.1996 110.964 65.0153 110.731 64.7832C110.499 64.5511 110.315 64.2754 110.189 63.972C110.064 63.6687 109.999 63.3439 109.999 63.0156C109.999 62.6873 110.064 62.3619 110.189 62.0586C110.315 61.7553 110.499 61.4796 110.731 61.2474C110.964 61.0153 111.239 60.8317 111.543 60.7061C111.846 60.5804 112.171 60.5156 112.499 60.5156C112.827 60.5156 113.152 60.5804 113.455 60.7061C113.759 60.8317 114.034 61.0153 114.267 61.2474C114.499 61.4796 114.683 61.7553 114.809 62.0586C114.934 62.3619 114.999 62.6873 114.999 63.0156Z" fill="#1F6587"/>
</svg>
