<svg width="120" height="119" viewBox="0 0 120 119" fill="none" xmlns="http://www.w3.org/2000/svg">
<path d="M60.5606 95.7543C60.5606 83.2755 70.6766 73.1595 83.1554 73.1595C86.3342 73.1595 89.3558 73.8219 92.099 75.0063C91.7714 73.2027 91.4138 71.4051 90.9926 69.6219C89.8898 64.9611 86.4074 61.2303 81.8342 59.8107L73.7642 57.3039C71.0402 56.4579 69.0098 54.2319 68.3762 51.5127C70.6742 49.6335 72.4862 47.0439 73.751 44.3955C74.2982 43.2495 74.699 42.0591 75.0062 40.8459C76.3058 40.4691 77.345 39.3747 77.561 37.9551L78.2594 33.3663C78.479 31.9263 77.7938 30.5511 76.6358 29.8119C78.1022 27.8055 78.6242 25.0707 77.7998 22.4079C76.9862 19.7787 75.0482 17.8359 72.743 16.9923C71.4314 12.3975 67.2098 9.03027 62.195 9.03027C59.8694 9.03027 57.7166 9.75867 55.9406 10.9923C52.4234 10.2879 48.6854 11.0775 45.7622 13.4883C41.0222 17.3979 40.0634 24.2187 43.2026 29.5143C41.6978 30.1191 40.7378 31.6983 40.9922 33.3663L41.6906 37.9551C41.9162 39.4383 43.0382 40.5699 44.4206 40.8939C44.7266 42.0903 45.1238 43.2639 45.6638 44.3943C46.9514 47.0895 48.8066 49.7247 51.1634 51.6111C50.5034 54.2847 48.497 56.4675 45.8066 57.3027L37.7366 59.8095C33.1634 61.2303 29.681 64.9611 28.5782 69.6207C27.3794 74.6859 26.5682 79.8435 26.1026 85.0275C25.6562 89.9943 25.3202 95.7483 27.8318 100.264C31.2854 106.471 39.9962 106.475 46.151 107.158C50.663 107.658 55.1858 107.926 59.705 107.94C59.7314 107.94 59.7566 107.94 59.783 107.94C59.8094 107.94 59.8346 107.941 59.861 107.941C61.2638 107.937 62.6678 107.898 64.0718 107.845C61.853 104.35 60.5606 100.204 60.5606 95.7543Z" fill="#BA1A1A"/>
<path d="M83.1555 79.8613C74.3775 79.8613 67.2627 86.9773 67.2627 95.7541C67.2627 104.532 74.3787 111.647 83.1555 111.647C91.9335 111.647 99.0483 104.531 99.0483 95.7541C99.0483 86.9761 91.9323 79.8613 83.1555 79.8613ZM91.0635 99.9217C92.0967 100.955 92.0967 102.629 91.0635 103.662C90.0303 104.695 88.3563 104.695 87.3231 103.662L83.1555 99.4945L78.9879 103.662C77.9547 104.695 76.2807 104.695 75.2475 103.662C74.2143 102.629 74.2143 100.955 75.2475 99.9217L79.4151 95.7541L75.2475 91.5865C74.2143 90.5533 74.2143 88.8793 75.2475 87.8461C76.2807 86.8129 77.9547 86.8129 78.9879 87.8461L83.1555 92.0137L87.3231 87.8461C88.3563 86.8129 90.0303 86.8129 91.0635 87.8461C92.0967 88.8793 92.0967 90.5533 91.0635 91.5865L86.8959 95.7541L91.0635 99.9217Z" fill="#BA1A1A"/>
</svg>
