<svg width="120" height="116" viewBox="0 0 120 116" fill="none" xmlns="http://www.w3.org/2000/svg">
<path d="M60 115.042C93.1371 115.042 120 112.028 120 108.31C120 104.592 93.1371 101.578 60 101.578C26.8629 101.578 0 104.592 0 108.31C0 112.028 26.8629 115.042 60 115.042Z" fill="#F5F5F5"/>
<path d="M88.6713 102.344C88.672 103.514 88.2576 104.646 87.5019 105.539C86.7462 106.432 85.6982 107.028 84.5444 107.22C70.3424 109.617 55.8392 109.617 41.6371 107.22C40.4882 107.023 39.4464 106.425 38.6963 105.532C37.9463 104.639 37.5365 103.51 37.5396 102.344V54.9297H88.6947L88.6713 102.344Z" fill="#BA1A1A"/>
<path opacity="0.3" d="M37.5103 55.7852V62.4408C40.5893 63.5822 50.6986 64.4193 63.0907 64.4193C75.4829 64.4193 85.6098 63.5822 88.6712 62.4408V55.7852H37.5103Z" fill="black"/>
<path d="M89.6313 60.8595C89.6313 62.3639 78.0176 63.5814 63.0908 63.5814C48.164 63.5814 36.5503 62.3639 36.5503 60.8595L36.0645 54.9473H90.1464L89.6313 60.8595Z" fill="#BA1A1A"/>
<path d="M63.0908 57.6636C78.017 57.6636 90.1172 56.4476 90.1172 54.9475C90.1172 53.4475 78.017 52.2314 63.0908 52.2314C48.1646 52.2314 36.0645 53.4475 36.0645 54.9475C36.0645 56.4476 48.1646 57.6636 63.0908 57.6636Z" fill="#BA1A1A"/>
<path opacity="0.3" d="M63.0908 57.6636C78.017 57.6636 90.1172 56.4476 90.1172 54.9475C90.1172 53.4475 78.017 52.2314 63.0908 52.2314C48.1646 52.2314 36.0645 53.4475 36.0645 54.9475C36.0645 56.4476 48.1646 57.6636 63.0908 57.6636Z" fill="black"/>
<path opacity="0.2" d="M44.3706 99.0086C43.8448 99.0071 43.341 98.7975 42.9691 98.4257C42.5973 98.0539 42.3878 97.5501 42.3862 97.0242V69.8398C42.3878 69.314 42.5973 68.8102 42.9691 68.4384C43.341 68.0666 43.8448 67.857 44.3706 67.8555C44.896 67.8585 45.3989 68.0686 45.7704 68.4401C46.1419 68.8115 46.3519 69.3145 46.355 69.8398V97.0242C46.3519 97.5496 46.1419 98.0525 45.7704 98.424C45.3989 98.7955 44.896 99.0056 44.3706 99.0086Z" fill="black"/>
<path opacity="0.2" d="M81.8164 99.0086C81.2906 99.0071 80.7868 98.7975 80.4149 98.4257C80.0431 98.0539 79.8336 97.5501 79.832 97.0242V69.8398C79.8336 69.314 80.0431 68.8102 80.4149 68.4384C80.7868 68.0666 81.2906 67.857 81.8164 67.8555C82.3418 67.8585 82.8447 68.0686 83.2162 68.4401C83.5877 68.8115 83.7977 69.3145 83.8008 69.8398V97.0242C83.7977 97.5496 83.5877 98.0525 83.2162 98.424C82.8447 98.7955 82.3418 99.0056 81.8164 99.0086Z" fill="black"/>
<path opacity="0.2" d="M69.3306 99.0086C68.8052 99.0056 68.3023 98.7955 67.9308 98.424C67.5593 98.0525 67.3493 97.5496 67.3462 97.0242V69.8398C67.3493 69.3145 67.5593 68.8115 67.9308 68.4401C68.3023 68.0686 68.8052 67.8585 69.3306 67.8555C69.8564 67.857 70.3602 68.0666 70.7321 68.4384C71.1039 68.8102 71.3134 69.314 71.315 69.8398V97.0242C71.3134 97.5501 71.1039 98.0539 70.7321 98.4257C70.3602 98.7975 69.8564 99.0071 69.3306 99.0086Z" fill="black"/>
<path opacity="0.2" d="M56.8506 99.0086C56.3252 99.0056 55.8223 98.7955 55.4508 98.424C55.0793 98.0525 54.8693 97.5496 54.8662 97.0242V69.8398C54.8693 69.3145 55.0793 68.8115 55.4508 68.4401C55.8223 68.0686 56.3252 67.8585 56.8506 67.8555C57.3764 67.857 57.8803 68.0666 58.2521 68.4384C58.6239 68.8102 58.8334 69.314 58.835 69.8398V97.0242C58.8334 97.5501 58.6239 98.0539 58.2521 98.4257C57.8803 98.7975 57.3764 99.0071 56.8506 99.0086Z" fill="black"/>
<path d="M64.8586 18.327L57.9513 25.7729C57.6787 26.0631 57.3025 26.234 56.9045 26.2482C56.5066 26.2625 56.1191 26.119 55.8264 25.849L38.8859 10.0734C38.5943 9.80156 38.4225 9.42511 38.4082 9.02669C38.3939 8.62827 38.5384 8.24048 38.8098 7.9485L45.7406 0.502649C45.8748 0.356679 46.0367 0.238808 46.2169 0.155874C46.397 0.0729399 46.5918 0.026588 46.79 0.0195095C46.9882 0.0124311 47.1859 0.0447638 47.3715 0.114635C47.5571 0.184506 47.727 0.290528 47.8713 0.426549L64.8059 16.2022C65.0254 16.4063 65.179 16.6715 65.2468 16.9635C65.3146 17.2555 65.2935 17.5612 65.1864 17.8412C65.1132 18.0247 65.0014 18.1904 64.8586 18.327Z" fill="#BA1A1A"/>
<path opacity="0.3" d="M65.1631 17.8703L49.7563 15.3591L46.1797 0.139572C46.4527 0.013834 46.7568 -0.0282541 47.0537 0.0186244C47.3506 0.0655028 47.627 0.199247 47.848 0.402985L64.7826 16.1786C65.0128 16.3868 65.173 16.6612 65.2411 16.9641C65.3092 17.267 65.282 17.5835 65.1631 17.8703Z" fill="black"/>
<path d="M65.1631 17.8704L50.1602 13.3982L46.1797 0.192307C46.4527 0.0665684 46.7568 0.0244803 47.0537 0.0713587C47.3506 0.118237 47.627 0.251981 47.848 0.455719L64.7826 16.2313C65.0021 16.4355 65.1556 16.7006 65.2234 16.9927C65.2912 17.2847 65.2702 17.5903 65.1631 17.8704Z" fill="#BA1A1A"/>
<path opacity="0.2" d="M65.1631 17.8704L50.1602 13.3982L46.1797 0.192307C46.4527 0.0665684 46.7568 0.0244803 47.0537 0.0713587C47.3506 0.118237 47.627 0.251981 47.848 0.455719L64.7826 16.2313C65.0021 16.4355 65.1556 16.7006 65.2234 16.9927C65.2912 17.2847 65.2702 17.5903 65.1631 17.8704Z" fill="white"/>
<path d="M70.8819 30.5902L78.4917 39.476C78.6371 39.646 78.7463 39.8439 78.8126 40.0575C78.879 40.2711 78.901 40.4961 78.8775 40.7185C78.8539 40.941 78.7852 41.1563 78.6756 41.3513C78.566 41.5463 78.4178 41.7169 78.24 41.8526L61.7092 54.7307C61.4315 54.8979 61.1013 54.9558 60.7832 54.8931C60.4651 54.8303 60.1817 54.6514 59.9883 54.3912L54.0351 47.6009C53.9232 47.4704 53.8305 47.3245 53.76 47.1677C53.6494 46.9524 53.6034 46.7097 53.6272 46.4689C53.6511 46.228 53.7439 45.9991 53.8946 45.8097L68.5288 30.5258C68.7573 30.2784 69.0591 30.1107 69.3899 30.0475C69.7208 29.9843 70.0631 30.0288 70.3668 30.1746C70.5633 30.2792 70.7381 30.4203 70.8819 30.5902Z" fill="#BA1A1A"/>
<path opacity="0.3" d="M70.3668 30.1923L66.7317 46.3601L53.7834 47.1854C53.6729 46.9701 53.6268 46.7274 53.6507 46.4866C53.6746 46.2457 53.7674 46.0168 53.918 45.8274L68.5522 30.5435C68.779 30.3011 69.0767 30.1367 69.4026 30.0736C69.7285 30.0105 70.0659 30.0521 70.3668 30.1923Z" fill="black"/>
<path d="M70.3668 30.1922L64.2731 47.3492L53.7717 47.1853C53.6612 46.97 53.6151 46.7274 53.639 46.4865C53.6628 46.2456 53.7557 46.0167 53.9063 45.8273L68.5405 30.5434C68.7682 30.2985 69.0679 30.1325 69.3962 30.0694C69.7246 30.0062 70.0645 30.0492 70.3668 30.1922Z" fill="#BA1A1A"/>
<path opacity="0.2" d="M70.3668 30.1922L64.2731 47.3492L53.7717 47.1853C53.6612 46.97 53.6151 46.7274 53.639 46.4865C53.6628 46.2456 53.7557 46.0167 53.9063 45.8273L68.5405 30.5434C68.7682 30.2985 69.0679 30.1325 69.3962 30.0694C69.7246 30.0062 70.0645 30.0492 70.3668 30.1922Z" fill="white"/>
</svg>
