<svg width="120" height="121" viewBox="0 0 120 121" fill="none" xmlns="http://www.w3.org/2000/svg">
<path d="M112.779 69.8398C115.819 55.6462 113.074 40.855 104.016 28.6462C96.0001 17.8366 85.2001 7.96064 71.4985 5.63744C56.8801 3.17504 43.8409 8.80064 36.2401 21.4294C32.3065 27.9574 29.4625 35.083 26.6401 42.1366C24.4513 47.575 22.5361 53.7574 18.8905 58.4446C13.4881 65.3662 7.44011 72.4774 5.16491 81.1462C3.35291 88.0894 5.64491 94.483 11.4049 98.7022C20.8249 105.605 31.9921 106.101 43.2241 105.537C50.0813 105.159 56.8853 104.114 63.5401 102.417C69.5089 100.927 75.3385 98.5414 81.4897 97.9006C90.6769 96.9406 98.5297 97.4206 104.703 89.3422C108.96 83.7598 111.322 76.6438 112.779 69.8398Z" fill="#1F6587"/>
<path opacity="0.7" d="M112.779 69.8398C115.819 55.6462 113.074 40.855 104.016 28.6462C96.0001 17.8366 85.2001 7.96064 71.4985 5.63744C56.8801 3.17504 43.8409 8.80064 36.2401 21.4294C32.3065 27.9574 29.4625 35.083 26.6401 42.1366C24.4513 47.575 22.5361 53.7574 18.8905 58.4446C13.4881 65.3662 7.44011 72.4774 5.16491 81.1462C3.35291 88.0894 5.64491 94.483 11.4049 98.7022C20.8249 105.605 31.9921 106.101 43.2241 105.537C50.0813 105.159 56.8853 104.114 63.5401 102.417C69.5089 100.927 75.3385 98.5414 81.4897 97.9006C90.6769 96.9406 98.5297 97.4206 104.703 89.3422C108.96 83.7598 111.322 76.6438 112.779 69.8398Z" fill="white"/>
<path d="M92.4553 34.0967C97.6764 34.0967 101.909 29.8641 101.909 24.6431C101.909 19.422 97.6764 15.1895 92.4553 15.1895C87.2342 15.1895 83.0017 19.422 83.0017 24.6431C83.0017 29.8641 87.2342 34.0967 92.4553 34.0967Z" fill="white" stroke="#A8A8A8" stroke-linecap="round" stroke-linejoin="round"/>
<path d="M92.4552 33.2395C97.2031 33.2395 101.052 29.3906 101.052 24.6427C101.052 19.8948 97.2031 16.0459 92.4552 16.0459C87.7073 16.0459 83.8584 19.8948 83.8584 24.6427C83.8584 29.3906 87.7073 33.2395 92.4552 33.2395Z" fill="white" stroke="#A8A8A8" stroke-linecap="round" stroke-linejoin="round"/>
<path d="M89.5344 27.6234L92.4552 24.6426L99.6936 27.3066" stroke="#A8A8A8" stroke-linecap="round" stroke-linejoin="round"/>
<path d="M93.0264 24.6429C93.026 24.7558 92.9921 24.866 92.929 24.9596C92.8659 25.0532 92.7766 25.1261 92.6722 25.1689C92.5677 25.2118 92.453 25.2228 92.3423 25.2005C92.2317 25.1782 92.1301 25.1236 92.0505 25.0436C91.9708 24.9636 91.9167 24.8618 91.8948 24.7511C91.873 24.6404 91.8844 24.5256 91.9277 24.4214C91.971 24.3172 92.0443 24.2281 92.1381 24.1654C92.232 24.1028 92.3424 24.0693 92.4552 24.0693C92.5304 24.0693 92.6049 24.0842 92.6744 24.113C92.7438 24.1419 92.8069 24.1842 92.86 24.2375C92.9131 24.2908 92.9551 24.354 92.9836 24.4236C93.0122 24.4932 93.0267 24.5677 93.0264 24.6429Z" fill="#A8A8A8" stroke="#A8A8A8" stroke-linecap="round" stroke-linejoin="round"/>
<path d="M10.6271 22.6001C10.9727 22.7513 11.8151 22.7321 11.8271 22.7321C11.8391 22.7321 11.6447 22.1801 11.6279 22.1465C11.4431 21.7577 10.8575 21.1193 10.3823 21.1865C10.3028 21.1993 10.2268 21.2289 10.1596 21.2732C10.0923 21.3176 10.0352 21.3757 9.99208 21.4438C9.94896 21.5119 9.9208 21.5883 9.90947 21.6681C9.89813 21.7479 9.90387 21.8292 9.92631 21.9065C9.98734 22.0652 10.0814 22.2091 10.2022 22.3287C10.323 22.4482 10.4678 22.5408 10.6271 22.6001Z" fill="#A8A8A8" stroke="#A8A8A8" stroke-linecap="round" stroke-linejoin="round"/>
<path d="M21.6768 19.7205C21.1968 19.6677 20.6304 20.3229 20.4552 20.7141C20.4408 20.7477 20.2656 21.3069 20.2752 21.3045C20.184 21.4077 20.0904 21.5181 19.9872 21.6429C19.8 21.8829 19.5912 22.1229 19.3824 22.4325C19.1546 22.7531 18.9455 23.0864 18.756 23.4309C18.5427 23.8144 18.3636 24.216 18.2208 24.6309C18.2205 24.6365 18.2205 24.6422 18.2208 24.6477C18.2208 24.5061 18.2208 24.1125 18.2208 24.0813C18.1656 23.6565 17.8104 22.8669 17.3376 22.7781C17.2579 22.7655 17.1764 22.77 17.0985 22.7912C17.0206 22.8123 16.9481 22.8498 16.8857 22.901C16.8233 22.9523 16.7726 23.0162 16.7367 23.0885C16.7008 23.1608 16.6807 23.2399 16.6776 23.3205C16.6854 23.4932 16.7303 23.6622 16.8095 23.8159C16.8886 23.9695 17 24.1043 17.136 24.2109C17.4683 24.4239 17.8308 24.5857 18.2112 24.6909C18.078 25.1188 17.973 25.555 17.8968 25.9965C17.8512 26.2533 17.8128 26.5149 17.7768 26.7765C17.7768 26.6541 17.7768 26.5365 17.7768 26.5365C17.7216 26.1117 17.364 25.3221 16.8912 25.2333C16.8123 25.2211 16.7318 25.2257 16.6548 25.2466C16.5778 25.2676 16.5061 25.3045 16.4443 25.3549C16.3825 25.4054 16.332 25.4683 16.2962 25.5396C16.2603 25.6108 16.2398 25.6888 16.236 25.7685C16.2422 25.9413 16.2862 26.1106 16.365 26.2644C16.4438 26.4183 16.5554 26.553 16.692 26.6589C17.0134 26.8714 17.3655 27.0333 17.736 27.1389L17.7 27.4389C17.6424 27.9189 17.5848 28.3989 17.5176 28.8789C17.4936 29.0445 17.4624 29.2077 17.4336 29.3589C17.4336 29.2509 17.4336 29.1597 17.4336 29.1453C17.3784 28.7205 17.0208 27.9285 16.548 27.8421C16.4691 27.8299 16.3886 27.8345 16.3116 27.8554C16.2346 27.8763 16.1629 27.9133 16.1011 27.9637C16.0393 28.0142 15.9888 28.0771 15.953 28.1484C15.9171 28.2196 15.8966 28.2977 15.8928 28.3773C15.9003 28.5498 15.9449 28.7187 16.0236 28.8723C16.1023 29.026 16.2132 29.1609 16.3488 29.2677C16.6605 29.4791 17.0029 29.641 17.364 29.7477C17.328 29.9157 17.2944 30.0813 17.2536 30.2277C17.2224 30.3357 17.1984 30.4413 17.1624 30.5469C17.1264 30.6525 17.0952 30.7605 17.0616 30.8637C16.9896 31.0629 16.9152 31.2669 16.8408 31.4589C16.788 31.5933 16.7376 31.7205 16.6848 31.8477C16.7112 31.6821 16.7568 31.3677 16.7568 31.3317C16.7442 30.9615 16.6394 30.6001 16.452 30.2805C16.4556 30.239 16.4556 30.1973 16.452 30.1557C16.442 30.0768 16.4155 30.0008 16.3743 29.9328C16.333 29.8647 16.2778 29.8062 16.2124 29.7609C16.1469 29.7156 16.0727 29.6846 15.9944 29.6699C15.9162 29.6553 15.8358 29.6573 15.7584 29.6757C15.2928 29.7981 14.9976 30.6141 14.976 31.0413C14.976 31.0677 14.9928 31.3437 15.0048 31.5213C14.9808 31.4205 14.9592 31.3221 14.9352 31.2189C14.8848 31.0149 14.832 30.8109 14.7744 30.5901C14.7408 30.4869 14.7096 30.3813 14.6784 30.2733C14.6472 30.1653 14.6016 30.0573 14.5656 29.9493C14.4744 29.7093 14.3688 29.4477 14.256 29.1981C14.6311 29.1198 14.992 28.9846 15.3264 28.7973C15.4697 28.6988 15.5898 28.5702 15.6785 28.4206C15.7672 28.271 15.8223 28.104 15.84 27.9309C15.8419 27.8513 15.8271 27.772 15.7964 27.6984C15.7658 27.6249 15.72 27.5585 15.6621 27.5038C15.6042 27.449 15.5354 27.407 15.4602 27.3806C15.385 27.3541 15.305 27.3437 15.2256 27.3501C14.7456 27.4005 14.3328 28.1613 14.2464 28.5813C14.2464 28.6077 14.2128 28.9173 14.2008 29.0877C14.1312 28.9365 14.064 28.7877 13.9896 28.6389C13.776 28.2093 13.548 27.7797 13.32 27.3525L13.1136 26.9565C13.1784 26.9421 13.9392 26.7669 14.2248 26.5461C14.3683 26.4506 14.4893 26.3248 14.5793 26.1777C14.6692 26.0305 14.726 25.8655 14.7456 25.6941C14.7478 25.6145 14.7333 25.5352 14.703 25.4615C14.6726 25.3878 14.6271 25.3213 14.5694 25.2663C14.5117 25.2113 14.4431 25.1691 14.368 25.1423C14.2929 25.1155 14.2131 25.1049 14.1336 25.1109C13.6536 25.1637 13.2408 25.9245 13.1544 26.3445C13.1544 26.3757 13.1064 26.8245 13.1016 26.9325C12.9528 26.6445 12.804 26.3541 12.672 26.0613C12.486 25.6722 12.3257 25.2714 12.192 24.8613C12.2232 24.8613 13.0176 24.6741 13.3104 24.4485C13.4542 24.3527 13.5754 24.2266 13.6653 24.079C13.7553 23.9314 13.8119 23.7659 13.8312 23.5941C13.8331 23.5145 13.8183 23.4352 13.7876 23.3616C13.757 23.2881 13.7112 23.2217 13.6533 23.167C13.5954 23.1122 13.5266 23.0702 13.4514 23.0438C13.3762 23.0173 13.2962 23.0069 13.2168 23.0133C12.7368 23.0637 12.324 23.8245 12.2376 24.2445C12.2376 24.2781 12.1872 24.7557 12.1872 24.8445C12.1872 24.8205 12.168 24.7965 12.1608 24.7725C12.0437 24.3539 11.9634 23.9259 11.9208 23.4933C11.8944 23.2533 11.8824 23.0133 11.8752 22.7997C12.2635 22.7641 12.644 22.6686 13.0032 22.5165C13.1565 22.4374 13.2907 22.3257 13.3964 22.1894C13.5021 22.053 13.5768 21.8952 13.6152 21.7269C13.626 21.6477 13.62 21.5671 13.5977 21.4904C13.5754 21.4136 13.5372 21.3424 13.4856 21.2813C13.4341 21.2202 13.3702 21.1707 13.2983 21.1358C13.2263 21.1009 13.1479 21.0816 13.068 21.0789C12.588 21.0789 12.0936 21.7989 11.9616 22.1973C11.9616 22.2213 11.904 22.4541 11.8728 22.6245C11.8728 22.5237 11.8728 22.4205 11.8728 22.3221C11.8728 21.9597 11.8968 21.6261 11.9184 21.3309C11.9328 21.1653 11.9496 21.0141 11.9664 20.8725C12.2923 20.6618 12.5845 20.4029 12.8328 20.1045C12.9314 19.9629 12.9983 19.8017 13.029 19.6319C13.0596 19.4621 13.0533 19.2877 13.0104 19.1205C12.9844 19.0461 12.9432 18.9779 12.8894 18.9202C12.8357 18.8625 12.7705 18.8166 12.698 18.7855C12.6256 18.7544 12.5475 18.7386 12.4686 18.7393C12.3898 18.7399 12.3119 18.757 12.24 18.7893C11.8128 19.0101 11.7 19.8693 11.76 20.2917C11.76 20.3277 11.9256 20.8893 11.9328 20.8845C11.9136 21.0189 11.8944 21.1653 11.8776 21.3237C11.8488 21.6189 11.82 21.9525 11.8104 22.3173C11.7966 22.7104 11.8062 23.1039 11.8392 23.4957C11.8718 23.9344 11.9449 24.369 12.0576 24.7941C12.0562 24.7997 12.0562 24.8054 12.0576 24.8109C11.9808 24.6909 11.7576 24.3669 11.7384 24.3309C11.4576 24.0069 10.7256 23.5461 10.2816 23.7333C10.2102 23.7677 10.1469 23.8166 10.0955 23.8769C10.0441 23.9372 10.0059 24.0076 9.98335 24.0835C9.96076 24.1594 9.95427 24.2392 9.96429 24.3178C9.97432 24.3963 10.0006 24.4719 10.0416 24.5397C10.1443 24.6777 10.2755 24.7919 10.4262 24.8747C10.5769 24.9576 10.7437 25.007 10.9152 25.0197C11.312 25.0185 11.7062 24.9562 12.084 24.8349C12.2089 25.2658 12.3612 25.6883 12.54 26.0997C12.6432 26.3397 12.756 26.5797 12.8712 26.8197L12.7296 26.6181C12.4488 26.2917 11.7168 25.8309 11.2752 26.0181C11.2035 26.0525 11.1398 26.1015 11.0882 26.162C11.0366 26.2225 10.9983 26.2931 10.9757 26.3693C10.9531 26.4455 10.9467 26.5256 10.9569 26.6044C10.9672 26.6832 10.9938 26.7591 11.0352 26.8269C11.1369 26.9654 11.2675 27.0801 11.4179 27.1629C11.5683 27.2458 11.735 27.295 11.9064 27.3069C12.2922 27.3083 12.6759 27.25 13.044 27.1341L13.1784 27.4053C13.3968 27.8397 13.6152 28.2717 13.8168 28.7013C13.8888 28.8525 13.9536 29.0061 14.0184 29.1573C13.9584 29.0685 13.9056 28.9941 13.896 28.9821C13.6152 28.6581 12.8832 28.1973 12.4392 28.3845C12.3678 28.4189 12.3045 28.4678 12.2531 28.5281C12.2017 28.5884 12.1635 28.6588 12.1409 28.7347C12.1184 28.8106 12.1119 28.8904 12.1219 28.969C12.1319 29.0475 12.1582 29.1231 12.1992 29.1909C12.3019 29.3289 12.4331 29.4431 12.5838 29.5259C12.7345 29.6088 12.9013 29.6582 13.0728 29.6709C13.4478 29.6717 13.8208 29.6159 14.1792 29.5053C14.2416 29.6613 14.304 29.8197 14.3568 29.9853C14.3904 30.0909 14.4312 30.1917 14.4576 30.3021C14.484 30.4125 14.5176 30.5157 14.5464 30.6213C14.5968 30.8253 14.6496 31.0389 14.6928 31.2405C14.724 31.3797 14.7504 31.5141 14.7768 31.6485C14.7072 31.4973 14.5656 31.2021 14.5512 31.1685C14.3232 30.8061 13.668 30.2373 13.2024 30.3573C13.1255 30.3791 13.0541 30.4169 12.9928 30.4681C12.9315 30.5194 12.8817 30.5829 12.8466 30.6547C12.8115 30.7265 12.7919 30.8049 12.7891 30.8847C12.7863 30.9646 12.8004 31.0441 12.8304 31.1181C12.9095 31.2715 13.0208 31.406 13.1567 31.5125C13.2925 31.6189 13.4497 31.6948 13.6176 31.7349C14.0081 31.7945 14.4054 31.7945 14.796 31.7349C14.8416 31.9581 14.8824 32.1765 14.9184 32.3829C15.0432 33.1029 15.1224 33.6957 15.1704 34.1133H12.96V41.1285H18V34.1469H15.9984C16.176 33.7725 16.404 33.2709 16.6488 32.6709C16.7376 32.4573 16.8264 32.2269 16.9176 31.9893C17.3018 32.0799 17.6976 32.1106 18.0912 32.0805C18.2619 32.054 18.4246 31.9904 18.5681 31.8942C18.7115 31.798 18.8322 31.6715 18.9216 31.5237C18.9571 31.4523 18.9772 31.3741 18.9804 31.2943C18.9836 31.2146 18.9699 31.135 18.9402 31.0609C18.9105 30.9868 18.8655 30.9198 18.8081 30.8643C18.7507 30.8088 18.6823 30.7661 18.6072 30.7389C18.1536 30.5853 17.4576 31.1037 17.2032 31.4589C17.1888 31.4781 17.0496 31.7181 16.9632 31.8693C16.9992 31.7733 17.0352 31.6797 17.0712 31.5789C17.1432 31.3797 17.2104 31.1805 17.2824 30.9645C17.3136 30.8613 17.3448 30.7557 17.3784 30.6477C17.412 30.5397 17.4336 30.4269 17.4624 30.3141C17.5248 30.0549 17.5752 29.7885 17.6208 29.5173C17.9761 29.6613 18.3519 29.7479 18.7344 29.7741C18.9073 29.7729 19.0779 29.7343 19.2344 29.6609C19.391 29.5876 19.5299 29.4813 19.6416 29.3493C19.6871 29.284 19.7184 29.2097 19.7335 29.1314C19.7485 29.0532 19.7469 28.9726 19.7288 28.895C19.7107 28.8174 19.6765 28.7445 19.6284 28.6809C19.5803 28.6174 19.5194 28.5646 19.4496 28.5261C19.0224 28.3053 18.2496 28.7109 17.952 29.0061C17.9328 29.0229 17.7408 29.2653 17.6352 29.3997C17.6616 29.2389 17.688 29.0757 17.7072 28.9197C17.7672 28.4397 17.8128 27.9597 17.8584 27.4797C17.8728 27.3309 17.8896 27.1845 17.9064 27.0381C17.9664 27.0597 18.6984 27.3333 19.0584 27.3069C19.2308 27.3066 19.4012 27.2686 19.5574 27.1956C19.7137 27.1227 19.8522 27.0165 19.9632 26.8845C20.0093 26.8192 20.041 26.7449 20.0565 26.6665C20.0719 26.5881 20.0706 26.5073 20.0527 26.4294C20.0348 26.3515 20.0007 26.2783 19.9526 26.2144C19.9045 26.1506 19.8435 26.0976 19.7736 26.0589C19.3464 25.8381 18.5736 26.2437 18.276 26.5389C18.252 26.5605 17.9736 26.9085 17.9088 26.9997C17.9424 26.6757 17.9808 26.3541 18.0288 26.0397C18.0932 25.6075 18.187 25.1801 18.3096 24.7605C18.3384 24.7605 19.0992 25.0581 19.4688 25.0317C19.6412 25.0314 19.8116 24.9934 19.9678 24.9204C20.1241 24.8475 20.2626 24.7413 20.3736 24.6093C20.4196 24.5439 20.4512 24.4695 20.4665 24.3909C20.4817 24.3124 20.4802 24.2316 20.4621 24.1536C20.444 24.0757 20.4096 24.0025 20.3613 23.9388C20.313 23.875 20.2517 23.8222 20.1816 23.7837C19.7544 23.5629 18.9816 23.9709 18.6864 24.2637C18.6624 24.2877 18.3624 24.6621 18.312 24.7437C18.312 24.7197 18.312 24.6933 18.3312 24.6693C18.4628 24.255 18.6315 23.8534 18.8352 23.4693C18.9432 23.2533 19.0608 23.0565 19.1784 22.8645C19.5216 23.0497 19.8917 23.1801 20.2752 23.2509C20.449 23.2715 20.6253 23.2534 20.7912 23.1978C20.9572 23.1422 21.1088 23.0505 21.2352 22.9293C21.2881 22.8695 21.3278 22.7991 21.3515 22.7228C21.3753 22.6465 21.3827 22.5661 21.3732 22.4867C21.3637 22.4074 21.3375 22.331 21.2963 22.2625C21.2552 22.194 21.2 22.135 21.1344 22.0893C20.736 21.8229 19.9344 22.1421 19.5936 22.4109C19.5768 22.4253 19.4064 22.5933 19.284 22.7181C19.3392 22.6317 19.3944 22.5429 19.4472 22.4637C19.6488 22.1613 19.8504 21.8949 20.0328 21.6621C20.1384 21.5301 20.2344 21.4221 20.3256 21.3045C20.7141 21.309 21.101 21.254 21.4728 21.1413C21.6335 21.0789 21.7786 20.9822 21.898 20.8578C22.0174 20.7334 22.1082 20.5845 22.164 20.4213C22.1837 20.3429 22.1863 20.2612 22.1718 20.1816C22.1572 20.1021 22.1258 20.0266 22.0797 19.9602C22.0335 19.8938 21.9737 19.8381 21.9042 19.7967C21.8347 19.7554 21.7572 19.7294 21.6768 19.7205ZM16.3968 32.5557C16.1064 33.2205 15.8424 33.7557 15.6504 34.1397H15.4872V34.0965C15.4296 33.6741 15.3384 33.0717 15.1968 32.3541C15.1512 32.1261 15.0984 31.8861 15.0432 31.6341C15.2679 31.543 15.4874 31.4396 15.7008 31.3245C15.9903 31.5741 16.3135 31.7817 16.6608 31.9413C16.56 32.1645 16.4712 32.3685 16.3872 32.5605L16.3968 32.5557Z" fill="#A8A8A8" stroke="#A8A8A8" stroke-linecap="round" stroke-linejoin="round"/>
<path d="M19.1591 22.7808C19.1591 22.7808 19.3127 22.2216 19.3175 22.1832C19.3775 21.7584 19.2407 20.904 18.8087 20.6952C18.7359 20.6623 18.657 20.645 18.5771 20.6445C18.4972 20.6441 18.4181 20.6605 18.345 20.6926C18.2719 20.7248 18.2063 20.772 18.1526 20.8311C18.099 20.8903 18.0584 20.9601 18.0335 21.036C17.9954 21.2045 17.9941 21.3792 18.0297 21.5482C18.0653 21.7172 18.137 21.8765 18.2399 22.0152C18.4439 22.332 19.1591 22.7808 19.1591 22.7808Z" fill="#A8A8A8" stroke="#A8A8A8" stroke-linecap="round" stroke-linejoin="round"/>
<path d="M38.3975 41.2529H11.3687V113.805H38.3975V41.2529Z" fill="white" stroke="#A8A8A8" stroke-linecap="round" stroke-linejoin="round"/>
<path d="M36.7487 43.2715H12.7751V57.7939H36.7487V43.2715Z" fill="white" stroke="#A8A8A8" stroke-linecap="round" stroke-linejoin="round"/>
<path d="M26.5319 45.6836H22.1543V47.3924H26.5319V45.6836Z" fill="#A8A8A8" stroke="#A8A8A8" stroke-linecap="round" stroke-linejoin="round"/>
<path d="M36.7487 60.6455H12.7751V75.1679H36.7487V60.6455Z" fill="white" stroke="#A8A8A8" stroke-linecap="round" stroke-linejoin="round"/>
<path d="M26.5319 63.0576H22.1543V64.7664H26.5319V63.0576Z" fill="#A8A8A8" stroke="#A8A8A8" stroke-linecap="round" stroke-linejoin="round"/>
<path d="M36.7487 78.0166H12.7751V92.539H36.7487V78.0166Z" fill="white" stroke="#A8A8A8" stroke-linecap="round" stroke-linejoin="round"/>
<path d="M26.5319 80.4307H22.1543V82.1395H26.5319V80.4307Z" fill="#A8A8A8" stroke="#A8A8A8" stroke-linecap="round" stroke-linejoin="round"/>
<path d="M36.7487 95.3906H12.7751V109.913H36.7487V95.3906Z" fill="white" stroke="#A8A8A8" stroke-linecap="round" stroke-linejoin="round"/>
<path d="M26.5319 97.8047H22.1543V99.5135H26.5319V97.8047Z" fill="#A8A8A8" stroke="#A8A8A8" stroke-linecap="round" stroke-linejoin="round"/>
<path d="M36.187 27.876H22.7014V38.8992H36.187V27.876Z" fill="white" stroke="#A8A8A8" stroke-linecap="round" stroke-linejoin="round"/>
<path d="M36.7055 41.2293V34.6149L29.9639 27.3525H22.1831V41.2293H36.7055Z" fill="#A8A8A8" stroke="#A8A8A8" stroke-linecap="round" stroke-linejoin="round"/>
<path d="M91.9225 51.8115H84.9265V70.5747H91.9225V51.8115Z" fill="white" stroke="#A8A8A8" stroke-linecap="round" stroke-linejoin="round"/>
<path d="M101.143 49.4258H75.7034V67.553H101.143V49.4258Z" fill="#A8A8A8" stroke="#A8A8A8" stroke-linecap="round" stroke-linejoin="round"/>
<path d="M100.032 50.5391H76.8169V66.4391H100.032V50.5391Z" fill="white" stroke="#A8A8A8" stroke-linecap="round" stroke-linejoin="round"/>
<path d="M96.3312 58.4329V58.1641H96.7944V58.4329C97.1976 58.5145 97.404 58.8241 97.404 59.3137V59.4265H96.8664V59.2777C96.8664 59.0185 96.7632 58.9225 96.5832 58.9225C96.4032 58.9225 96.3 59.0185 96.3 59.2777C96.3 60.0193 97.4088 60.0553 97.4088 61.0849C97.4088 61.5649 97.1976 61.8889 96.7944 61.9705V62.2345H96.3312V61.9609C95.9232 61.8793 95.7168 61.5649 95.7168 61.0753V60.8353H96.2544V61.1185C96.2544 61.3777 96.3672 61.4689 96.5472 61.4689C96.7272 61.4689 96.8424 61.3777 96.8424 61.1185C96.8424 60.3769 95.7336 60.3409 95.7336 59.3113C95.7336 58.8409 95.9352 58.5193 96.3312 58.4329Z" fill="white"/>
<path d="M80.4194 60.9413L83.5922 57.5309L86.1314 59.0381L88.5122 56.1821L92.0018 57.6101L96.6818 53.8037" stroke="#A8A8A8" stroke-width="3" stroke-linecap="round" stroke-linejoin="round"/>
<path d="M97.9802 52.75L94.937 53.23L96.8738 55.6252L97.9802 52.75Z" fill="#A8A8A8"/>
<path d="M93.989 70.4141H83.0186V71.3693H93.989V70.4141Z" fill="white" stroke="#A8A8A8" stroke-linecap="round" stroke-linejoin="round"/>
<path d="M77.6113 70.4141H56.6233V71.3693H77.6113V70.4141Z" fill="white" stroke="#A8A8A8" stroke-linecap="round" stroke-linejoin="round"/>
<path d="M111.161 74.6094H109.253V113.883H111.161V74.6094Z" fill="white" stroke="#A8A8A8" stroke-linecap="round" stroke-linejoin="round"/>
<path d="M110.196 74.6094H55.9873V80.6526H110.196V74.6094Z" fill="white" stroke="#A8A8A8" stroke-linecap="round" stroke-linejoin="round"/>
<path d="M57.2593 74.6094H55.3513V113.883H57.2593V74.6094Z" fill="white" stroke="#A8A8A8" stroke-linecap="round" stroke-linejoin="round"/>
<path d="M111.161 74.6094H90.6504V108.001H111.161V74.6094Z" fill="white" stroke="#A8A8A8" stroke-linecap="round" stroke-linejoin="round"/>
<path d="M112.435 72.5566H53.9473V75.2446H112.435V72.5566Z" fill="#A8A8A8" stroke="#A8A8A8" stroke-linecap="round" stroke-linejoin="round"/>
<path d="M114.183 71.4482H52.1953V73.169H114.183V71.4482Z" fill="white" stroke="#A8A8A8" stroke-linecap="round" stroke-linejoin="round"/>
<path d="M110.047 76.834H91.7617V84.9436H110.047V76.834Z" fill="white" stroke="#A8A8A8" stroke-linecap="round" stroke-linejoin="round"/>
<path d="M102.257 80.333H98.9185V81.2882H102.257V80.333Z" fill="#A8A8A8" stroke="#A8A8A8" stroke-linecap="round" stroke-linejoin="round"/>
<path d="M110.047 87.6455H91.7617V95.7551H110.047V87.6455Z" fill="white" stroke="#A8A8A8" stroke-linecap="round" stroke-linejoin="round"/>
<path d="M102.257 91.1445H98.9185V92.0997H102.257V91.1445Z" fill="#A8A8A8" stroke="#A8A8A8" stroke-linecap="round" stroke-linejoin="round"/>
<path d="M110.047 98.458H91.7617V106.568H110.047V98.458Z" fill="white" stroke="#A8A8A8" stroke-linecap="round" stroke-linejoin="round"/>
<path d="M102.257 101.957H98.9185V102.912H102.257V101.957Z" fill="#A8A8A8" stroke="#A8A8A8" stroke-linecap="round" stroke-linejoin="round"/>
<path d="M76.8337 88.3037H74.1985V98.3573H76.8337V88.3037Z" fill="#A8A8A8" stroke="#A8A8A8" stroke-linecap="round" stroke-linejoin="round"/>
<path d="M77.5008 96.7773H73.5288V109.49H77.5008V96.7773Z" fill="#A8A8A8" stroke="#A8A8A8" stroke-linecap="round" stroke-linejoin="round"/>
<path d="M77.4193 109.157L75.5785 108.66V108.571L75.4105 108.614L75.2449 108.571V108.66L73.4041 109.157L60.8569 111.497V112.418H75.2449H75.5785H89.9641V111.497L77.4193 109.157Z" fill="#A8A8A8" stroke="#A8A8A8" stroke-linecap="round" stroke-linejoin="round"/>
<path d="M62.8225 113.004C62.8215 113.178 62.7692 113.347 62.6721 113.491C62.575 113.635 62.4375 113.747 62.2769 113.812C62.1163 113.878 61.9398 113.895 61.7698 113.86C61.5997 113.826 61.4436 113.742 61.3213 113.619C61.1989 113.496 61.1157 113.339 61.0822 113.169C61.0487 112.999 61.0664 112.822 61.133 112.662C61.1996 112.502 61.3122 112.365 61.4565 112.269C61.6009 112.172 61.7705 112.121 61.9441 112.121C62.0598 112.121 62.1744 112.144 62.2813 112.188C62.3882 112.233 62.4853 112.298 62.5669 112.38C62.6485 112.462 62.7131 112.56 62.757 112.667C62.8008 112.774 62.8231 112.889 62.8225 113.004Z" fill="#A8A8A8" stroke="#A8A8A8" stroke-linecap="round" stroke-linejoin="round"/>
<path d="M76.289 113.004C76.289 113.178 76.2375 113.348 76.141 113.492C76.0445 113.637 75.9073 113.749 75.7468 113.816C75.5863 113.882 75.4097 113.9 75.2393 113.866C75.0689 113.832 74.9123 113.748 74.7895 113.626C74.6667 113.503 74.583 113.346 74.5491 113.176C74.5152 113.005 74.5326 112.829 74.5991 112.668C74.6656 112.508 74.7782 112.371 74.9226 112.274C75.0671 112.177 75.2369 112.126 75.4106 112.126C75.6436 112.126 75.867 112.219 76.0317 112.383C76.1965 112.548 76.289 112.771 76.289 113.004Z" fill="#A8A8A8" stroke="#A8A8A8" stroke-linecap="round" stroke-linejoin="round"/>
<path d="M89.8393 113.004C89.8393 113.178 89.7878 113.348 89.6913 113.492C89.5948 113.637 89.4576 113.749 89.2971 113.816C89.1366 113.882 88.9599 113.9 88.7896 113.866C88.6192 113.832 88.4626 113.748 88.3398 113.626C88.217 113.503 88.1333 113.346 88.0994 113.176C88.0655 113.005 88.0829 112.829 88.1494 112.668C88.2159 112.508 88.3285 112.371 88.4729 112.274C88.6174 112.177 88.7872 112.126 88.9609 112.126C89.1939 112.126 89.4173 112.219 89.582 112.383C89.7468 112.548 89.8393 112.771 89.8393 113.004Z" fill="#A8A8A8" stroke="#A8A8A8" stroke-linecap="round" stroke-linejoin="round"/>
<path d="M62.8056 78.667H65.412V89.9614H64.4832C64.0377 89.9614 63.6103 89.7844 63.2953 89.4693C62.9802 89.1543 62.8032 88.727 62.8032 88.2814V78.667H62.8056Z" fill="white" stroke="#A8A8A8" stroke-linecap="round" stroke-linejoin="round"/>
<path d="M65.4122 76.3086H61.3154V78.4182H65.4122V76.3086Z" fill="white" stroke="#A8A8A8" stroke-linecap="round" stroke-linejoin="round"/>
<path d="M85.7114 89.9614C86.0539 89.9617 86.3931 89.8945 86.7096 89.7637C87.0261 89.6328 87.3137 89.4409 87.556 89.1988C87.7983 88.9568 87.9905 88.6694 88.1216 88.353C88.2527 88.0366 88.3202 87.6975 88.3202 87.355V78.667H85.7114V89.9614Z" fill="white" stroke="#A8A8A8" stroke-linecap="round" stroke-linejoin="round"/>
<path d="M85.7113 78.418H89.8081V76.3084H85.7113V78.418Z" fill="white" stroke="#A8A8A8" stroke-linecap="round" stroke-linejoin="round"/>
<path d="M83.5897 91.4812H67.4401C66.5337 91.4812 65.6644 91.1212 65.0234 90.4802C64.3825 89.8393 64.0225 88.97 64.0225 88.0636L65.9425 63.922C65.9421 63.5478 66.0156 63.1773 66.1587 62.8315C66.3017 62.4857 66.5115 62.1715 66.7761 61.9069C67.0407 61.6423 67.3549 61.4325 67.7007 61.2895C68.0465 61.1464 68.4171 61.0729 68.7913 61.0732H82.2457C82.6199 61.0729 82.9904 61.1464 83.3362 61.2895C83.682 61.4325 83.9962 61.6423 84.2608 61.9069C84.5254 62.1715 84.7352 62.4857 84.8782 62.8315C85.0213 63.1773 85.0948 63.5478 85.0945 63.922L87.0145 88.0636C87.0141 88.513 86.9253 88.9578 86.753 89.3728C86.5807 89.7878 86.3283 90.1647 86.0102 90.4821C85.6922 90.7995 85.3147 91.0511 84.8994 91.2225C84.484 91.394 84.039 91.4819 83.5897 91.4812Z" fill="white" stroke="#A8A8A8" stroke-linecap="round" stroke-linejoin="round"/>
<path d="M83.5897 92.7527H67.4401C66.9912 92.753 66.5466 92.6649 66.1318 92.4932C65.717 92.3216 65.3402 92.0699 65.0227 91.7524C64.7053 91.435 64.4536 91.0581 64.282 90.6434C64.1103 90.2286 64.0221 89.784 64.0225 89.3351L65.9425 65.1935C65.9425 64.438 66.2426 63.7134 66.7769 63.1791C67.3111 62.6449 68.0357 62.3447 68.7913 62.3447H82.2457C83.0012 62.3447 83.7258 62.6449 84.2601 63.1791C84.7943 63.7134 85.0945 64.438 85.0945 65.1935L87.0145 89.3351C87.0145 89.7845 86.9258 90.2295 86.7536 90.6446C86.5814 91.0598 86.329 91.4368 86.0109 91.7543C85.6928 92.0717 85.3152 92.3233 84.8997 92.4946C84.4843 92.666 84.0391 92.7537 83.5897 92.7527Z" fill="white" stroke="#A8A8A8" stroke-linecap="round" stroke-linejoin="round"/>
<path d="M45.0769 65.9157L43.7617 69.5637C43.7617 69.5637 36.5113 80.1573 34.4833 83.3997C32.4553 86.6421 32.6953 86.2389 32.8033 87.3549C32.9113 88.4709 37.6201 103.941 37.7209 105.564C37.7851 106.443 37.7851 107.325 37.7209 108.204L39.6409 107.899C39.363 108.622 38.9884 109.304 38.5273 109.927C37.8073 110.839 37.7161 111.242 36.4993 112.154C35.2825 113.066 34.3729 113.066 35.0809 113.472C35.7889 113.877 38.8297 113.877 39.7417 113.27C40.6537 112.663 41.2633 111.547 41.7697 111.041L42.5809 110.229L42.8833 111.141C42.8833 111.141 43.8985 110.028 44.3017 109.824C44.7049 109.62 45.0217 109.013 45.0217 109.013C45.0217 109.013 44.7169 108.204 44.4145 107.594C44.1121 106.985 42.8929 106.075 42.8929 106.075C42.8929 106.075 42.0169 97.6749 41.2129 93.7197C40.4089 89.7645 40.9225 89.6901 40.7185 89.0805C40.5752 88.6656 40.406 88.26 40.2121 87.8661L48.7201 76.8765C48.7941 76.7993 48.8866 76.7423 48.9889 76.7109C49.0847 76.6824 49.1861 76.6775 49.2842 76.6967C49.3824 76.7159 49.4744 76.7585 49.5525 76.821C49.6306 76.8835 49.6924 76.964 49.7326 77.0556C49.7727 77.1472 49.7901 77.2472 49.7833 77.3469C49.5673 80.5437 49.2121 89.8557 49.6441 91.1493C50.1505 92.6685 53.8201 98.3013 54.1009 98.8509C54.8209 100.26 58.2217 104.659 58.8313 105.977C59.4409 107.294 60.0457 108.713 60.0457 108.713L61.8697 107.599C61.8697 107.599 62.3785 108.307 61.8697 108.917C61.3609 109.526 59.8441 111.854 58.7305 112.565C57.6169 113.275 58.0105 113.882 58.0105 113.882C58.0105 113.882 62.0641 113.779 62.7721 113.678C63.4801 113.577 63.9889 112.766 64.4953 112.058C64.9412 111.372 65.3475 110.662 65.7121 109.929L66.5233 110.649C66.5233 110.649 67.0297 109.634 67.3345 108.823C67.5206 108.302 67.6227 107.756 67.6369 107.203C67.6369 107.203 66.4225 106.087 65.6113 105.785C64.8001 105.482 64.0897 105.175 64.0897 105.175L63.0769 103.656C63.0769 103.656 60.3409 94.1301 59.1241 91.7997C58.4711 90.492 57.6167 89.295 56.5921 88.2525C56.5921 88.2525 59.8681 76.2525 60.4753 73.6269C60.8402 72.0565 61.1111 70.4657 61.2865 68.8629C58.7518 67.0595 55.8441 65.8488 52.7785 65.3205C47.6113 64.3965 45.0769 65.9157 45.0769 65.9157Z" fill="#263238" stroke="#263238" stroke-linecap="round" stroke-linejoin="round"/>
<path d="M50.3666 67.1924V68.3396C50.3666 68.3396 48.581 70.1252 48.773 70.7012C48.965 71.2772 49.4114 73.8212 49.4114 73.8212" stroke="#7A7A7A" stroke-linecap="round" stroke-linejoin="round"/>
<path d="M51.6433 67.2549L51.7705 68.5317C51.7705 68.5317 50.1121 70.6365 50.0473 70.9557C50.0254 71.2971 50.0472 71.6398 50.1121 71.9757" stroke="#7A7A7A" stroke-linecap="round" stroke-linejoin="round"/>
<path d="M53.429 68.2119C54.9557 68.6301 56.4342 69.2077 57.8402 69.9351" stroke="#7A7A7A" stroke-linecap="round" stroke-linejoin="round"/>
<path d="M57.9048 70.8067C56.8183 70.3679 55.7077 69.9913 54.5784 69.6787" stroke="#7A7A7A" stroke-linecap="round" stroke-linejoin="round"/>
<path d="M59.4265 71.4023L58.7065 71.1191" stroke="#7A7A7A" stroke-linecap="round" stroke-linejoin="round"/>
<path d="M53.3113 74.1839C54.5377 73.7519 56.1481 73.3127 57.5137 73.3799" stroke="#7A7A7A" stroke-linecap="round" stroke-linejoin="round"/>
<path d="M51.3889 74.9757C51.3889 74.9757 51.7561 74.7957 52.3489 74.5557" stroke="#7A7A7A" stroke-linecap="round" stroke-linejoin="round"/>
<path d="M46.8218 71.0586L47.2418 71.4666" stroke="#7A7A7A" stroke-linecap="round" stroke-linejoin="round"/>
<path d="M44.8176 69.1055L46.2072 70.4615" stroke="#7A7A7A" stroke-linecap="round" stroke-linejoin="round"/>
<path d="M45.072 67.8311L47.3688 68.0855" stroke="#7A7A7A" stroke-linecap="round" stroke-linejoin="round"/>
<path d="M58.2289 43.3047C58.2289 43.3047 54.2065 43.7847 53.0473 44.0559C51.8881 44.3271 51.0697 44.3271 50.7961 44.6679C50.5225 45.0087 48.0697 47.1903 46.9105 47.7999C45.7513 48.4095 42.2737 49.3695 42.2041 49.5735C42.1345 49.7775 42.6841 53.1879 42.5449 54.2775C42.4057 55.3671 42.2737 56.0511 42.2737 56.0511L48.7537 53.5287C48.7537 53.5287 47.1169 59.8023 46.5025 61.3695C45.8881 62.9367 45.7537 63.9615 45.2761 64.3023C44.7985 64.6431 44.3881 64.5759 44.3881 65.1879C44.3881 65.7999 44.7985 66.6279 45.0025 66.6879C45.2065 66.7479 49.4353 66.2079 51.0721 66.4839C52.7089 66.7599 58.9129 69.4167 60.2089 70.3023C61.5049 71.1879 61.5721 70.7823 62.0497 69.8223C62.5273 68.8623 62.5297 66.8919 62.5297 66.6855C62.5297 66.4791 67.6393 55.2399 67.6393 55.2399C67.6393 55.2399 68.3881 60.8991 69.1393 61.3095C69.8905 61.7199 71.6617 61.6503 72.4801 60.0135C73.2985 58.3767 75.0025 55.9335 74.1865 54.0135C73.3705 52.0935 72.2665 49.7175 71.6617 48.3519C71.0569 46.9863 70.5025 46.8519 68.9353 46.2399C67.3681 45.6279 63.2065 43.6479 62.7985 43.5807C62.3905 43.5135 58.2289 43.3047 58.2289 43.3047Z" fill="white" stroke="#263238" stroke-linecap="round" stroke-linejoin="round"/>
<path d="M55.4089 62.0059C56.8009 63.8707 58.9513 66.9163 59.4769 68.6107" stroke="#263238" stroke-linecap="round" stroke-linejoin="round"/>
<path d="M54.1848 60.4102C54.1848 60.4102 54.3744 60.6502 54.684 61.051" stroke="#263238" stroke-linecap="round" stroke-linejoin="round"/>
<path d="M60.8928 68.167C60.9528 68.287 61.008 68.407 61.0632 68.5222" stroke="#263238" stroke-linecap="round" stroke-linejoin="round"/>
<path d="M59.6521 65.9658C59.6521 65.9658 60.0745 66.6402 60.5113 67.437" stroke="#263238" stroke-linecap="round" stroke-linejoin="round"/>
<path d="M47.8369 66.0551C47.8369 66.0551 52.2457 65.7887 53.2153 65.9663" stroke="#263238" stroke-linecap="round" stroke-linejoin="round"/>
<path d="M52.332 66.4053C52.332 66.4053 54.972 66.6717 56.0376 67.1109" stroke="#263238" stroke-linecap="round" stroke-linejoin="round"/>
<path d="M67.6392 55.2383L66.9168 52.8623L66.7848 54.9551L63.9072 54.8231L66.9168 56.5895L67.6392 55.2383Z" fill="#263238" stroke="#263238" stroke-linecap="round" stroke-linejoin="round"/>
<path d="M48.7512 53.7384L50.796 46.4424" stroke="#263238" stroke-linecap="round" stroke-linejoin="round"/>
<path d="M49.7736 49.9198L48.9984 47.959L48.8664 52.471L47.8872 52.6006L48.7512 53.5342L49.7736 49.9198Z" fill="#263238" stroke="#263238" stroke-linecap="round" stroke-linejoin="round"/>
<path d="M42.8857 49.0339C42.8857 49.0339 44.5225 50.6011 44.8057 51.8275C45.0889 53.0539 44.1241 54.9643 43.6465 55.7155C43.1689 56.4667 42.6241 56.6755 41.2585 56.8075C39.8929 56.9395 38.3953 55.7827 38.3281 54.6235C38.2609 53.4643 39.9553 48.7603 42.8857 49.0339Z" fill="white" stroke="#263238" stroke-linecap="round" stroke-linejoin="round"/>
<path d="M55.025 51.2822C55.025 51.2822 51.5474 55.511 48.8186 57.0782C46.0898 58.6454 44.3858 59.7374 44.3858 59.7374L43.4258 64.2974C43.4258 64.2974 47.2442 63.7526 48.4034 63.3374C49.5626 62.9222 49.8434 62.723 49.8434 62.723C49.8434 62.723 52.2434 57.683 53.8682 54.8822C55.493 52.0814 55.709 51.6782 55.709 51.6782L55.025 51.2822Z" fill="#263238" stroke="#263238" stroke-linecap="round" stroke-linejoin="round"/>
<path d="M55.5025 46.3047C55.5025 46.5087 55.0225 51.2823 55.0225 51.2823L55.7041 51.6927L60.2041 48.3495C60.2041 48.3495 60.4081 47.5335 60.1369 47.5335C59.8657 47.5335 57.6817 49.1007 57.6817 49.1007L55.7617 48.3495L55.9657 46.3743L55.5025 46.3047Z" fill="#263238" stroke="#263238" stroke-linecap="round" stroke-linejoin="round"/>
<path d="M57.8856 48.9566L57.684 49.1006L57.4272 48.9998L55.2288 49.2086C55.176 49.7534 55.1256 50.267 55.0872 50.6486L57.4104 50.4278L59.6112 48.791L57.8856 48.9566Z" fill="#1F6587" stroke="#263238" stroke-linecap="round" stroke-linejoin="round"/>
<path d="M53.5968 55.3623L50.8032 55.6287C50.1856 56.1666 49.5214 56.6485 48.8184 57.0687L48.48 57.2655L52.776 56.8551C53.0568 56.3367 53.3328 55.8279 53.5968 55.3623Z" fill="#1F6587" stroke="#263238" stroke-linecap="round" stroke-linejoin="round"/>
<path d="M44.0593 61.3053L50.8489 60.6597C51.0745 60.2013 51.3289 59.6997 51.5929 59.1621L44.3641 59.8509L44.0593 61.3053Z" fill="#1F6587" stroke="#263238" stroke-linecap="round" stroke-linejoin="round"/>
<path d="M54.2185 52.2167C53.8321 52.6535 53.3305 53.2007 52.7617 53.7815L54.6193 53.6039C55.0585 52.8455 55.3249 52.3775 55.4833 52.0967L54.2185 52.2167Z" fill="#1F6587" stroke="#263238" stroke-linecap="round" stroke-linejoin="round"/>
<path d="M58.7065 42.0784C58.7065 42.0784 56.6617 43.1008 56.3881 43.5784C56.1145 44.056 55.6369 45.6904 54.6145 46.9864C53.5921 48.2824 52.4329 49.168 53.4553 48.76C54.4777 48.352 55.9201 46.84 55.9201 46.84L56.5345 48.76C56.5345 48.76 56.8753 48.8968 57.4945 48.6232C58.1137 48.3496 59.4697 47.3968 59.4697 47.9416C59.4697 48.4864 59.0617 51.1456 59.4697 50.7376C59.8777 50.3296 60.0841 48.964 61.7209 47.668C63.3577 46.372 64.7905 45.6232 64.8577 44.1232C64.9249 42.6232 64.4497 42.2824 63.0841 41.9416C61.7185 41.6008 58.8433 41.8 58.7065 42.0784Z" fill="white" stroke="#263238" stroke-linecap="round" stroke-linejoin="round"/>
<path d="M58.0248 40.7826C58.0248 40.7826 58.2288 41.8722 57.6144 43.6458C57 45.4194 55.5696 49.305 56.796 48.897C58.0224 48.489 62.796 44.601 63.2064 44.0562C63.6168 43.5114 64.6464 39.417 64.6464 39.417C64.6464 39.417 60.624 40.509 59.4624 40.6458C58.3008 40.7826 58.0248 40.7826 58.0248 40.7826Z" fill="#A8A8A8" stroke="#263238" stroke-linecap="round" stroke-linejoin="round"/>
<path d="M58.0249 40.7825C58.0966 41.4256 58.0494 42.0764 57.8857 42.7025C63.6985 41.5841 64.6393 39.4121 64.6393 39.4121C64.6393 39.4121 60.6169 40.5041 59.4553 40.6409C58.2937 40.7777 58.0249 40.7825 58.0249 40.7825Z" fill="#263238" stroke="#263238" stroke-linecap="round" stroke-linejoin="round"/>
<path d="M66.684 37.7827C66.684 37.7827 66.0696 37.0315 68.6616 36.2131C71.2536 35.3947 72.7536 34.5763 72.4128 33.0091C72.072 31.4419 70.2312 31.0315 70.2312 31.0315C70.2312 31.0315 71.7984 28.0987 70.776 27.4843C69.7536 26.8699 68.5248 27.7579 68.5248 27.7579C68.5248 27.7579 68.7984 25.5763 67.7064 25.5067C66.6144 25.4371 65.5248 26.3947 65.5248 26.3947C65.5248 26.3947 65.4576 24.1435 63.5472 24.5539C61.6368 24.9643 62.3208 26.9395 62.3208 26.9395C62.3208 26.9395 60.1392 26.0539 59.388 27.4195C58.6368 28.7851 59.2512 29.3395 59.2512 29.3395C59.2512 29.3395 58.5024 29.6131 58.5024 30.3643C58.5024 31.1155 59.184 31.8643 59.7288 31.9315C60.2736 31.9987 61.092 31.5907 61.776 31.7275C62.46 31.8643 65.0472 33.3643 64.2984 35.7499C63.5496 38.1355 64.4352 38.5459 64.7784 38.7499C65.1216 38.9539 66.4128 38.3275 66.684 37.7827Z" fill="#263238" stroke="#263238" stroke-linecap="round" stroke-linejoin="round"/>
<path d="M66.0001 33.8945C66.0001 33.8945 66.9601 32.7353 66.9601 31.9865C66.9601 31.2377 64.3681 29.3945 62.8009 29.3945C61.2337 29.3945 58.9825 31.3025 58.9825 31.7801C58.9825 32.2577 58.9825 32.5313 58.6417 32.8721C58.3009 33.2129 57.0049 33.8945 56.6641 34.6457C56.3233 35.3969 55.1641 40.3049 55.4353 40.5761C55.7065 40.8473 57.2545 41.1425 57.6865 41.1233C59.1265 41.0537 61.9825 41.1233 62.9377 40.7825C63.5343 40.5603 64.0874 40.2354 64.5721 39.8225C65.2296 39.8551 65.8859 39.7386 66.4921 39.4817C67.3105 39.0713 68.2657 37.7777 67.3777 37.2305C66.4897 36.6833 65.1961 36.9593 65.1961 36.9593C65.1961 36.9593 64.9921 36.6857 65.3329 36.2081C65.6737 35.7305 65.6737 35.8001 65.6737 35.4593C65.6737 35.1185 65.4577 34.4393 66.0001 33.8945Z" fill="#A8A8A8" stroke="#263238" stroke-linecap="round" stroke-linejoin="round"/>
<path d="M60.96 32.1211C60.7721 32.5263 60.4614 32.8622 60.072 33.0811C59.3904 33.4915 58.0272 33.7627 58.368 34.3099C58.7088 34.8571 59.5272 34.9219 60.072 34.9219C60.2233 34.9218 60.3693 34.8664 60.4825 34.766C60.5957 34.6656 60.6682 34.5273 60.6864 34.3771" stroke="#263238" stroke-linecap="round" stroke-linejoin="round"/>
<path d="M58.1618 35.7999C58.926 35.9529 59.7013 36.0436 60.4802 36.0711C61.3402 36.1127 62.1995 35.9737 63.0026 35.6631C63.0026 35.6631 61.7066 37.4367 60.9578 37.9815C60.5769 38.2819 60.1373 38.4993 59.6673 38.6196C59.1973 38.7398 58.7074 38.7604 58.229 38.6799C57.2066 38.4759 56.933 37.9287 57.2066 37.5207C57.4802 37.1127 58.1618 35.7999 58.1618 35.7999Z" fill="#263238" stroke="#263238" stroke-linecap="round" stroke-linejoin="round"/>
<path d="M62.2608 36.6231C62.6784 36.1119 63.0024 35.6631 63.0024 35.6631C62.1993 35.9737 61.3401 36.1127 60.48 36.0711C59.7012 36.0436 58.9258 35.9529 58.1616 35.7999L57.8784 36.3279C59.2778 36.8578 60.803 36.9606 62.2608 36.6231Z" fill="white" stroke="#263238" stroke-linecap="round" stroke-linejoin="round"/>
<path d="M57.1513 37.6143C56.9857 38.0079 57.2929 38.4807 58.2289 38.6679C59.0487 38.8186 59.8952 38.6577 60.6025 38.2167C60.8137 38.0823 60.9577 37.9767 60.9577 37.9767C60.9577 37.9767 59.2369 38.6175 57.1513 37.6143Z" fill="white" stroke="#263238" stroke-linecap="round" stroke-linejoin="round"/>
<path d="M62.3208 33.4871C62.3208 33.4871 63.2808 33.1463 63.8208 33.9671" stroke="#263238" stroke-linecap="round" stroke-linejoin="round"/>
<path d="M60.0697 32.8024C60.0697 32.8024 59.7985 32.3944 59.1841 32.8024" stroke="#263238" stroke-linecap="round" stroke-linejoin="round"/>
<path d="M63.48 31.5088C63.48 31.5088 64.3656 31.9168 64.44 33.28" stroke="#263238" stroke-width="2" stroke-linecap="round" stroke-linejoin="round"/>
<path d="M60.8208 31.2403C60.5506 31.1929 60.2729 31.2118 60.0116 31.2955C59.7504 31.3791 59.5133 31.5249 59.3208 31.7203" stroke="#263238" stroke-width="2" stroke-linecap="round" stroke-linejoin="round"/>
<path d="M70.7088 55.1709C70.7088 55.1709 68.2536 56.8749 67.98 57.4893C67.7064 58.1037 68.1168 61.2405 68.4 62.2005C68.6832 63.1605 69.6288 63.2229 70.9248 63.2925C72.2208 63.3621 73.6512 63.3597 74.4024 62.0637C75.1536 60.7677 74.9472 59.3373 73.7208 57.8373C72.8388 56.8195 71.826 55.923 70.7088 55.1709Z" fill="white" stroke="#263238" stroke-linecap="round" stroke-linejoin="round"/>
<path d="M72.5498 39.2127C72.5498 39.2127 71.7314 38.4639 71.3906 38.6007C71.0498 38.7375 69.2762 39.2127 69.5474 39.9639C69.8186 40.7151 71.1842 40.3719 71.6618 40.2351C71.8979 40.1786 72.1105 40.0496 72.2698 39.8663C72.429 39.683 72.5269 39.4544 72.5498 39.2127Z" fill="#A8A8A8" stroke="#263238" stroke-linecap="round" stroke-linejoin="round"/>
<path d="M74.5273 39.2127C74.5273 39.2127 73.5673 37.9167 72.8905 38.1903C72.2137 38.4639 72.0025 39.4863 72.0025 39.4863C72.0025 39.4863 70.9801 39.6903 70.7761 40.1007L70.5721 40.5087C70.5721 40.5087 69.6841 40.5759 69.5473 40.9887C69.4643 41.2538 69.4191 41.5293 69.4129 41.8071C69.2618 41.8604 69.1263 41.9507 69.019 42.0697C68.9117 42.1888 68.8359 42.3328 68.7985 42.4887C68.6617 43.0335 68.7985 43.2399 69.0721 43.9287C69.3457 44.6175 70.2313 45.5655 70.5121 45.9063C70.7929 46.2471 71.8081 46.5183 71.8777 46.7247C71.9473 46.9311 71.9449 47.4063 71.6713 48.9063C71.3977 50.4063 70.6489 54.2919 70.0345 56.4063C69.4201 58.5207 68.7409 59.2023 69.4897 61.0431C70.2385 62.8839 71.0593 63.1575 72.0817 62.8839C72.8636 62.6672 73.576 62.2519 74.1496 61.6782C74.7233 61.1045 75.1387 60.3921 75.3553 59.6103C75.9001 57.5655 75.2857 54.0903 75.2857 51.7695C75.2857 49.4487 75.3553 45.5655 75.2857 43.8495C75.2161 42.1335 74.5273 39.2127 74.5273 39.2127Z" fill="#A8A8A8" stroke="#263238" stroke-linecap="round" stroke-linejoin="round"/>
<path d="M51.4776 39.9642C51.4776 39.9642 49.6368 40.3722 48.8184 40.509C48 40.6458 47.3784 40.2354 47.2512 39.8274C47.124 39.4194 46.1592 38.9418 46.1592 38.9418C46.1592 38.9418 46.5 38.5314 48.4776 37.9818C50.4552 37.4322 51.684 38.4618 51.684 38.4618L51.4776 39.9642Z" fill="#A8A8A8" stroke="#263238" stroke-linecap="round" stroke-linejoin="round"/>
<path d="M45.0145 40.7685L46.6225 40.2885C47.3041 40.0845 47.7289 39.1485 47.7289 39.1485C47.7289 39.1485 47.7961 39.6285 48.2089 39.5565C48.6217 39.4845 50.4601 39.3525 50.8705 39.3525C51.2809 39.3525 52.9153 38.8725 52.9153 38.2605C52.9153 37.6485 51.4153 36.0117 51.1417 35.5341C50.8681 35.0565 50.0521 34.8525 49.5049 34.8525C48.9577 34.8525 48.4153 35.1933 46.7785 36.2157C45.1417 37.2381 44.0497 37.7853 43.7089 38.2605C43.3681 38.7357 38.2489 47.6013 37.9201 48.6237C37.5913 49.6461 36.6937 51.6909 36.8977 52.5093C37.1497 53.5197 38.1217 54.5253 38.8417 55.2237C39.8473 56.2053 42.0049 55.7877 42.6457 54.5325C43.1905 53.4597 43.3657 51.9237 43.3657 50.7381C43.3657 49.1685 43.0249 48.0789 43.3657 45.8973C43.7065 43.7157 45.0145 40.7685 45.0145 40.7685Z" fill="#A8A8A8" stroke="#263238" stroke-linecap="round" stroke-linejoin="round"/>
<path d="M50.4553 39.554C50.4553 39.554 50.4553 40.1684 50.6593 40.2356C50.8633 40.3028 52.2289 40.3724 52.2961 39.9644C52.3633 39.5564 52.2961 39.35 51.9553 39.2132C51.6145 39.0764 50.5921 39.146 50.4553 39.554Z" fill="#A8A8A8" stroke="#263238" stroke-linecap="round" stroke-linejoin="round"/>
<path d="M47.7288 39.1456L48.3408 38.668L47.8632 38.1904" stroke="#263238" stroke-linecap="round" stroke-linejoin="round"/>
<path d="M49.1594 35.7354C49.1594 35.7354 50.1818 37.7826 50.3882 38.1906C50.5946 38.5986 50.4554 38.5314 50.1818 38.7354C49.9082 38.9394 48.8882 39.4866 48.8882 39.4866" stroke="#263238" stroke-linecap="round" stroke-linejoin="round"/>
<path d="M50.4001 35.5986C50.4001 35.5986 51.8401 38.1906 51.6961 38.4642C51.5521 38.7378 50.4673 39.5538 50.4673 39.5538" stroke="#263238" stroke-linecap="round" stroke-linejoin="round"/>
<path d="M51.5474 36.2129C51.5474 36.2129 52.5698 37.9169 52.433 38.3945C52.2962 38.8721 51.7298 39.2033 51.7298 39.2033" stroke="#263238" stroke-linecap="round" stroke-linejoin="round"/>
<path d="M117.12 113.882H4.81445" stroke="#263238" stroke-linecap="round" stroke-linejoin="round"/>
</svg>
