<svg width="500" height="500" viewBox="0 0 500 500" fill="none" xmlns="http://www.w3.org/2000/svg">
<path d="M189.65 228.65C193.158 231.379 197.364 233.064 201.786 233.514C206.207 233.963 210.666 233.157 214.651 231.19C218.636 229.222 221.987 226.172 224.319 222.388C226.65 218.604 227.869 214.241 227.836 209.796C227.802 205.352 226.518 201.007 224.129 197.259C221.741 193.511 218.345 190.511 214.33 188.604C210.316 186.697 205.845 185.959 201.431 186.474C197.017 186.99 192.837 188.739 189.37 191.52L184.19 187.52L176.48 189.93L177.36 182.22L170.86 177.17L163.16 179.57L164.04 171.86L158.45 167.52L153.75 168.98L154.29 164.28L151 161.72L143.62 162.44L142.62 173.78L181.28 203.83C180.079 208.332 180.232 213.088 181.721 217.503C183.21 221.918 185.968 225.795 189.65 228.65ZM217.82 220.58C216.997 221.639 215.879 222.429 214.607 222.853C213.336 223.276 211.967 223.312 210.674 222.958C209.381 222.603 208.222 221.874 207.344 220.861C206.466 219.848 205.908 218.597 205.74 217.267C205.573 215.937 205.803 214.587 206.402 213.388C207.002 212.189 207.943 211.195 209.107 210.53C210.272 209.866 211.607 209.562 212.944 209.656C214.281 209.75 215.561 210.239 216.62 211.06C218.038 212.166 218.961 213.788 219.186 215.572C219.41 217.357 218.92 219.157 217.82 220.58Z" fill="#EBEBEB"/>
<path d="M220.81 138.27C222.317 136.428 223.275 134.199 223.574 131.838C223.873 129.476 223.501 127.079 222.5 124.919C221.499 122.76 219.91 120.926 217.916 119.628C215.921 118.329 213.601 117.619 211.221 117.579C208.841 117.538 206.498 118.168 204.46 119.398C202.422 120.627 200.772 122.405 199.698 124.529C198.624 126.653 198.17 129.037 198.388 131.407C198.606 133.777 199.487 136.038 200.93 137.93L198.7 140.65L199.89 144.81L195.77 144.24L193 147.66L194.19 151.82L190.08 151.24L187.68 154.18L188.4 156.71L185.89 156.36L184.5 158.07L184.79 162.07L190.85 162.75L207.43 142.44C209.823 143.137 212.369 143.113 214.748 142.372C217.128 141.63 219.237 140.203 220.81 138.27ZM216.81 123.09C217.365 123.545 217.773 124.154 217.982 124.841C218.192 125.528 218.192 126.261 217.985 126.948C217.777 127.635 217.37 128.246 216.816 128.702C216.262 129.158 215.585 129.439 214.87 129.51C214.156 129.582 213.437 129.44 212.803 129.102C212.17 128.765 211.65 128.247 211.311 127.614C210.972 126.982 210.827 126.263 210.897 125.548C210.966 124.834 211.246 124.156 211.7 123.6C212.002 123.224 212.375 122.912 212.799 122.682C213.223 122.452 213.688 122.31 214.168 122.262C214.647 122.215 215.132 122.263 215.592 122.406C216.053 122.548 216.481 122.781 216.85 123.09H216.81Z" fill="#EBEBEB"/>
<path d="M167.32 52.3701V125.75H61.9101L58.1201 52.8801L167.32 52.3701Z" fill="#E0E0E0"/>
<path d="M58.1201 52.8801L58.1201 125.6H163.53V52.8801H58.1201Z" fill="white"/>
<path d="M164 126.1H57.6201V52.3801H164V126.1ZM58.6001 125.1H163V53.3801H58.6201L58.6001 125.1Z" fill="#E0E0E0"/>
<path d="M152.1 61.9102H69.5303V116.56H152.1V61.9102Z" fill="white"/>
<path d="M152.11 61.9102H151.7H150.52L146 62.0002H129L69.5601 62.1202L69.8001 61.8802C69.8001 78.5802 69.8001 97.0802 69.8001 116.53L69.5401 116.27L152.12 116.33L151.91 116.53C151.91 99.9002 151.99 86.2702 152.02 76.7702C152.02 72.0202 152.02 68.3202 152.07 65.7702C152.07 64.5102 152.07 63.5502 152.07 62.8802C152.07 62.2102 152.07 61.8802 152.07 61.8802C152.07 61.8802 152.07 62.2002 152.07 62.8802C152.07 63.5602 152.07 64.4902 152.07 65.7302C152.07 68.2602 152.07 71.9602 152.07 76.7302C152.07 86.2602 152.14 99.9402 152.18 116.62V116.83H151.98H69.4001H69.1401V116.56C69.1401 97.1102 69.1401 78.6102 69.1401 61.9102V61.6702H69.3801L128.98 61.7902L145.98 61.8602H150.47H151.62L152.11 61.9102Z" fill="#E0E0E0"/>
<path d="M58.1104 52.6702C58.7615 52.9902 59.3724 53.3863 59.9304 53.8502C61.0104 54.6302 62.4703 55.7302 64.0603 57.0002C65.6503 58.2702 67.0603 59.4702 68.0603 60.3702C68.6254 60.8191 69.1326 61.3364 69.5704 61.9102C69.4704 62.0202 66.9404 59.9102 63.7704 57.4102C61.7869 55.9495 59.8965 54.3664 58.1104 52.6702Z" fill="#E0E0E0"/>
<path d="M163.52 52.8801C161.792 54.5802 159.948 56.1574 158 57.6001C156.146 59.1718 154.185 60.6119 152.13 61.9101C153.864 60.2093 155.715 58.6321 157.67 57.1901C159.516 55.6178 161.471 54.1775 163.52 52.8801Z" fill="#E0E0E0"/>
<path d="M163.44 125.61L151.69 116.08L163.44 125.61Z" fill="white"/>
<path d="M151.69 116.08C153.79 117.464 155.795 118.987 157.69 120.64C159.702 122.178 161.61 123.849 163.4 125.64C161.298 124.259 159.293 122.736 157.4 121.08C155.38 119.552 153.471 117.881 151.69 116.08Z" fill="#E0E0E0"/>
<path d="M58.1104 125.6C59.8275 123.915 61.6621 122.355 63.6003 120.93C65.4351 119.373 67.3765 117.946 69.4104 116.66C67.7027 118.354 65.8709 119.919 63.9304 121.34C62.0939 122.896 60.149 124.32 58.1104 125.6Z" fill="#E0E0E0"/>
<path d="M86.3003 78.9402V97.2402H138.26V78.9402H86.3003Z" fill="#E0E0E0"/>
<path d="M429 469.2C429 469.34 343.12 469.46 237.2 469.46C131.28 469.46 45.3701 469.34 45.3701 469.2C45.3701 469.06 131.24 468.94 237.2 468.94C343.16 468.94 429 469.06 429 469.2Z" fill="#263238"/>
<path d="M348.79 433L373.54 468.99L382.39 469.2L366.17 432.19L348.79 433Z" fill="#263238"/>
<path d="M87.6201 434.83L74.5801 468.83H81.1001L103.87 434.98L87.6201 434.83Z" fill="#263238"/>
<path d="M82.0003 311.3L83.0003 355.3C83.064 358.294 84.281 361.147 86.3975 363.266C88.514 365.384 91.3666 366.604 94.3603 366.67L340.55 372.15C342.099 372.185 343.64 371.909 345.081 371.34C346.522 370.771 347.835 369.92 348.943 368.837C350.05 367.753 350.93 366.46 351.531 365.031C352.132 363.603 352.441 362.069 352.44 360.52V307.52C352.437 299.965 349.703 292.665 344.741 286.968C339.779 281.271 332.924 277.56 325.44 276.52C280.37 270.32 187.44 260.79 112.29 274.33C103.664 275.872 95.873 280.444 90.3196 287.222C84.7661 294.001 81.8159 302.539 82.0003 311.3Z" fill="#1F6587"/>
<path d="M80.9202 326.67C80.9202 326.67 60.6402 317.28 56.4902 326.67C52.3402 336.06 57.0002 347.58 61.5602 354C66.1202 360.42 66.1002 439.74 66.1002 439.74L373.68 436.45L377.32 360.18C377.32 360.18 392.07 342.01 391.15 334.18C390.23 326.35 377.78 314.95 363.49 326.64C349.2 338.33 345.49 362.76 345.49 362.76L100.26 364.61C100.26 364.61 101.1 330.3 80.9202 326.67Z" fill="#1F6587"/>
<path d="M342.38 378C342.38 378.14 287.89 378.26 220.69 378.26C153.49 378.26 99 378.17 99 378C99 377.83 153.47 377.74 220.69 377.74C287.91 377.74 342.38 377.88 342.38 378Z" fill="#263238"/>
<path d="M99 411.6C98.9872 411.52 98.9872 411.439 99 411.36C99 411.17 99 410.93 99 410.65C99 410.023 98.98 409.113 98.94 407.92C98.94 405.51 98.94 402.1 98.94 397.92C98.94 389.46 99 377.77 98.61 364.92C98.5338 358.869 98.0662 352.83 97.21 346.84C97.03 346.18 96.85 345.52 96.68 344.84C96.51 344.16 96.18 343.59 95.92 342.98C95.39 341.77 94.85 340.61 94.26 339.52C93.1948 337.491 91.9427 335.566 90.52 333.77C89.3321 332.299 87.9913 330.958 86.52 329.77C85.4025 328.88 84.2 328.103 82.93 327.45C81.8236 326.94 80.6921 326.486 79.54 326.09H79.77L80.46 326.28C81.3426 326.533 82.1996 326.868 83.02 327.28C84.3262 327.899 85.5603 328.661 86.7 329.55C88.2023 330.73 89.5705 332.071 90.78 333.55C92.242 335.349 93.5279 337.285 94.62 339.33C95.23 340.43 95.78 341.59 96.32 342.81C96.59 343.42 96.84 344.05 97.09 344.68L97.66 346.68C98.5522 352.697 99.0366 358.767 99.11 364.85C99.5 377.75 99.37 389.44 99.29 397.9C99.23 402.09 99.18 405.5 99.15 407.9C99.15 409.05 99.15 409.96 99.15 410.63V411.33C99 411.51 99 411.6 99 411.6Z" fill="#263238"/>
<path d="M78.5302 344.37C78.769 344.207 79.0513 344.12 79.3402 344.12C80.1441 344.059 80.944 344.282 81.6002 344.75C82.0616 345.073 82.4388 345.501 82.7002 346C82.9991 346.585 83.1009 347.252 82.9902 347.9C82.8813 348.646 82.5488 349.342 82.0364 349.895C81.524 350.449 80.8559 350.834 80.1202 351C79.379 351.106 78.6228 350.991 77.9468 350.669C77.2707 350.347 76.7048 349.832 76.3202 349.19C75.9834 348.629 75.8134 347.984 75.8302 347.33C75.8662 346.642 76.0866 345.976 76.4684 345.402C76.8502 344.829 77.3793 344.369 78.0002 344.07C78.2553 343.932 78.5405 343.86 78.8302 343.86C78.8302 343.91 78.5402 343.98 78.0902 344.25C77.4613 344.639 76.9579 345.202 76.6402 345.87C76.4026 346.339 76.2889 346.86 76.3099 347.385C76.3309 347.911 76.486 348.422 76.7602 348.87C77.1028 349.418 77.5964 349.856 78.1817 350.131C78.7671 350.406 79.4194 350.507 80.0602 350.42C80.6871 350.273 81.2571 349.946 81.6997 349.478C82.1423 349.011 82.438 348.424 82.5502 347.79C82.6384 347.268 82.5783 346.731 82.3768 346.242C82.1752 345.752 81.8404 345.329 81.4102 345.02C80.8403 344.566 80.1384 344.31 79.4102 344.29C78.8302 344.32 78.5402 344.42 78.5302 344.37Z" fill="#263238"/>
<path d="M79.92 364.11C79.3369 363.677 78.8613 363.116 78.53 362.47C77.6171 360.966 77.1244 359.245 77.1032 357.486C77.0821 355.727 77.5334 353.995 78.41 352.47C78.7289 351.816 79.1902 351.242 79.76 350.79C79.83 350.85 79.31 351.48 78.76 352.64C78.0096 354.142 77.6258 355.801 77.64 357.48C77.6675 359.161 78.0888 360.812 78.87 362.3C79.45 363.44 80 364.06 79.92 364.11Z" fill="#263238"/>
<path d="M76.7001 334.42C76.6457 334.928 76.5453 335.43 76.4001 335.92C75.9613 338.313 76.4861 340.782 77.8601 342.79C78.1841 343.183 78.4815 343.597 78.7501 344.03C78.7501 344.03 78.1901 343.75 77.5601 343.03C76.7487 342.039 76.1842 340.87 75.9129 339.618C75.6417 338.366 75.6716 337.068 76.0001 335.83C76.112 335.309 76.3526 334.824 76.7001 334.42Z" fill="#263238"/>
<path d="M70.7104 345.48C70.8304 345.38 71.7605 346.32 73.1805 347.05C74.6005 347.78 75.8905 348.05 75.8705 348.17C74.8466 348.301 73.8091 348.068 72.9405 347.51C71.9844 347.112 71.1962 346.395 70.7104 345.48Z" fill="#263238"/>
<path d="M374.86 411.6C374.86 411.74 305.49 411.86 219.92 411.86C134.35 411.86 65 411.74 65 411.6C65 411.46 134.36 411.34 220 411.34C305.64 411.34 374.86 411.45 374.86 411.6Z" fill="#263238"/>
<path d="M341.31 363.05C341.46 363.05 341.57 373.91 341.57 387.3C341.57 400.69 341.46 411.57 341.31 411.57C341.16 411.57 341.05 400.71 341.05 387.3C341.05 373.89 341.17 363.05 341.31 363.05Z" fill="#263238"/>
<path d="M238.6 279.14H238.12L236.72 279.19L231.35 279.34L211.57 279.8L146.33 281.11C139.96 281.26 133.73 281.24 127.75 281.64C121.992 281.888 116.295 282.927 110.82 284.73C105.882 286.388 101.462 289.307 98.0004 293.2C96.43 294.959 95.0862 296.907 94.0004 299C93.01 300.925 92.1902 302.932 91.5504 305C90.5225 308.592 89.8526 312.276 89.5504 316C89.2404 319.3 89.2104 322.15 89.1904 324.49C89.1704 326.83 89.1904 328.63 89.2604 329.86C89.2604 330.46 89.2604 330.92 89.2604 331.26C89.2604 331.6 89.2604 331.74 89.2604 331.74C89.2604 331.74 89.2604 331.58 89.2604 331.26C89.2604 330.94 89.2604 330.46 89.1804 329.86C89.1204 328.64 89.0403 326.86 89.0203 324.49C89.0003 322.12 89.0204 319.29 89.2904 315.97C89.5847 312.209 90.2547 308.487 91.2904 304.86C91.9235 302.756 92.74 300.711 93.7304 298.75C94.8067 296.615 96.1509 294.625 97.7304 292.83C101.239 288.878 105.721 285.914 110.73 284.23C116.223 282.396 121.945 281.336 127.73 281.08C133.73 280.68 139.97 280.69 146.34 280.54L211.59 279.38L231.36 279.09L236.74 279.03H238.14L238.6 279.14Z" fill="#263238"/>
<path d="M159.86 313.4C159.86 313.4 159.53 313.56 159.02 313.95C158.299 314.503 157.76 315.259 157.47 316.12C157.237 316.734 157.165 317.397 157.261 318.047C157.358 318.696 157.619 319.31 158.02 319.83C158.472 320.514 159.124 321.043 159.886 321.344C160.649 321.646 161.486 321.706 162.284 321.516C163.081 321.326 163.801 320.896 164.346 320.283C164.891 319.67 165.235 318.904 165.33 318.09C165.452 317.444 165.408 316.777 165.201 316.153C164.995 315.528 164.633 314.966 164.15 314.52C163.502 313.886 162.681 313.458 161.79 313.29C161.16 313.18 160.79 313.22 160.79 313.18C161.11 313.062 161.455 313.031 161.79 313.09C162.606 313.184 163.382 313.491 164.04 313.981C164.699 314.471 165.216 315.126 165.54 315.88C165.835 316.609 165.915 317.407 165.77 318.18C165.641 319.075 165.246 319.91 164.636 320.578C164.026 321.246 163.229 321.714 162.35 321.924C161.47 322.133 160.547 322.073 159.702 321.751C158.857 321.429 158.128 320.861 157.61 320.12C157.136 319.496 156.848 318.751 156.78 317.97C156.735 317.289 156.841 316.606 157.09 315.97C157.431 315.062 158.055 314.287 158.87 313.76C159.162 313.554 159.504 313.429 159.86 313.4Z" fill="#263238"/>
<path d="M155.65 339.31C155.27 338.347 155.014 337.338 154.89 336.31C154.403 333.868 154.457 331.349 155.05 328.93C155.691 326.48 157.23 324.36 159.36 322.99C160.004 322.591 160.711 322.304 161.45 322.14C161.715 322.057 161.995 322.029 162.27 322.06C161.318 322.365 160.405 322.782 159.55 323.3C157.58 324.693 156.164 326.736 155.55 329.07C154.986 331.421 154.885 333.86 155.25 336.25C155.49 338.15 155.73 339.29 155.65 339.31Z" fill="#263238"/>
<path d="M159.29 298C158.759 298.705 158.268 299.439 157.82 300.2C156.805 302.071 156.505 304.249 156.978 306.325C157.451 308.401 158.664 310.233 160.39 311.48C161.125 311.976 161.89 312.427 162.68 312.83C162.433 312.829 162.188 312.778 161.96 312.68C161.331 312.458 160.732 312.155 160.18 311.78C158.293 310.547 156.958 308.63 156.457 306.433C155.955 304.236 156.325 301.929 157.49 300C157.826 299.422 158.236 298.891 158.71 298.42C159.05 298.07 159.27 297.93 159.29 298Z" fill="#263238"/>
<path d="M158.37 318C156.542 318.306 154.733 318.714 152.95 319.22C151.224 319.896 149.535 320.663 147.89 321.52C150.78 319.006 154.549 317.74 158.37 318Z" fill="#263238"/>
<g opacity="0.3">
<path d="M126.06 378.94C135.769 386.38 147.857 390.024 160.06 389.19C157.527 400.943 155 412.7 152.48 424.46C151.81 427.59 151.18 431.08 152.82 433.84C155.12 437.71 160.47 438.09 164.97 438.03C169.97 437.96 175.19 437.84 179.63 435.52C185.92 432.24 189.3 425.28 191.74 418.62C194.18 411.96 196.29 404.82 201.31 399.81C207.073 406.375 214.873 410.816 223.46 412.42C225.96 412.88 228.8 413.02 230.8 411.42C232.8 409.82 233.37 407 232.86 404.52C232.195 402.076 231.086 399.774 229.59 397.73L214.95 375.03C212.95 371.96 210.81 368.72 207.46 367.26C204.83 366.11 201.85 366.26 198.99 366.39C175.089 367.782 151.366 371.367 128.12 377.1" fill="black"/>
</g>
<g opacity="0.3">
<path d="M204.28 266.4C198.36 282.04 176.28 285.63 168.49 300.4C160.82 315.04 170.33 334.4 162.43 348.96C159.5 354.34 154.43 358.35 151.61 363.77C149.69 367.41 148.7 371.77 145.61 374.46C141.99 377.61 136.38 377.55 132.03 375.51C127.68 373.47 124.34 369.81 121.24 366.14C115.44 359.26 109.99 351.82 107.24 343.23C102.58 328.46 106.86 311.75 116.24 299.41C125.62 287.07 139.51 278.74 154.18 273.75C168.85 268.76 184.37 266.88 199.8 265.43" fill="black"/>
</g>
<path d="M133.18 225.27C135.421 221.777 138.52 218.916 142.18 216.96C145.867 214.998 150.176 214.564 154.18 215.75C156.148 216.374 157.919 217.499 159.322 219.013C160.724 220.528 161.709 222.38 162.18 224.39C162.81 227.6 161.95 231.18 163.61 234C165.51 237.24 170.1 238.26 171.72 241.66C172.146 242.713 172.323 243.85 172.238 244.982C172.153 246.115 171.808 247.212 171.23 248.19C170.064 250.136 168.58 251.874 166.84 253.33C167.888 253.986 168.815 254.818 169.58 255.79C169.96 256.279 170.212 256.856 170.313 257.467C170.414 258.078 170.362 258.704 170.16 259.29C169.508 260.448 168.433 261.308 167.16 261.69C161.573 264.045 155.398 264.624 149.47 263.35C147.89 263.01 146.08 262.58 144.78 263.54" fill="#263238"/>
<path d="M173.21 237.14L170 246.93L191.86 259.34L169.86 260.05L171.5 277.88L213.85 267.48C213.85 267.48 216.39 250.21 173.21 237.14L170.21 236.42C169.669 236.293 169.167 236.036 168.747 235.672C168.328 235.308 168.003 234.848 167.8 234.33C167.457 233.488 166.816 232.801 166 232.4L162.39 230.52V233.38L164.39 235.71L164.07 241.24C163.986 242.424 164.326 243.6 165.03 244.556C165.734 245.513 166.755 246.188 167.91 246.46L169.91 246.93" fill="#B78876"/>
<path d="M125.32 272.54C124.45 272.54 116.38 274.54 111.76 280.38C107.14 286.22 100.46 308.32 100.46 308.32L117.46 311.26L124.8 329.69C124.8 329.69 168.25 324 165.94 321.69C163.708 319.635 161.371 317.696 158.94 315.88L168.94 282.57L180.94 276.09L176.89 259.45L152.72 262.72L125.32 272.54Z" fill="#FAFAFA"/>
<path d="M166.86 290.27C166.86 290.41 153.31 290.53 136.61 290.53C119.91 290.53 106.35 290.41 106.35 290.27C106.35 290.13 119.9 290.01 136.61 290.01C153.32 290.01 166.86 290.13 166.86 290.27Z" fill="#1F6587"/>
<path d="M164.15 300.06C164.15 300.2 150.6 300.32 133.9 300.32C117.2 300.32 103.64 300.2 103.64 300.06C103.64 299.92 117.18 299.8 133.9 299.8C150.62 299.8 164.15 299.92 164.15 300.06Z" fill="#1F6587"/>
<path d="M164.15 310.63C164.15 310.78 153.89 310.9 141.23 310.9C128.57 310.9 118.32 310.78 118.32 310.63C118.32 310.48 128.58 310.37 141.23 310.37C153.88 310.37 164.15 310.49 164.15 310.63Z" fill="#1F6587"/>
<path d="M167.66 320.82C167.66 320.96 157.4 321.08 144.75 321.08C132.1 321.08 121.84 320.96 121.84 320.82C121.84 320.68 132.09 320.56 144.75 320.56C157.41 320.56 167.66 320.67 167.66 320.82Z" fill="#1F6587"/>
<path d="M178.51 277.1C178.51 277.25 171.73 277.36 163.38 277.36C155.03 277.36 148.24 277.25 148.24 277.1C148.24 276.95 155.01 276.84 163.38 276.84C171.75 276.84 178.51 277 178.51 277.1Z" fill="#1F6587"/>
<path d="M179.61 266.72C179.61 266.87 172.86 267.14 164.54 267.33C156.22 267.52 149.45 267.57 149.45 267.43C149.45 267.29 156.19 267.01 164.52 266.81C172.85 266.61 179.61 266.58 179.61 266.72Z" fill="#1F6587"/>
<path d="M121 295.35C120.628 298.108 120.084 300.84 119.37 303.53C118.826 306.261 118.115 308.956 117.24 311.6C117.612 308.843 118.153 306.111 118.86 303.42C119.399 300.687 120.114 297.991 121 295.35Z" fill="#263238"/>
<path d="M168.3 420.21L155.64 460.14L170.9 461.68L185.24 426.98L168.3 420.21Z" fill="#B78876"/>
<path d="M179.47 446.14L172.2 464.14C172.2 464.14 188.08 477.59 187.06 481.05L151.6 468.24L161.77 439.68L179.47 446.14Z" fill="#455A64"/>
<path d="M161.79 458.66C161.412 458.64 161.039 458.761 160.744 458.999C160.448 459.237 160.251 459.576 160.19 459.95C160.156 460.327 160.267 460.703 160.501 461.001C160.736 461.299 161.075 461.495 161.45 461.55C161.851 461.57 162.245 461.441 162.557 461.188C162.869 460.935 163.077 460.576 163.14 460.18C163.14 459.42 162.39 458.55 161.64 458.66" fill="#E0E0E0"/>
<path d="M151.6 468.24L152.74 465.4L186.32 478.78C186.32 478.78 187.65 480.03 187.06 481.08L151.6 468.24Z" fill="#E0E0E0"/>
<path d="M172.84 464.2C172.77 464.37 171.84 464.14 170.84 464.38C169.84 464.62 169.07 465.2 168.94 465.07C168.81 464.94 169.42 464.07 170.7 463.76C171.98 463.45 172.93 464.05 172.84 464.2Z" fill="#263238"/>
<path d="M176 467.08C176 467.27 175.12 467.29 174.27 467.81C173.42 468.33 173 469 172.8 469C172.6 469 172.87 467.91 173.94 467.29C175.01 466.67 176.06 466.92 176 467.08Z" fill="#263238"/>
<path d="M176.5 472.3C176.33 472.3 176.4 471.3 177.19 470.54C177.98 469.78 178.93 469.67 178.95 469.84C178.97 470.01 178.28 470.34 177.65 470.99C177.02 471.64 176.68 472.35 176.5 472.3Z" fill="#263238"/>
<path d="M174 459.91C173.87 460.04 173.16 459.51 172.16 459.22C171.16 458.93 170.28 458.97 170.24 458.79C170.2 458.61 171.17 458.25 172.34 458.61C173.51 458.97 174.17 459.8 174 459.91Z" fill="#263238"/>
<path d="M175.44 456.24C174.803 456.185 174.192 455.96 173.67 455.59C173.069 455.246 172.514 454.826 172.02 454.34C171.719 454.061 171.441 453.756 171.19 453.43C171.032 453.248 170.904 453.042 170.81 452.82C170.741 452.656 170.727 452.474 170.772 452.302C170.818 452.13 170.919 451.978 171.06 451.87C171.19 451.78 171.34 451.723 171.496 451.702C171.652 451.681 171.812 451.697 171.96 451.75C172.187 451.833 172.402 451.944 172.6 452.08C172.957 452.309 173.292 452.57 173.6 452.86C174.102 453.348 174.523 453.911 174.85 454.53C175.208 455.068 175.39 455.704 175.37 456.35C175.27 456.35 175.07 455.69 174.46 454.76C174.106 454.22 173.683 453.729 173.2 453.3C172.92 453.041 172.615 452.81 172.29 452.61C171.95 452.38 171.63 452.26 171.48 452.39C171.33 452.52 171.41 452.47 171.48 452.6C171.559 452.761 171.656 452.912 171.77 453.05C172.002 453.356 172.249 453.65 172.51 453.93C172.966 454.398 173.461 454.827 173.99 455.21C174.497 455.519 174.982 455.863 175.44 456.24Z" fill="#263238"/>
<path d="M175.12 456.41C174.968 455.779 175.024 455.116 175.28 454.52C175.609 453.449 176.229 452.49 177.07 451.75C177.25 451.551 177.478 451.402 177.731 451.316C177.985 451.231 178.257 451.211 178.52 451.26C178.677 451.323 178.814 451.428 178.915 451.564C179.015 451.7 179.076 451.861 179.09 452.03C179.108 452.272 179.087 452.515 179.03 452.75C178.949 453.166 178.804 453.568 178.6 453.94C178.265 454.571 177.776 455.107 177.18 455.5C176.18 456.17 175.35 456.12 175.36 456.05C175.895 455.779 176.413 455.475 176.91 455.14C177.403 454.741 177.802 454.239 178.08 453.67C178.236 453.353 178.35 453.017 178.42 452.67C178.5 452.28 178.47 451.92 178.31 451.91C178.15 451.9 177.73 452.02 177.48 452.27C177.192 452.511 176.928 452.779 176.69 453.07C176.284 453.573 175.948 454.128 175.69 454.72C175.28 455.7 175.23 456.42 175.12 456.41Z" fill="#263238"/>
<path d="M216.35 382.62L235.25 415.47L250.71 405.55L231.73 372.2L216.35 382.62Z" fill="#B78876"/>
<path d="M245.37 396.16L255.14 413C255.14 413 275.5 408.72 277.61 411.65L245.69 431.75L229.4 406.16L245.37 396.16Z" fill="#455A64"/>
<path d="M244.39 417.81C244.137 418.091 243.996 418.456 243.996 418.835C243.996 419.214 244.137 419.579 244.39 419.86C244.663 420.11 245.02 420.249 245.39 420.249C245.76 420.249 246.117 420.11 246.39 419.86C246.653 419.554 246.793 419.163 246.783 418.76C246.774 418.358 246.616 417.973 246.34 417.68C246.022 417.442 245.625 417.335 245.23 417.382C244.836 417.428 244.474 417.624 244.22 417.93" fill="#E0E0E0"/>
<path d="M245.69 431.73L244.15 429.09L275.33 410.81C275.33 410.81 277.14 410.53 277.61 411.63L245.69 431.73Z" fill="#E0E0E0"/>
<path d="M255.55 412.49C255.64 412.65 254.91 413.21 254.46 414.19C254.01 415.17 254.01 416.09 253.83 416.12C253.65 416.15 253.31 415.12 253.83 413.92C254.35 412.72 255.49 412.32 255.55 412.49Z" fill="#263238"/>
<path d="M259.77 411.76C259.9 411.89 259.39 412.58 259.28 413.58C259.17 414.58 259.45 415.36 259.28 415.45C259.11 415.54 258.47 414.73 258.63 413.45C258.79 412.17 259.67 411.62 259.77 411.76Z" fill="#263238"/>
<path d="M264.2 414.57C264.07 414.7 263.37 414.06 263.2 412.95C263.03 411.84 263.58 411.05 263.73 411.13C263.88 411.21 263.73 411.96 263.84 412.87C263.95 413.78 264.34 414.46 264.2 414.57Z" fill="#263238"/>
<path d="M252.9 408.9C252.9 409.09 252.07 409.32 251.23 409.9C250.39 410.48 249.88 411.22 249.71 411.14C249.54 411.06 249.86 410.08 250.86 409.37C251.86 408.66 252.9 408.73 252.9 408.9Z" fill="#263238"/>
<path d="M250.87 405.55C250.87 405.61 250.36 406.1 249.27 406.55C248.626 406.804 247.955 406.985 247.27 407.09C246.862 407.141 246.451 407.171 246.04 407.18C245.797 407.189 245.555 407.162 245.32 407.1C245.149 407.053 244.999 406.952 244.892 406.811C244.785 406.669 244.728 406.497 244.73 406.32C244.738 406.161 244.784 406.007 244.864 405.869C244.944 405.732 245.056 405.616 245.19 405.53C245.393 405.406 245.612 405.308 245.84 405.24C246.897 404.877 248.03 404.791 249.13 404.99C250.31 405.21 250.93 405.64 250.89 405.7C250.85 405.76 250.19 405.53 249.08 405.44C248.432 405.392 247.78 405.426 247.14 405.54C246.769 405.606 246.405 405.703 246.05 405.83C245.65 405.96 245.36 406.14 245.37 406.34C245.38 406.54 245.37 406.44 245.52 406.5C245.694 406.54 245.872 406.557 246.05 406.55C247.086 406.564 248.118 406.419 249.11 406.12C249.682 405.887 250.27 405.696 250.87 405.55Z" fill="#263238"/>
<path d="M250.81 405.9C250.81 405.96 250.11 405.59 249.41 404.62C249.009 404.046 248.711 403.406 248.53 402.73C248.422 402.331 248.352 401.922 248.32 401.51C248.275 401.244 248.299 400.971 248.39 400.717C248.481 400.463 248.636 400.236 248.84 400.06C248.981 399.971 249.144 399.924 249.31 399.924C249.476 399.924 249.639 399.971 249.78 400.06C249.982 400.194 250.163 400.355 250.32 400.54C250.595 400.867 250.824 401.23 251 401.62C251.284 402.274 251.405 402.988 251.35 403.7C251.25 404.92 250.72 405.52 250.67 405.47C250.781 404.881 250.857 404.287 250.9 403.69C250.887 403.058 250.737 402.437 250.46 401.87C250.302 401.539 250.096 401.232 249.85 400.96C249.59 400.66 249.29 400.46 249.18 400.58C249.08 400.699 249.008 400.839 248.968 400.989C248.928 401.14 248.922 401.297 248.95 401.45C248.968 401.827 249.018 402.202 249.1 402.57C249.247 403.197 249.483 403.8 249.8 404.36C250.34 405.34 250.88 405.82 250.81 405.9Z" fill="#263238"/>
<path d="M160.09 378L197.21 352.76L220.62 398.33L241.9 386.8C241.9 386.8 217.39 327 208.59 325.1C203.66 324.02 147.12 334.81 147.12 334.81L140.8 331.64L124.8 329.69L123.8 332.28C121.007 339.352 119.723 346.93 120.029 354.528C120.336 362.126 122.226 369.576 125.58 376.4L126.36 377.99L160.09 378Z" fill="#263238"/>
<path d="M147.06 346.42C147.34 347.67 178.06 376.42 178.06 376.42L160.36 435.91L186.78 440.96L213.31 369.3L164.82 321.73L142.63 331L147.06 346.42Z" fill="#263238"/>
<path d="M197.21 352.75C197.29 352.87 189.04 358.61 178.8 365.58C168.56 372.55 160.18 378.1 160.09 378C160 377.9 168.25 372.13 178.5 365.16C188.75 358.19 197.12 352.63 197.21 352.75Z" fill="#455A64"/>
<path d="M216.26 389.83C215.918 389.402 215.617 388.944 215.36 388.46C214.81 387.56 214.05 386.23 213.12 384.59C211.27 381.3 208.81 376.7 206.21 371.59C203.61 366.48 201.31 361.77 199.7 358.36C198.89 356.65 198.25 355.26 197.82 354.3C197.568 353.815 197.363 353.305 197.21 352.78C197.512 353.236 197.78 353.714 198.01 354.21L200.01 358.21C201.75 361.66 204.08 366.27 206.65 371.38C209.22 376.49 211.65 381.13 213.42 384.46C214.27 386.07 214.98 387.4 215.52 388.41C215.803 388.864 216.051 389.338 216.26 389.83Z" fill="#455A64"/>
<path d="M183.57 365.78C182.781 367.973 181.832 370.106 180.73 372.16C179.779 374.285 178.673 376.337 177.42 378.3C179.157 373.98 181.213 369.795 183.57 365.78Z" fill="#455A64"/>
<path d="M100.46 308.32L94.4603 330.48C93.6858 333.346 94.0439 336.401 95.4603 339.01C96.6688 341.253 98.5812 343.037 100.903 344.087C103.225 345.137 105.828 345.395 108.31 344.82L155.86 333.11L150.86 323.23L113.4 326.48L117.4 311.26L100.46 308.32Z" fill="#B78876"/>
<path d="M121.55 341.95L122.17 338.73L147.94 334.1L155.43 294.37L203.29 288.67L195.25 331.08L121.55 341.95Z" fill="#455A64"/>
<path d="M176.92 315.77C176.37 315.746 175.84 315.554 175.402 315.22C174.964 314.887 174.639 314.427 174.469 313.903C174.3 313.379 174.295 312.816 174.455 312.289C174.615 311.762 174.932 311.296 175.364 310.955C175.796 310.613 176.322 310.412 176.872 310.378C177.421 310.344 177.968 310.479 178.439 310.764C178.91 311.05 179.282 311.473 179.506 311.976C179.729 312.479 179.794 313.039 179.69 313.58C179.61 314.236 179.274 314.834 178.756 315.244C178.237 315.654 177.577 315.843 176.92 315.77Z" fill="#EBEBEB"/>
<path d="M128.55 228L128.64 230.87L129.72 273.87C129.85 278.87 134.24 282.73 139.58 282.55C144.98 282.38 149.32 278.15 149.28 273.1C149.23 267.81 149.28 262.23 149.28 262.23C149.28 262.23 156.09 261.02 157.4 252.1C158.05 247.67 157.74 240.41 157.3 234.48C157.206 233.215 156.858 231.983 156.275 230.856C155.692 229.73 154.887 228.733 153.909 227.926C152.931 227.119 151.799 226.518 150.583 226.159C149.366 225.801 148.09 225.692 146.83 225.84L128.55 228Z" fill="#B78876"/>
<path d="M153.85 239.47C153.856 239.768 153.745 240.057 153.542 240.275C153.339 240.494 153.058 240.624 152.76 240.64C152.617 240.652 152.473 240.636 152.336 240.592C152.199 240.549 152.072 240.478 151.962 240.385C151.853 240.292 151.762 240.179 151.697 240.051C151.631 239.923 151.592 239.783 151.58 239.64C151.575 239.343 151.684 239.056 151.885 238.838C152.086 238.62 152.364 238.488 152.66 238.47C152.951 238.445 153.239 238.536 153.462 238.724C153.685 238.911 153.825 239.18 153.85 239.47Z" fill="#263238"/>
<path d="M155.77 238.31C155.63 238.46 154.77 237.83 153.53 237.84C152.29 237.85 151.41 238.49 151.27 238.34C151.13 238.19 151.35 238 151.74 237.71C152.267 237.337 152.895 237.134 153.54 237.13C154.18 237.124 154.805 237.316 155.33 237.68C155.71 238 155.84 238.24 155.77 238.31Z" fill="#263238"/>
<path d="M141.73 239.91C141.739 240.209 141.629 240.499 141.425 240.718C141.221 240.937 140.939 241.067 140.64 241.08C140.35 241.105 140.062 241.014 139.839 240.826C139.615 240.639 139.476 240.37 139.45 240.08C139.445 239.783 139.556 239.495 139.759 239.278C139.963 239.062 140.243 238.933 140.54 238.92C140.684 238.906 140.828 238.921 140.966 238.963C141.103 239.006 141.231 239.075 141.342 239.167C141.452 239.259 141.544 239.372 141.61 239.5C141.677 239.627 141.718 239.767 141.73 239.91Z" fill="#263238"/>
<path d="M143.7 238.68C143.56 238.83 142.7 238.2 141.46 238.21C140.22 238.22 139.34 238.86 139.2 238.71C139.06 238.56 139.27 238.37 139.66 238.08C140.19 237.707 140.822 237.504 141.47 237.5C142.106 237.494 142.728 237.686 143.25 238.05C143.63 238.34 143.77 238.61 143.7 238.68Z" fill="#263238"/>
<path d="M148.26 247.73C148.909 247.521 149.581 247.393 150.26 247.35C150.58 247.35 150.87 247.25 150.92 247.03C150.944 246.708 150.867 246.387 150.7 246.11L149.75 243.73C148.865 241.718 148.142 239.638 147.59 237.51C148.641 239.432 149.527 241.439 150.24 243.51L151.16 245.9C151.359 246.277 151.422 246.711 151.34 247.13C151.295 247.241 151.226 247.341 151.138 247.422C151.05 247.504 150.945 247.564 150.83 247.6C150.654 247.648 150.473 247.675 150.29 247.68C149.619 247.784 148.936 247.801 148.26 247.73Z" fill="#263238"/>
<path d="M149.28 262.26C145.079 262.394 140.924 261.355 137.28 259.26C137.28 259.26 140.28 265.34 149.14 264.4L149.28 262.26Z" fill="#AA6550"/>
<path d="M144.19 236.65C144.06 236.98 142.84 236.77 141.39 236.87C139.94 236.97 138.76 237.32 138.58 237.01C138.5 236.86 138.72 236.56 139.2 236.26C139.842 235.883 140.566 235.667 141.31 235.63C142.051 235.574 142.794 235.694 143.48 235.98C144 236.22 144.25 236.5 144.19 236.65Z" fill="#263238"/>
<path d="M155.26 234C155.04 234.28 154.19 234 153.18 234C152.17 234 151.3 234.21 151.1 233.92C150.9 233.63 151.1 233.5 151.51 233.23C152.013 232.905 152.602 232.738 153.201 232.75C153.8 232.763 154.381 232.954 154.87 233.3C155.23 233.62 155.35 233.91 155.26 234Z" fill="#263238"/>
<path d="M148.13 252.18C147.77 252.238 147.401 252.2 147.06 252.07L146.06 251.79C145.78 251.7 145.47 251.57 145.12 251.44C144.769 251.344 144.451 251.154 144.2 250.89C143.99 250.62 144.03 250.14 144.51 249.71C144.844 249.467 145.23 249.308 145.637 249.244C146.045 249.181 146.461 249.216 146.853 249.346C147.244 249.476 147.598 249.697 147.887 249.992C148.175 250.287 148.389 250.646 148.51 251.04C148.72 251.67 148.46 252.09 148.13 252.18Z" fill="#AA6550"/>
<path d="M148.3 252.07C148.18 252.16 147.58 250.93 146.14 250.56C145.26 250.433 144.362 250.533 143.53 250.85C143.53 250.85 143.69 250.53 144.18 250.28C144.828 249.957 145.57 249.879 146.27 250.06C146.973 250.238 147.588 250.664 148 251.26C148.31 251.71 148.36 252.05 148.3 252.07Z" fill="#263238"/>
<path d="M138.85 222.22C140.224 224.386 140.813 226.957 140.52 229.505C140.227 232.052 139.07 234.423 137.24 236.22C135.11 238.22 131.94 239.75 131.73 242.65C131.49 245.86 135.21 248.26 135.21 251.48C135.21 254.7 131.4 256.9 130.65 260.13C130.05 262.73 131.65 265.33 133.41 267.3C135.17 269.27 137.41 271.01 138.41 273.45C138.941 274.825 139.188 276.293 139.137 277.766C139.085 279.239 138.736 280.686 138.11 282.02C136.845 284.672 135.156 287.1 133.11 289.21C130.451 288.258 127.683 287.643 124.87 287.38C125.04 286.32 125.22 285.25 125.4 284.19C125.374 284.81 125.151 285.405 124.765 285.89C124.379 286.375 123.848 286.726 123.25 286.89C122.045 287.197 120.784 287.214 119.57 286.94C115.822 286.348 112.139 285.4 108.57 284.11C110.166 282.672 111.517 280.983 112.57 279.11C113.089 278.163 113.37 277.104 113.39 276.024C113.409 274.944 113.165 273.875 112.68 272.91C111.8 271.41 110.18 270.45 109.37 268.91C108.16 266.61 109.16 263.69 110.88 261.74C112.6 259.79 114.94 258.52 116.99 256.92C119.04 255.32 120.92 253.16 121.08 250.56C121.3 247.2 118.57 244.13 118.91 240.78C119.29 236.96 123.33 234.62 124.91 231.12C126.06 228.59 125.91 225.47 127.67 223.32C128.361 222.553 129.219 221.955 130.178 221.573C131.137 221.192 132.171 221.037 133.2 221.12C135.256 221.299 137.236 221.986 138.96 223.12" fill="#263238"/>
<path d="M150 263.22C148.4 264.1 148.49 266.55 149.47 268.1C150.45 269.65 152.02 270.76 152.99 272.32C153.81 273.744 154.096 275.414 153.798 277.03C153.499 278.646 152.635 280.103 151.36 281.14L155.2 282.59L156.04 282.12L158.4 280.78L157.29 283.51H159.75C161.057 283.537 162.345 283.197 163.469 282.53C164.593 281.862 165.507 280.893 166.109 279.733C166.71 278.573 166.975 277.267 166.873 275.964C166.771 274.661 166.306 273.412 165.53 272.36C164.53 270.96 162.95 269.85 162.6 268.16C162.19 266.11 163.74 264.26 164.49 262.32C165.087 260.681 165.149 258.895 164.668 257.219C164.186 255.543 163.186 254.062 161.81 252.99" fill="#263238"/>
<path d="M74.2499 182.29C74.4753 182.402 74.6649 182.574 74.7974 182.788C74.9299 183.002 75.0001 183.249 74.9999 183.5V190.16C74.9995 190.366 74.9515 190.569 74.8595 190.752C74.7676 190.936 74.6342 191.096 74.4699 191.22C74.3065 191.347 74.1151 191.434 73.9116 191.472C73.7081 191.51 73.4984 191.499 73.2999 191.44C72.7509 191.3 72.1791 191.272 71.6189 191.358C71.0588 191.444 70.5217 191.642 70.0399 191.94C69.596 192.194 69.2089 192.536 68.9027 192.945C68.5964 193.355 68.3777 193.823 68.2599 194.32C68.1707 194.826 68.185 195.345 68.3019 195.845C68.4187 196.345 68.6358 196.816 68.9399 197.23C69.256 197.7 69.6616 198.102 70.1335 198.414C70.6054 198.727 71.1343 198.943 71.6899 199.05C72.8183 199.163 73.9516 198.889 74.9038 198.273C75.8559 197.657 76.5704 196.736 76.9299 195.66C76.9831 195.493 77.0686 195.339 77.1816 195.205C77.2946 195.071 77.4327 194.961 77.5883 194.881C77.7438 194.8 77.9137 194.752 78.0881 194.737C78.2625 194.722 78.4382 194.742 78.6049 194.795C78.7717 194.848 78.9264 194.934 79.0601 195.047C79.1938 195.16 79.304 195.298 79.3843 195.454C79.4647 195.609 79.5136 195.779 79.5282 195.953C79.5429 196.128 79.5231 196.303 79.4699 196.47C78.9132 198.151 77.7933 199.589 76.2993 200.54C74.8053 201.491 73.0288 201.897 71.2699 201.69C70.3548 201.533 69.4813 201.192 68.7025 200.686C67.9237 200.181 67.2559 199.522 66.7399 198.75C66.2287 198.034 65.8677 197.222 65.6786 196.363C65.4896 195.503 65.4764 194.615 65.6399 193.75C65.8322 192.895 66.1976 192.088 66.7136 191.38C67.2295 190.671 67.8851 190.076 68.6399 189.63C69.7475 188.964 71.0177 188.618 72.3099 188.63V183.5C72.3099 183.145 72.4511 182.804 72.7024 182.553C72.9537 182.301 73.2945 182.16 73.6499 182.16C73.857 182.159 74.0619 182.203 74.2499 182.29Z" fill="#1F6587"/>
<path d="M72.4098 179.49C72.406 179.275 72.4659 179.064 72.5819 178.883C72.698 178.701 72.8651 178.559 73.0621 178.472C73.2591 178.386 73.4773 178.36 73.6892 178.397C73.901 178.435 74.0971 178.534 74.2526 178.682C74.4082 178.831 74.5163 179.022 74.5633 179.232C74.6103 179.442 74.5942 179.661 74.5169 179.862C74.4396 180.063 74.3047 180.236 74.129 180.361C73.9534 180.485 73.7449 180.554 73.5298 180.56C73.3859 180.564 73.2425 180.54 73.1081 180.488C72.9737 180.436 72.8509 180.358 72.7467 180.259C72.6426 180.159 72.5592 180.04 72.5014 179.908C72.4435 179.776 72.4124 179.634 72.4098 179.49Z" fill="#1F6587"/>
<path d="M105 215.15C105 215.15 104.67 215.15 104.12 215.43C103.366 215.754 102.731 216.302 102.3 217C101.994 217.477 101.799 218.017 101.73 218.58C101.653 219.226 101.768 219.879 102.06 220.46C102.359 221.15 102.863 221.731 103.503 222.125C104.143 222.519 104.889 222.707 105.639 222.663C106.39 222.619 107.109 222.346 107.699 221.881C108.289 221.415 108.722 220.78 108.94 220.06C109.164 219.448 109.202 218.784 109.05 218.15C108.91 217.599 108.654 217.084 108.3 216.64C107.785 215.996 107.088 215.522 106.3 215.28C105.73 215.12 105.39 215.14 105.39 215.11H105.63C105.73 215.101 105.83 215.101 105.93 215.11C106.061 215.118 106.192 215.138 106.32 215.17C107.166 215.37 107.925 215.84 108.48 216.51C108.875 216.966 109.159 217.506 109.31 218.09C109.474 218.751 109.443 219.446 109.22 220.09C108.975 220.82 108.532 221.468 107.94 221.96C107.309 222.503 106.52 222.829 105.69 222.89C104.86 222.923 104.04 222.692 103.35 222.23C102.701 221.814 102.182 221.225 101.85 220.53C101.553 219.908 101.438 219.214 101.52 218.53C101.604 217.932 101.823 217.361 102.16 216.86C102.638 216.129 103.34 215.572 104.16 215.27C104.287 215.225 104.417 215.188 104.55 215.16C104.644 215.131 104.741 215.115 104.84 215.11C104.895 215.116 104.948 215.13 105 215.15Z" fill="#263238"/>
<path d="M114.76 224.82C114.76 224.82 114.55 224.87 114.22 225.02C113.744 225.229 113.343 225.578 113.07 226.02C112.863 226.334 112.741 226.696 112.717 227.072C112.692 227.447 112.766 227.822 112.93 228.16C113.116 228.585 113.428 228.942 113.823 229.184C114.219 229.426 114.679 229.541 115.142 229.514C115.604 229.487 116.048 229.318 116.412 229.032C116.777 228.745 117.044 228.354 117.18 227.91C117.304 227.555 117.334 227.173 117.265 226.803C117.197 226.433 117.033 226.087 116.79 225.8C116.467 225.392 116.027 225.092 115.53 224.94C115.18 224.83 114.97 224.84 114.97 224.81C115.163 224.76 115.366 224.76 115.56 224.81C116.016 224.918 116.435 225.147 116.773 225.473C117.11 225.798 117.354 226.208 117.48 226.66C117.604 227.088 117.604 227.542 117.48 227.97C117.332 228.466 117.036 228.905 116.63 229.227C116.224 229.549 115.73 229.738 115.213 229.768C114.696 229.799 114.182 229.67 113.742 229.398C113.301 229.126 112.954 228.725 112.75 228.25C112.55 227.848 112.477 227.395 112.54 226.95C112.593 226.57 112.734 226.207 112.95 225.89C113.257 225.427 113.706 225.076 114.23 224.89C114.399 224.828 114.58 224.804 114.76 224.82Z" fill="#263238"/>
<path d="M103.42 195.33C103.42 195.33 103.42 195.16 103.42 194.83C103.42 194.5 103.42 194 103.42 193.36C103.42 193.03 103.42 192.67 103.42 192.27C103.42 191.87 103.36 191.44 103.33 190.97C103.3 190.5 103.26 189.97 103.21 189.45C103.197 189.171 103.16 188.893 103.1 188.62L102.95 187.74C102.457 184.8 101.523 181.951 100.18 179.29C98.4323 175.769 96.0255 172.615 93.0898 170L91.8398 168.91C91.3998 168.57 90.9298 168.25 90.4698 167.91L89.7598 167.41C89.5366 167.226 89.2954 167.065 89.0398 166.93L87.4998 166C87.2398 165.85 86.9898 165.69 86.7198 165.55L85.8898 165.17L84.2198 164.41C83.6398 164.17 83.0398 163.99 82.4498 163.78L81.5498 163.47L81.0898 163.32L80.6198 163.21C79.3575 162.877 78.0748 162.626 76.7798 162.46C76.1198 162.39 75.4498 162.27 74.7798 162.23L72.7798 162.17C72.4398 162.17 72.0998 162.17 71.7798 162.17L70.7798 162.25C70.0798 162.31 69.3798 162.33 68.6898 162.42C67.2754 162.621 65.8757 162.915 64.4998 163.3L63.4498 163.6C63.2798 163.6 63.0998 163.69 62.9298 163.75L62.4198 163.95L60.3598 164.75C59.6898 165.05 59.0298 165.41 58.3598 165.75C58.0298 165.93 57.6898 166.07 57.3598 166.27L56.3598 166.88C55.0639 167.692 53.8244 168.591 52.6498 169.57L50.9598 171.16L50.5298 171.56L50.1398 172L49.3698 172.89L48.5898 173.77L47.8898 174.77L47.1998 175.77L46.8498 176.26C46.7398 176.43 46.6398 176.6 46.5398 176.77L45.3298 178.86C44.9998 179.59 44.6598 180.32 44.3298 181.06C41.7271 187.176 41.1968 193.975 42.8198 200.42L43.4798 202.76L44.3498 205L44.5698 205.56L44.8398 206.09L45.3798 207.16L45.9098 208.21L46.5498 209.21L47.1798 210.21L47.4898 210.7L47.8498 211.16L49.2798 213C50.2896 214.148 51.3754 215.227 52.5298 216.23L53.3798 216.98C53.6598 217.23 53.9798 217.43 54.2798 217.65C54.8898 218.08 55.4798 218.54 56.0998 218.94L57.9998 220L58.4698 220.28L58.9698 220.51L59.9698 220.96C61.269 221.553 62.6051 222.06 63.9698 222.48C64.6498 222.68 65.3398 222.81 65.9698 222.98L66.9698 223.22C67.3098 223.29 67.6498 223.31 67.9698 223.36L69.9698 223.62C70.6398 223.69 71.3098 223.62 71.9698 223.7C73.2782 223.744 74.588 223.697 75.8898 223.56H76.3698L76.8398 223.48L77.7798 223.32C78.3998 223.2 79.0198 223.12 79.6198 222.97L81.3998 222.48L82.2798 222.24L83.1198 221.91L84.7698 221.27C85.0428 221.173 85.3071 221.052 85.5598 220.91L86.3398 220.52C86.8498 220.26 87.3398 220.02 87.8498 219.75L89.2498 218.86C92.5779 216.732 95.4612 213.977 97.7398 210.75C97.9898 210.4 98.2498 210.06 98.4898 209.75L99.1098 208.69L99.7098 207.69C99.8098 207.52 99.9098 207.36 99.9998 207.19C100.09 207.02 100.15 206.84 100.23 206.67L101.13 204.73C101.39 204.11 101.57 203.48 101.78 202.91L102.08 202.06C102.178 201.8 102.255 201.533 102.31 201.26L102.67 199.77C102.77 199.31 102.89 198.89 102.96 198.5C103.03 198.11 103.06 197.75 103.11 197.43C103.19 196.79 103.26 196.31 103.31 195.97C103.36 195.63 103.39 195.48 103.39 195.48C103.39 195.48 103.39 195.65 103.39 195.98L103.21 197.44C103.21 197.76 103.13 198.12 103.08 198.51C103.03 198.9 102.9 199.33 102.8 199.79C102.7 200.25 102.58 200.79 102.46 201.28C102.406 201.556 102.33 201.827 102.23 202.09C102.13 202.37 102.04 202.65 101.94 202.94C101.73 203.52 101.56 204.15 101.29 204.78C101.02 205.41 100.71 206.05 100.41 206.78L100.17 207.3C100.09 207.47 99.9798 207.64 99.8898 207.81C99.6898 208.14 99.4898 208.49 99.2898 208.81C99.0898 209.13 98.8798 209.52 98.6698 209.89C98.4598 210.26 98.1698 210.58 97.9198 210.94C95.622 214.151 92.7256 216.888 89.3898 219L87.9798 219.9C87.4898 220.17 86.9798 220.42 86.4598 220.68L85.6898 221.08C85.4327 221.22 85.1653 221.341 84.8898 221.44L83.2198 222.09L82.3798 222.42L81.4998 222.67L79.7098 223.17C79.0998 223.32 78.4698 223.4 77.8498 223.52L76.8998 223.69L76.4298 223.77H75.9398C74.6318 223.914 73.3153 223.968 71.9998 223.93C71.3298 223.93 70.6498 223.93 69.9998 223.85L67.9998 223.59C67.6498 223.59 67.3098 223.52 66.9998 223.44L65.9998 223.21C65.3198 223.04 64.6198 222.91 63.9398 222.71C62.5727 222.293 61.2361 221.782 59.9398 221.18L58.9398 220.73L58.4398 220.5L57.9598 220.22L56.0298 219.1C55.4098 218.7 54.8098 218.23 54.1998 217.8C53.8898 217.57 53.5698 217.37 53.2898 217.12L52.4298 216.37C51.2107 215.359 50.0645 214.263 48.9998 213.09L47.5498 211.24L47.1898 210.77L46.8698 210.27L46.2398 209.27L45.5998 208.27L45.0598 207.21L44.5098 206.13L44.2398 205.59L43.9998 205C43.6998 204.25 43.4098 203.49 43.1198 202.74C42.8298 201.99 42.6798 201.17 42.4498 200.38C40.8301 193.878 41.3742 187.025 43.9998 180.86L44.9998 178.63C45.4098 177.93 45.8198 177.23 46.2198 176.53C46.3298 176.36 46.4198 176.18 46.5298 176.01L46.8798 175.52L47.5898 174.52L48.2898 173.52L49.0798 172.62L49.8598 171.73L50.2498 171.29L50.6798 170.88L52.3898 169.27C53.5762 168.285 54.8292 167.383 56.1398 166.57L57.1398 165.96C57.4598 165.75 57.8098 165.61 58.1398 165.43C58.8098 165.1 59.4698 164.73 60.1398 164.43L62.2198 163.62L62.7398 163.42L63.2598 163.27L64.3198 162.98C65.7049 162.591 67.1148 162.297 68.5398 162.1C69.2498 162.01 69.9498 161.98 70.6498 161.92L71.6498 161.85C71.9898 161.85 72.3398 161.85 72.6498 161.85L74.7098 161.91C75.3898 161.91 76.0498 162.07 76.7098 162.15C78.0169 162.312 79.3103 162.569 80.5798 162.92L81.0598 163.03C81.2098 163.03 81.3598 163.13 81.5098 163.18L82.4198 163.49C83.0198 163.71 83.6298 163.88 84.1998 164.12L85.9998 165L86.8298 165.38L87.6198 165.83L89.1598 166.73C89.4145 166.876 89.6584 167.04 89.8898 167.22L90.5998 167.73C91.0598 168.07 91.5398 168.39 91.9798 168.73L93.2398 169.83C96.2003 172.478 98.6213 175.674 100.37 179.24C101.713 181.916 102.637 184.783 103.11 187.74C103.16 188.04 103.21 188.34 103.26 188.62C103.312 188.898 103.345 189.178 103.36 189.46C103.36 190 103.44 190.51 103.47 190.98C103.5 191.45 103.54 191.89 103.55 192.29C103.56 192.69 103.55 193.05 103.55 193.38C103.55 194.02 103.55 194.51 103.55 194.85L103.42 195.33Z" fill="#263238"/>
<path d="M443.51 63H237V197.87H443.51V63Z" fill="#F5F5F5"/>
<path d="M422.61 242.73C422.61 242.88 387.23 242.99 343.61 242.99C299.99 242.99 264.61 242.88 264.61 242.73C264.61 242.58 299.98 242.47 343.61 242.47C387.24 242.47 422.61 242.59 422.61 242.73Z" fill="black"/>
<path d="M388.88 251.18C388.88 251.32 368.61 251.44 343.6 251.44C318.59 251.44 298.31 251.32 298.31 251.18C298.31 251.04 318.59 250.92 343.6 250.92C368.61 250.92 388.88 251 388.88 251.18Z" fill="black"/>
<path d="M374.6 144.09C377.907 141.005 380.279 137.051 381.443 132.68C382.608 128.309 382.517 123.699 381.183 119.377C379.849 115.056 377.324 111.197 373.898 108.244C370.472 105.29 366.284 103.361 361.813 102.678C357.342 101.995 352.769 102.584 348.617 104.38C344.465 106.175 340.904 109.103 338.339 112.829C335.775 116.555 334.311 120.928 334.117 125.447C333.923 129.966 335.005 134.448 337.24 138.38L332.34 142.95L333.52 151.08L325.91 149L319.78 154.72L321 162.8L313.4 160.67L308.13 165.58L308.85 170.58L304.21 169.28L301.15 172.14L300.69 179.67L311.92 182.5L348.37 148.5C352.692 150.421 357.484 151.028 362.149 150.243C366.813 149.459 371.144 147.319 374.6 144.09ZM371 114.48C371.933 115.479 372.549 116.733 372.769 118.082C372.99 119.431 372.805 120.815 372.239 122.059C371.672 123.304 370.75 124.352 369.587 125.072C368.425 125.791 367.075 126.15 365.709 126.102C364.343 126.055 363.022 125.603 361.912 124.804C360.803 124.005 359.955 122.895 359.477 121.615C358.998 120.334 358.91 118.941 359.224 117.61C359.538 116.28 360.24 115.072 361.24 114.14C362.58 112.892 364.36 112.227 366.19 112.291C368.02 112.354 369.75 113.142 371 114.48Z" fill="#263238"/>
<path d="M371 114.48C371 114.48 370.55 114.06 369.63 113.48C368.322 112.698 366.795 112.365 365.28 112.53C364.053 112.663 362.886 113.134 361.911 113.892C360.936 114.651 360.192 115.665 359.761 116.823C359.331 117.98 359.231 119.234 359.473 120.445C359.715 121.656 360.289 122.776 361.132 123.679C361.974 124.582 363.052 125.232 364.243 125.557C365.434 125.882 366.693 125.869 367.877 125.519C369.061 125.17 370.125 124.497 370.948 123.577C371.772 122.657 372.323 121.526 372.54 120.31C372.818 118.812 372.59 117.264 371.89 115.91C371.39 114.91 370.95 114.51 371 114.47C371.05 114.43 371.13 114.56 371.33 114.77C371.624 115.073 371.883 115.408 372.1 115.77C372.913 117.149 373.218 118.77 372.96 120.35C372.811 121.29 372.475 122.191 371.971 122.998C371.467 123.806 370.806 124.504 370.027 125.052C369.249 125.599 368.368 125.985 367.437 126.185C366.507 126.386 365.545 126.398 364.61 126.22C363.104 125.944 361.726 125.19 360.681 124.07C359.637 122.949 358.981 121.522 358.81 120C358.698 119.055 358.777 118.098 359.041 117.184C359.306 116.271 359.751 115.419 360.351 114.681C360.95 113.942 361.692 113.331 362.532 112.885C363.372 112.438 364.293 112.164 365.24 112.08C366.839 111.933 368.438 112.35 369.76 113.26C370.126 113.495 370.462 113.774 370.76 114.09C371 114.35 371.06 114.47 371 114.48Z" fill="#263238"/>
<path d="M374.6 144.09C374.6 144.09 374.49 144.21 374.25 144.42L373.19 145.42C371.753 146.59 370.19 147.596 368.53 148.42C365.371 149.934 361.92 150.743 358.417 150.793C354.914 150.844 351.442 150.133 348.24 148.71H348.44L312.05 182.77L311.95 182.88H311.8L300.57 180.06L300.34 180.01V179.77C300.48 177.42 300.63 174.85 300.79 172.24V172L300.87 171.92L304 169L304.11 168.89H304.27L308.91 170.19L308.54 170.51C308.31 168.96 308.07 167.26 307.82 165.51V165.36L307.93 165.26L313.2 160.34L313.32 160.22H313.48L321.08 162.35L320.71 162.68C320.34 160.1 319.94 157.34 319.54 154.55V154.39L319.66 154.29L321.28 152.77L325.79 148.57L325.91 148.45H326.07L333.68 150.58L333.3 150.91C332.907 148.17 332.517 145.46 332.13 142.78V142.63L332.24 142.52L337.14 137.95L337.09 138.31C335.194 134.942 334.122 131.172 333.96 127.31C333.867 125.444 334.001 123.574 334.36 121.74C334.688 119.937 335.225 118.179 335.96 116.5C337.815 112.255 340.845 108.629 344.692 106.048C348.54 103.468 353.045 102.041 357.676 101.936C362.308 101.831 366.873 103.052 370.833 105.455C374.794 107.858 377.985 111.344 380.03 115.5C381.949 119.422 382.768 123.79 382.4 128.14C382.147 131.383 381.228 134.538 379.7 137.41C379.55 137.71 379.4 137.99 379.25 138.27L378.76 139.03C378.43 139.52 378.16 140.03 377.84 140.4C377.19 141.18 376.69 141.88 376.2 142.4L375 143.73L374.61 144.09C374.61 144.09 374.72 143.95 374.96 143.69L376.04 142.54C376.51 142.04 377.04 141.33 377.63 140.54C377.93 140.13 378.19 139.65 378.51 139.17C378.67 138.92 378.83 138.67 378.99 138.4L379.43 137.55C380.908 134.708 381.798 131.598 382.048 128.404C382.297 125.211 381.902 122 380.885 118.963C379.868 115.926 378.25 113.124 376.128 110.725C374.006 108.326 371.422 106.379 368.531 104.999C365.641 103.62 362.502 102.836 359.302 102.695C356.102 102.554 352.906 103.058 349.905 104.178C346.904 105.298 344.16 107.01 341.834 109.213C339.509 111.416 337.651 114.064 336.37 117C335.657 118.642 335.134 120.36 334.81 122.12C334.468 123.912 334.341 125.738 334.43 127.56C334.601 131.318 335.653 134.983 337.5 138.26L337.61 138.46L337.44 138.62L332.55 143.19L332.64 142.93C333.027 145.597 333.417 148.31 333.81 151.07L333.88 151.52L333.43 151.4L325.83 149.27L326.12 149.2L321.61 153.4L320 154.89L320.09 154.62C320.49 157.41 320.89 160.18 321.26 162.75L321.33 163.21L320.88 163.09L313.28 160.95L313.56 160.88C311.75 162.58 309.95 164.25 308.29 165.8L308.39 165.54C308.63 167.25 308.87 168.95 309.1 170.54L309.16 170.98L308.73 170.86L304.1 169.56L304.37 169.49L301.3 172.35L301.39 172.16C301.23 174.77 301.07 177.34 300.93 179.69L300.72 179.4L311.95 182.23L311.7 182.3L348.2 148.36L348.29 148.28H348.4C351.557 149.701 354.984 150.424 358.446 150.399C361.907 150.375 365.323 149.605 368.46 148.14C370.115 147.352 371.684 146.393 373.14 145.28L374.23 144.37L374.6 144.09Z" fill="#263238"/>
<path d="M373.79 141.36C377.096 138.277 379.467 134.325 380.631 129.956C381.795 125.588 381.706 120.98 380.373 116.661C379.04 112.341 376.517 108.484 373.094 105.531C369.671 102.579 365.485 100.65 361.017 99.9654C356.548 99.281 351.977 99.869 347.827 101.662C343.677 103.455 340.116 106.38 337.551 110.103C334.986 113.826 333.522 118.195 333.326 122.712C333.129 127.228 334.208 131.709 336.44 135.64L331.55 140.2L332.72 148.34L325.12 146.2L319 151.93L320.17 160.06L312.57 157.93L307.3 162.85L308.01 167.85L303.38 166.56L300.31 169.42L299.85 176.95L311.08 179.77L347.53 145.77C351.855 147.702 356.654 148.314 361.326 147.529C365.997 146.745 370.333 144.599 373.79 141.36ZM370.23 111.75C371.163 112.749 371.779 114.003 371.999 115.352C372.22 116.701 372.035 118.085 371.469 119.329C370.902 120.574 369.98 121.622 368.817 122.342C367.655 123.061 366.306 123.42 364.939 123.372C363.573 123.325 362.252 122.873 361.142 122.074C360.033 121.275 359.185 120.165 358.707 118.885C358.228 117.604 358.141 116.211 358.454 114.88C358.768 113.55 359.47 112.342 360.47 111.41C361.133 110.791 361.911 110.309 362.761 109.99C363.61 109.672 364.514 109.525 365.421 109.557C366.327 109.588 367.218 109.798 368.044 110.175C368.869 110.551 369.612 111.086 370.23 111.75Z" fill="#1F6587"/>
<path d="M370.23 111.75C370.23 111.75 369.78 111.33 368.86 110.75C367.565 109.943 366.038 109.591 364.52 109.75C363.295 109.885 362.132 110.357 361.161 111.115C360.19 111.873 359.449 112.886 359.02 114.041C358.592 115.196 358.493 116.447 358.735 117.655C358.977 118.863 359.55 119.98 360.391 120.88C361.231 121.781 362.306 122.43 363.494 122.755C364.682 123.08 365.938 123.068 367.12 122.72C368.301 122.373 369.363 121.703 370.186 120.786C371.009 119.87 371.561 118.742 371.78 117.53C372.056 116.031 371.823 114.482 371.12 113.13C370.62 112.13 370.19 111.73 370.23 111.69C370.27 111.65 370.36 111.78 370.57 111.99C370.86 112.293 371.115 112.629 371.33 112.99C372.146 114.372 372.451 115.996 372.19 117.58C372.039 118.519 371.702 119.417 371.199 120.224C370.695 121.03 370.035 121.727 369.258 122.274C368.481 122.821 367.602 123.207 366.673 123.409C365.744 123.611 364.784 123.625 363.85 123.45C362.344 123.189 360.962 122.45 359.908 121.342C358.855 120.234 358.186 118.817 358 117.3C357.891 116.356 357.971 115.399 358.237 114.487C358.503 113.574 358.948 112.724 359.547 111.986C360.146 111.248 360.887 110.637 361.725 110.19C362.564 109.742 363.483 109.467 364.43 109.38C366.03 109.234 367.629 109.656 368.95 110.57C369.318 110.802 369.654 111.081 369.95 111.4C370.16 111.62 370.25 111.74 370.23 111.75Z" fill="#263238"/>
<path d="M373.79 141.36C373.79 141.36 373.68 141.48 373.45 141.69L372.39 142.63C370.951 143.797 369.388 144.803 367.73 145.63C364.569 147.143 361.116 147.953 357.612 148.003C354.107 148.053 350.633 147.342 347.43 145.92H347.63L311.25 179.98L311.14 180.08H311L299.76 177.26L299.54 177.2V176.97C299.68 174.62 299.84 172.05 299.99 169.44V169.32L300.07 169.25L303.14 166.38L303.26 166.27H303.42L308.05 167.56L307.68 167.89C307.46 166.34 307.21 164.64 306.96 162.89V162.74L307.08 162.63L312.34 157.72L312.46 157.6L312.63 157.65L320.23 159.78L319.85 160.11L318.68 152V151.84L318.79 151.73L320.42 150.22L324.92 146.02L325.04 145.9L325.21 145.95L332.81 148.08L332.43 148.41C332.037 145.67 331.647 142.96 331.26 140.28V140.12L331.38 140.02L336.28 135.45L336.22 135.81C334.324 132.442 333.251 128.672 333.09 124.81C333.001 122.944 333.136 121.074 333.49 119.24C333.819 117.438 334.356 115.679 335.09 114C337.365 108.71 341.449 104.403 346.61 101.848C351.77 99.2941 357.672 98.6596 363.258 100.058C368.844 101.457 373.749 104.798 377.097 109.484C380.445 114.169 382.016 119.892 381.53 125.63C381.275 128.873 380.356 132.028 378.83 134.9L378.38 135.76L377.89 136.52C377.56 137.01 377.29 137.52 376.98 137.89C376.33 138.67 375.83 139.37 375.34 139.89L374.18 141C373.93 141.25 373.79 141.37 373.79 141.37C373.79 141.37 373.91 141.22 374.15 140.96L375.22 139.82C375.69 139.32 376.22 138.61 376.81 137.82C377.11 137.42 377.38 136.94 377.7 136.45L378.18 135.69L378.61 134.83C380.088 131.974 380.969 128.847 381.2 125.64C381.625 120.024 380.05 114.439 376.753 109.873C373.456 105.306 368.65 102.054 363.185 100.69C357.721 99.3262 351.95 99.9394 346.894 102.421C341.839 104.903 337.824 109.093 335.56 114.25C334.85 115.892 334.33 117.61 334.01 119.37C333.663 121.161 333.535 122.988 333.63 124.81C333.798 128.567 334.846 132.232 336.69 135.51L336.81 135.71L336.64 135.87L331.74 140.44L331.83 140.18C332.223 142.847 332.613 145.557 333 148.31L333.07 148.77L332.63 148.64L325 146.5L325.28 146.43L320.78 150.64L319.15 152.15L319.24 151.89C319.65 154.68 320.04 157.44 320.41 160.02L320.48 160.48L320.04 160.35L312.43 158.22L312.72 158.15L307.45 163.06L307.54 162.81C307.78 164.52 308.03 166.21 308.25 167.76L308.31 168.21L307.88 168.09L303.25 166.79L303.52 166.72L300.46 169.58L300.55 169.38C300.39 171.99 300.23 174.57 300.08 176.91L299.87 176.62L311.1 179.46L310.85 179.53L347.35 145.59L347.44 145.51L347.55 145.56C350.709 146.974 354.135 147.693 357.595 147.669C361.056 147.644 364.471 146.878 367.61 145.42C369.267 144.63 370.839 143.672 372.3 142.56L373.38 141.65L373.79 141.36Z" fill="#263238"/>
<path d="M371.58 139.48C372.767 138.209 373.851 136.845 374.82 135.4C375.917 133.688 376.75 131.82 377.29 129.86C378.029 127.262 378.263 124.546 377.98 121.86C377.652 118.614 376.566 115.49 374.81 112.74C372.788 109.592 369.965 107.038 366.63 105.34C364.844 104.41 362.924 103.762 360.94 103.42C359.92 103.229 358.887 103.109 357.85 103.06C356.791 103.044 355.732 103.097 354.68 103.22C350.262 103.727 346.123 105.637 342.87 108.67C339.618 111.702 337.424 115.698 336.61 120.07C336.414 121.111 336.287 122.163 336.23 123.22C336.209 124.259 336.26 125.298 336.38 126.33C336.582 128.334 337.094 130.294 337.9 132.14C339.36 135.586 341.715 138.579 344.72 140.81C347.336 142.758 350.375 144.06 353.59 144.61C356.24 145.08 358.956 145.036 361.59 144.48C363.583 144.071 365.505 143.367 367.29 142.39C368.798 141.529 370.232 140.545 371.58 139.45C371.58 139.45 371.51 139.54 371.34 139.69L370.59 140.37C370.188 140.738 369.757 141.073 369.3 141.37C368.699 141.825 368.064 142.233 367.4 142.59C365.611 143.615 363.675 144.36 361.66 144.8C356.797 145.886 351.708 145.236 347.275 142.962C342.842 140.687 339.345 136.933 337.39 132.35C336.556 130.444 336.023 128.42 335.81 126.35C335.523 124.237 335.588 122.092 336 120C336.831 115.501 339.085 111.389 342.43 108.269C345.775 105.148 350.035 103.186 354.58 102.67C356.721 102.394 358.893 102.469 361.01 102.89C363.047 103.256 365.016 103.93 366.85 104.89C370.265 106.642 373.148 109.277 375.2 112.52C376.82 115.095 377.874 117.986 378.291 121C378.708 124.013 378.479 127.081 377.62 130C377.043 131.984 376.163 133.866 375.01 135.58C374.614 136.216 374.166 136.818 373.67 137.38C373.337 137.816 372.969 138.224 372.57 138.6L371.84 139.3C371.68 139.41 371.59 139.49 371.58 139.48Z" fill="#263238"/>
<path d="M370.61 122.39C370.56 122.39 371.11 121.87 371.78 120.8C372.723 119.273 373.124 117.473 372.92 115.69C372.782 114.384 372.316 113.134 371.566 112.055C370.816 110.977 369.807 110.105 368.63 109.52C367.256 108.817 365.703 108.542 364.17 108.73C362.967 108.875 361.814 109.298 360.802 109.964C359.79 110.63 358.946 111.523 358.337 112.571C357.728 113.618 357.371 114.793 357.294 116.003C357.216 117.212 357.42 118.423 357.89 119.54C358.441 120.825 359.316 121.945 360.43 122.79C361.412 123.521 362.547 124.017 363.75 124.24C365.517 124.566 367.341 124.287 368.93 123.45C370.05 122.86 370.56 122.34 370.61 122.39C370.66 122.44 370.5 122.54 370.25 122.77C369.886 123.116 369.479 123.415 369.04 123.66C367.671 124.453 366.101 124.831 364.521 124.747C362.94 124.664 361.419 124.123 360.14 123.19C358.862 122.265 357.872 120.995 357.288 119.529C356.704 118.063 356.548 116.461 356.84 114.91C357.163 113.152 358.043 111.546 359.351 110.328C360.659 109.11 362.324 108.347 364.1 108.15C365.748 107.951 367.418 108.254 368.89 109.02C370.219 109.713 371.338 110.749 372.13 112.02C372.966 113.362 373.396 114.917 373.369 116.497C373.343 118.078 372.86 119.617 371.98 120.93C371.694 121.349 371.358 121.732 370.98 122.07C370.76 122.3 370.62 122.41 370.61 122.39Z" fill="#263238"/>
<path d="M308.12 178.39C308.01 178.27 316.21 170.39 326.45 160.88C336.69 151.37 345.08 143.69 345.19 143.81C345.3 143.93 337.1 151.81 326.86 161.32C316.62 170.83 308.23 178.51 308.12 178.39Z" fill="#263238"/>
<path d="M312.64 130.67L312.98 129.93L313.42 130.61C313.78 131.153 314.286 131.583 314.88 131.85L315.63 132.18L314.95 132.63C314.402 132.987 313.968 133.494 313.7 134.09L313.37 134.83L312.92 134.15C312.562 133.605 312.056 133.175 311.46 132.91L310.72 132.58L311.4 132.13C311.948 131.776 312.379 131.268 312.64 130.67Z" fill="#1F6587"/>
<path d="M290.33 125.11L290.52 124.68L290.78 125.07C290.986 125.389 291.282 125.639 291.63 125.79L292.06 125.99L291.66 126.25C291.346 126.457 291.096 126.748 290.94 127.09L290.75 127.53L290.49 127.13C290.284 126.811 289.988 126.561 289.64 126.41L289.21 126.21L289.6 125.96C289.917 125.749 290.169 125.455 290.33 125.11Z" fill="#1F6587"/>
<path d="M360.6 163.14L360.79 162.71L361.05 163.11C361.264 163.422 361.558 163.67 361.9 163.83L362.33 164.02L361.94 164.28C361.621 164.486 361.371 164.782 361.22 165.13L361.02 165.56L360.76 165.17C360.555 164.852 360.263 164.599 359.92 164.44L359.48 164.25L359.88 163.99C360.199 163.784 360.449 163.488 360.6 163.14Z" fill="#1F6587"/>
<path d="M395 143.64L395.33 142.9L395.78 143.58C396.138 144.125 396.645 144.556 397.24 144.82L397.98 145.15L397.3 145.6C396.755 145.957 396.324 146.464 396.06 147.06L395.72 147.8L395.28 147.12C394.918 146.579 394.413 146.15 393.82 145.88L393.07 145.55L393.75 145.1C394.298 144.743 394.732 144.237 395 143.64Z" fill="#1F6587"/>
<path d="M390.53 116.32L391.09 115.07L391.84 116.22C392.443 117.134 393.292 117.859 394.29 118.31L395.54 118.86L394.39 119.61C393.477 120.219 392.753 121.071 392.3 122.07L391.74 123.32L390.99 122.17C390.387 121.256 389.538 120.531 388.54 120.08L387.29 119.52L388.44 118.77C389.354 118.167 390.079 117.318 390.53 116.32Z" fill="#1F6587"/>
<path d="M305.71 107.9L306.27 106.65L307.02 107.79C307.62 108.707 308.47 109.432 309.47 109.88L310.72 110.44L309.58 111.19C308.66 111.787 307.934 112.638 307.49 113.64L306.93 114.89L306.18 113.75C305.579 112.831 304.725 112.105 303.72 111.66L302.48 111.1L303.62 110.35C304.537 109.75 305.262 108.9 305.71 107.9Z" fill="#1F6587"/>
<path d="M443.84 63.0801C443.84 63.2201 397.61 63.3401 340.59 63.3401C283.57 63.3401 237.34 63.2201 237.34 63.0801C237.34 62.9401 283.56 62.8201 340.59 62.8201C397.62 62.8201 443.84 62.9401 443.84 63.0801Z" fill="#263238"/>
<path d="M249 54.8801C248.998 55.3761 248.849 55.8604 248.572 56.2719C248.295 56.6833 247.902 57.0035 247.444 57.1919C246.985 57.3803 246.48 57.4286 245.994 57.3307C245.508 57.2327 245.062 56.9928 244.712 56.6414C244.362 56.29 244.124 55.8427 244.027 55.3561C243.931 54.8695 243.982 54.3653 244.172 53.9073C244.362 53.4492 244.684 53.0578 245.097 52.7824C245.509 52.5071 245.994 52.3601 246.49 52.3601C246.82 52.3601 247.148 52.4254 247.453 52.5521C247.758 52.6789 248.035 52.8647 248.268 53.0988C248.502 53.3329 248.686 53.6108 248.812 53.9165C248.937 54.2222 249.001 54.5496 249 54.8801Z" fill="#263238"/>
<path d="M256.26 54.8801C256.258 55.3761 256.109 55.8604 255.832 56.2719C255.555 56.6833 255.163 57.0035 254.704 57.1919C254.245 57.3803 253.741 57.4286 253.254 57.3307C252.768 57.2327 252.322 56.9928 251.972 56.6414C251.622 56.29 251.384 55.8427 251.288 55.3561C251.192 54.8695 251.242 54.3653 251.432 53.9073C251.623 53.4492 251.944 53.0578 252.357 52.7824C252.769 52.5071 253.254 52.3601 253.75 52.3601C254.081 52.3601 254.408 52.4254 254.713 52.5521C255.018 52.6789 255.295 52.8647 255.529 53.0988C255.762 53.3329 255.946 53.6108 256.072 53.9165C256.198 54.2222 256.262 54.5496 256.26 54.8801Z" fill="#263238"/>
<path d="M263.48 54.88C263.478 55.3773 263.328 55.8628 263.05 56.2748C262.772 56.6869 262.377 57.007 261.917 57.1945C261.456 57.3821 260.95 57.4286 260.463 57.3281C259.976 57.2277 259.53 56.9849 259.181 56.6304C258.832 56.276 258.597 55.826 258.504 55.3374C258.411 54.8488 258.466 54.3438 258.661 53.8862C258.856 53.4287 259.182 53.0394 259.598 52.7677C260.015 52.496 260.503 52.3541 261 52.36C261.662 52.368 262.294 52.6373 262.759 53.1093C263.223 53.5813 263.483 54.2178 263.48 54.88Z" fill="#263238"/>
<path d="M444.21 360.5C444.21 358.36 444.11 231.56 443.97 47.1201L444.21 47.3601H237.42L237.68 47.1001C237.68 165.36 237.68 274.39 237.62 360.48L237.42 360.28L444.23 360.48L237.42 360.69H237.21V360.48C237.21 274.39 237.21 165.36 237.16 47.1001V46.8401H237.44H444.23H444.47V47.0801C444.31 231.56 444.21 358.37 444.21 360.5Z" fill="#263238"/>
<path d="M440.43 445C440.384 444.859 440.327 444.722 440.26 444.59C440.12 444.3 439.94 443.92 439.71 443.42C439.039 441.906 438.501 440.337 438.1 438.73C436.809 432.761 436.853 426.58 438.23 420.63C439.09 416.506 440.212 412.441 441.59 408.46C443.01 404.15 444.67 399.57 446.01 394.62C447.538 389.45 448.276 384.08 448.2 378.69C447.99 373.06 446.33 367.44 444.49 361.84C442.65 356.24 440.77 350.76 440.2 345.25C439.561 339.955 440.611 334.593 443.2 329.93C445.63 325.46 448.68 321.63 450.97 317.67C453.102 313.996 454.675 310.026 455.64 305.89C457.013 299.891 457.111 293.67 455.93 287.63C455.509 285.423 454.873 283.263 454.03 281.18C454.054 281.326 454.091 281.47 454.14 281.61C454.24 281.92 454.36 282.33 454.53 282.85C455.006 284.435 455.4 286.044 455.71 287.67C456.8 293.678 456.64 299.846 455.24 305.79C454.265 309.882 452.684 313.805 450.55 317.43C448.27 321.34 445.21 325.15 442.73 329.67C440.058 334.421 438.962 339.897 439.6 345.31C440.17 350.91 442.07 356.43 443.9 362.02C445.73 367.61 447.38 373.18 447.59 378.71C447.672 384.04 446.954 389.353 445.46 394.47C444.13 399.4 442.46 403.98 441.09 408.31C439.723 412.313 438.62 416.402 437.79 420.55C436.25 428.17 436.69 434.61 437.84 438.79C438.271 440.399 438.846 441.965 439.56 443.47L440.17 444.62C440.242 444.756 440.329 444.883 440.43 445Z" fill="#263238"/>
<path d="M447.91 321.54C447.91 321.54 452.55 306.7 444.22 298.01C444.155 297.939 444.072 297.888 443.98 297.862C443.888 297.837 443.79 297.837 443.698 297.864C443.607 297.892 443.524 297.944 443.461 298.016C443.398 298.087 443.356 298.175 443.34 298.27C442.9 300.72 442.34 308.18 447.91 321.54Z" fill="#1F6587"/>
<path d="M445.13 303C445.138 303.922 445.242 304.84 445.44 305.74C445.74 307.63 446.1 309.84 446.5 312.29C446.9 314.74 447.24 316.95 447.5 318.83C447.573 319.747 447.737 320.655 447.99 321.54C448.071 320.62 448.041 319.693 447.9 318.78C447.75 317.09 447.45 314.78 447.03 312.19C446.61 309.6 446.17 307.33 445.8 305.67C445.674 304.758 445.449 303.863 445.13 303Z" fill="#263238"/>
<path d="M442.46 356.53C442.46 356.53 439.62 341.25 428.2 337.46C428.11 337.431 428.014 337.427 427.922 337.448C427.829 337.469 427.745 337.515 427.677 337.581C427.609 337.647 427.561 337.73 427.536 337.822C427.512 337.913 427.513 338.009 427.54 338.1C428.29 340.47 431.29 347.33 442.46 356.53Z" fill="#1F6587"/>
<path d="M431.31 341.41C431.749 342.216 432.268 342.977 432.86 343.68L436.86 348.97C438.35 350.97 439.69 352.75 440.86 354.27C441.364 355.04 441.932 355.766 442.56 356.44C442.2 355.59 441.744 354.785 441.2 354.04C440.27 352.61 438.91 350.69 437.34 348.62C435.77 346.55 434.34 344.73 433.21 343.43C432.652 342.689 432.015 342.012 431.31 341.41Z" fill="#263238"/>
<path d="M445.54 394.88C445.54 394.88 447.27 379.43 437.44 372.49C437.362 372.435 437.271 372.403 437.176 372.396C437.082 372.389 436.987 372.408 436.903 372.452C436.818 372.495 436.747 372.561 436.697 372.641C436.647 372.722 436.62 372.815 436.62 372.91C436.65 375.4 437.53 382.83 445.54 394.88Z" fill="#1F6587"/>
<path d="M439.27 377.17C439.45 378.074 439.729 378.956 440.1 379.8C440.76 381.59 441.53 383.7 442.38 386.02C443.23 388.34 444 390.45 444.65 392.25C444.901 393.133 445.236 393.99 445.65 394.81C445.557 393.892 445.353 392.988 445.04 392.12C444.57 390.49 443.83 388.25 442.93 385.82C442.03 383.39 441.15 381.21 440.48 379.65C440.167 378.782 439.762 377.95 439.27 377.17Z" fill="#263238"/>
<path d="M436.94 433.46C436.94 433.46 438.11 417.95 428.04 411.37C427.961 411.315 427.869 411.284 427.773 411.279C427.677 411.275 427.582 411.297 427.499 411.344C427.415 411.391 427.347 411.461 427.301 411.545C427.255 411.629 427.234 411.724 427.24 411.82C427.36 414.3 428.5 421.7 436.94 433.46Z" fill="#1F6587"/>
<path d="M430 416C430.227 416.894 430.539 417.765 430.93 418.6C431.65 420.37 432.5 422.44 433.44 424.73C434.38 427.02 435.21 429.11 435.93 430.87C436.205 431.749 436.57 432.597 437.02 433.4C436.888 432.485 436.649 431.589 436.31 430.73C435.78 429.12 434.96 426.91 433.97 424.51C432.98 422.11 432.03 419.97 431.3 418.43C430.964 417.572 430.527 416.756 430 416Z" fill="#263238"/>
<path d="M454.58 308.5C454.58 308.5 468.36 301.3 468.63 289.27C468.631 289.175 468.607 289.081 468.559 288.999C468.511 288.917 468.441 288.85 468.358 288.805C468.274 288.759 468.18 288.738 468.085 288.742C467.99 288.747 467.898 288.777 467.82 288.83C465.77 290.25 460.1 295.12 454.58 308.5Z" fill="#1F6587"/>
<path d="M465.77 293.41C465.119 294.061 464.542 294.782 464.05 295.56L460.16 300.93C458.71 302.93 457.39 304.75 456.26 306.29C455.676 307 455.151 307.755 454.69 308.55C455.402 307.963 456.04 307.291 456.59 306.55C457.68 305.24 459.12 303.38 460.59 301.27C462.06 299.16 463.43 297.27 464.35 295.79C464.905 295.048 465.381 294.251 465.77 293.41Z" fill="#263238"/>
<path d="M439.78 340.37C439.78 340.37 454 334 455 322C455.011 321.904 454.995 321.807 454.953 321.72C454.912 321.633 454.846 321.56 454.765 321.509C454.683 321.457 454.588 321.43 454.492 321.43C454.396 321.431 454.301 321.458 454.22 321.51C452.06 322.83 446.1 327.35 439.78 340.37Z" fill="#1F6587"/>
<path d="M451.86 326C451.18 326.602 450.563 327.273 450.02 328L445.81 333.12L441.6 338.24C440.965 338.907 440.393 339.63 439.89 340.4C440.628 339.851 441.3 339.216 441.89 338.51C443.06 337.27 444.61 335.51 446.25 333.51C447.89 331.51 449.33 329.64 450.33 328.27C450.928 327.577 451.441 326.815 451.86 326Z" fill="#263238"/>
<path d="M447.94 375.91C447.94 375.91 457.69 363.8 453.12 352.67C453.084 352.581 453.025 352.504 452.949 352.447C452.873 352.389 452.782 352.354 452.687 352.345C452.592 352.335 452.496 352.352 452.41 352.394C452.324 352.435 452.251 352.5 452.2 352.58C450.89 354.7 447.65 361.45 447.94 375.91Z" fill="#1F6587"/>
<path d="M452.15 357.6C451.823 358.46 451.586 359.351 451.44 360.26C451.03 362.13 450.56 364.32 450.03 366.74L448.61 373.21C448.349 374.092 448.169 374.996 448.07 375.91C448.489 375.09 448.801 374.219 449 373.32C449.48 371.68 450.06 369.4 450.6 366.87C451.14 364.34 451.6 362.02 451.84 360.34C452.044 359.441 452.148 358.522 452.15 357.6Z" fill="#263238"/>
<path d="M438.29 417.74C438.29 417.74 452.37 411.16 453.17 399.15C453.177 399.056 453.157 398.961 453.114 398.878C453.071 398.794 453.005 398.723 452.924 398.675C452.843 398.626 452.751 398.601 452.656 398.602C452.562 398.602 452.469 398.63 452.39 398.68C450.28 400 444.4 404.62 438.29 417.74Z" fill="#1F6587"/>
<path d="M450.13 403.16C449.46 403.789 448.854 404.482 448.32 405.23L444.21 410.43C442.66 412.37 441.27 414.12 440.07 415.61C439.451 416.288 438.896 417.021 438.41 417.8C439.152 417.243 439.823 416.598 440.41 415.88C441.56 414.62 443.08 412.83 444.68 410.79C446.28 408.75 447.68 406.87 448.68 405.48C449.246 404.762 449.733 403.984 450.13 403.16Z" fill="#263238"/>
<path d="M410.24 356.62C410.24 356.62 410.24 356.74 410.24 356.96C410.24 357.18 410.24 357.56 410.24 357.96C410.29 358.9 410.34 360.16 410.41 361.73C410.59 365.05 410.85 369.67 411.15 375.2C412.15 380.82 415.02 387.06 418.87 393.11C421.69 397.57 424.65 401.63 427.21 405.4C429.528 408.693 431.614 412.145 433.45 415.73C434.661 418.159 435.642 420.697 436.38 423.31C436.63 424.24 436.81 424.96 436.92 425.46C436.961 425.717 437.032 425.969 437.13 426.21C437.113 425.948 437.08 425.687 437.03 425.43C436.96 424.93 436.81 424.19 436.6 423.25C435.937 420.596 435.005 418.016 433.82 415.55C432.028 411.917 429.965 408.424 427.65 405.1C425.12 401.3 422.17 397.24 419.36 392.8C415.54 386.8 412.69 380.64 411.64 375.1C411.25 369.57 410.92 364.96 410.69 361.65C410.56 360.08 410.46 358.82 410.39 357.88C410.39 357.49 410.31 357.16 410.29 356.88C410.281 356.792 410.264 356.705 410.24 356.62Z" fill="#263238"/>
<path d="M418.62 392C418.62 392 412.62 377.64 420.16 368.23C420.218 368.154 420.296 368.095 420.385 368.061C420.475 368.027 420.572 368.019 420.666 368.038C420.76 368.057 420.847 368.102 420.916 368.167C420.986 368.233 421.036 368.317 421.06 368.41C421.73 370.79 423 378.17 418.62 392Z" fill="#1F6587"/>
<path d="M419.71 373.22C419.453 374.106 419.295 375.019 419.24 375.94C419.03 377.62 418.79 379.94 418.6 382.55C418.41 385.16 418.33 387.48 418.33 389.19C418.27 390.11 418.327 391.034 418.5 391.94C418.66 391.035 418.741 390.119 418.74 389.2C418.87 387.29 419.02 385.06 419.18 382.59C419.34 380.12 419.51 377.88 419.65 375.97C419.761 375.058 419.781 374.136 419.71 373.22Z" fill="#263238"/>
<g opacity="0.3">
<path d="M418.62 392C418.62 392 412.62 377.64 420.16 368.23C420.218 368.154 420.296 368.095 420.385 368.061C420.475 368.027 420.572 368.019 420.666 368.038C420.76 368.057 420.847 368.102 420.916 368.167C420.986 368.233 421.036 368.317 421.06 368.41C421.73 370.79 423 378.17 418.62 392Z" fill="black"/>
</g>
<path d="M437.1 426.58C437.1 426.58 432.32 411.78 440.56 403.01C440.625 402.943 440.707 402.895 440.798 402.87C440.888 402.846 440.984 402.847 441.074 402.873C441.164 402.898 441.246 402.948 441.31 403.016C441.374 403.084 441.419 403.168 441.44 403.26C441.91 405.71 442.54 413.17 437.1 426.58Z" fill="#1F6587"/>
<path d="M439.7 408C439.371 408.862 439.139 409.757 439.01 410.67C438.66 412.33 438.24 414.67 437.84 417.2C437.44 419.73 437.17 422.1 437.03 423.8C436.916 424.716 436.916 425.644 437.03 426.56C437.26 425.671 437.414 424.765 437.49 423.85C437.77 421.96 438.1 419.74 438.49 417.29C438.88 414.84 439.2 412.63 439.49 410.74C439.653 409.836 439.723 408.918 439.7 408Z" fill="#263238"/>
<g opacity="0.3">
<path d="M437.1 426.58C437.1 426.58 432.32 411.78 440.56 403.01C440.625 402.943 440.707 402.895 440.798 402.87C440.888 402.846 440.984 402.847 441.074 402.873C441.164 402.898 441.246 402.948 441.31 403.016C441.374 403.084 441.419 403.168 441.44 403.26C441.91 405.71 442.54 413.17 437.1 426.58Z" fill="black"/>
</g>
<path d="M411 374.43C411 374.43 398.26 365.51 399.55 353.55C399.557 353.455 399.591 353.364 399.647 353.287C399.704 353.21 399.78 353.151 399.869 353.115C399.957 353.08 400.054 353.07 400.148 353.087C400.242 353.103 400.329 353.146 400.4 353.21C402.28 354.88 407.28 360.45 411 374.43Z" fill="#1F6587"/>
<g opacity="0.3">
<path d="M411 374.43C411 374.43 398.26 365.51 399.55 353.55C399.557 353.455 399.591 353.364 399.647 353.287C399.704 353.21 399.78 353.151 399.869 353.115C399.957 353.08 400.054 353.07 400.148 353.087C400.242 353.103 400.329 353.146 400.4 353.21C402.28 354.88 407.28 360.45 411 374.43Z" fill="black"/>
</g>
<path d="M401.88 358C402.138 358.883 402.494 359.735 402.94 360.54C403.66 362.08 404.72 364.18 405.94 366.46C407.16 368.74 408.36 370.78 409.27 372.21C409.72 373.018 410.264 373.769 410.89 374.45C410.548 373.595 410.126 372.775 409.63 372C408.71 370.33 407.63 368.36 406.45 366.19L403.29 360.36C402.901 359.528 402.428 358.737 401.88 358Z" fill="#263238"/>
<path d="M432 411.91C432 411.91 416.64 409.51 412.53 398.21C412.495 398.122 412.485 398.025 412.502 397.932C412.518 397.839 412.561 397.752 412.624 397.681C412.687 397.61 412.769 397.559 412.86 397.532C412.952 397.505 413.048 397.505 413.14 397.53C415.5 398.21 422.44 401 432 411.91Z" fill="#1F6587"/>
<g opacity="0.3">
<path d="M432 411.91C432 411.91 416.64 409.51 412.53 398.21C412.495 398.122 412.485 398.025 412.502 397.932C412.518 397.839 412.561 397.752 412.624 397.681C412.687 397.61 412.769 397.559 412.86 397.532C412.952 397.505 413.048 397.505 413.14 397.53C415.5 398.21 422.44 401 432 411.91Z" fill="black"/>
</g>
<path d="M416.52 401.2C417.137 401.884 417.832 402.495 418.59 403.02C419.92 404.08 421.79 405.5 423.9 407.02C426.01 408.54 427.98 409.83 429.43 410.71C430.188 411.24 431.007 411.676 431.87 412.01C431.184 411.393 430.44 410.844 429.65 410.37L424.24 406.55L418.84 402.7C418.117 402.125 417.34 401.623 416.52 401.2Z" fill="#263238"/>
<path d="M450.14 440.18L445.73 469.08L428.14 469.05L422.21 440.18H450.14Z" fill="#455A64"/>
<path d="M434.08 449.46C434.559 448.739 434.838 447.904 434.89 447.04C434.942 446.557 434.858 446.069 434.648 445.63C434.438 445.192 434.11 444.821 433.7 444.56C433.234 444.325 432.712 444.223 432.191 444.265C431.671 444.308 431.172 444.493 430.75 444.8C429.876 445.44 429.276 446.386 429.07 447.45C428.836 448.523 428.762 449.625 428.85 450.72C428.905 451.861 429.145 452.986 429.56 454.05C429.98 455.168 430.667 456.167 431.56 456.96C432.502 457.795 433.694 458.295 434.95 458.38C436.197 458.406 437.423 458.058 438.47 457.38C439.473 456.738 440.362 455.934 441.1 455C441.854 454.102 442.318 452.997 442.43 451.83C442.474 451.256 442.384 450.68 442.167 450.148C441.95 449.615 441.612 449.14 441.18 448.76C440.733 448.431 440.201 448.238 439.648 448.205C439.095 448.171 438.543 448.298 438.06 448.57C437.6 448.8 437.199 449.133 436.887 449.542C436.575 449.951 436.361 450.425 436.26 450.93C436.129 451.828 436.272 452.744 436.669 453.559C437.067 454.374 437.702 455.051 438.49 455.5C439.787 456.207 441.295 456.427 442.74 456.12C443.8 455.895 444.814 455.493 445.74 454.93C446.329 454.585 446.897 454.204 447.44 453.79C447.639 453.656 447.82 453.499 447.98 453.32C447.773 453.439 447.573 453.569 447.38 453.71C446.99 453.96 446.38 454.35 445.65 454.77C444.716 455.291 443.702 455.656 442.65 455.85C441.283 456.107 439.869 455.88 438.65 455.21C437.938 454.787 437.368 454.162 437.012 453.414C436.656 452.666 436.53 451.829 436.65 451.01C436.744 450.568 436.937 450.154 437.214 449.797C437.491 449.44 437.845 449.151 438.25 448.95C438.66 448.719 439.129 448.611 439.599 448.64C440.068 448.668 440.52 448.831 440.9 449.11C441.273 449.446 441.564 449.863 441.75 450.33C441.936 450.796 442.011 451.299 441.97 451.8C441.857 452.874 441.421 453.889 440.72 454.71C440.015 455.594 439.171 456.357 438.22 456.97C437.256 457.603 436.124 457.934 434.97 457.92C433.823 457.834 432.735 457.378 431.87 456.62C431.024 455.88 430.369 454.947 429.96 453.9C429.56 452.881 429.327 451.803 429.27 450.71C429.18 449.663 429.244 448.608 429.46 447.58C429.634 446.617 430.167 445.756 430.95 445.17C431.306 444.905 431.728 444.741 432.17 444.697C432.612 444.653 433.058 444.73 433.46 444.92C433.806 445.149 434.083 445.469 434.259 445.844C434.435 446.22 434.505 446.637 434.46 447.05C434.419 447.848 434.167 448.621 433.73 449.29C432.931 450.443 431.78 451.306 430.45 451.75C429.45 452.102 428.385 452.228 427.33 452.12C426.426 452.012 425.547 451.752 424.73 451.35C424.73 451.35 424.73 451.35 424.87 451.46C425.022 451.555 425.179 451.641 425.34 451.72C425.968 452.028 426.645 452.228 427.34 452.31C428.429 452.457 429.538 452.351 430.58 452C431.983 451.56 433.204 450.675 434.06 449.48" fill="#263238"/>
</svg>
