<svg width="500" height="500" viewBox="0 0 500 500" fill="none" xmlns="http://www.w3.org/2000/svg">
<path d="M378 152.56C362.44 144.04 346.23 140.62 328.54 142.81C306.75 145.5 289.54 148.67 268.69 140.55C251.16 133.73 235.15 123.55 218.43 115.11C184.23 97.76 150.28 92.39 124.64 126.61C111 144.82 100.64 165.73 93.49 187.79C81.93 223.38 72.43 262.79 77.64 299.96C84.23 347.08 124.64 369.2 172.98 352.13C192.53 345.23 211.4 335.13 232.25 332.24C275.88 326.18 311.84 366.24 364.16 356.5C454.34 339.74 447.68 190.71 378 152.56Z" fill="#1F6587"/>
<path opacity="0.7" d="M378 152.56C362.44 144.04 346.23 140.62 328.54 142.81C306.75 145.5 289.54 148.67 268.69 140.55C251.16 133.73 235.15 123.55 218.43 115.11C184.23 97.76 150.28 92.39 124.64 126.61C111 144.82 100.64 165.73 93.49 187.79C81.93 223.38 72.43 262.79 77.64 299.96C84.23 347.08 124.64 369.2 172.98 352.13C192.53 345.23 211.4 335.13 232.25 332.24C275.88 326.18 311.84 366.24 364.16 356.5C454.34 339.74 447.68 190.71 378 152.56Z" fill="white"/>
<path d="M391.65 114.17C385.3 110.7 382.42 113.59 380.11 110.7C377.8 107.81 386.46 100.31 369.11 92.8099C369.11 92.8099 367.96 76.6499 344.29 76.0699C320.62 75.4899 327 92.2299 320.65 96.2699C314.3 100.31 312.57 93.9999 306.22 97.9999C299.87 102 302.76 110.12 297.57 111.27C292.38 112.42 285.44 106.08 279.09 110.12C272.74 114.16 272.74 117.62 269.86 117.62C266.98 117.62 261.2 115.31 257.74 117.62C254.28 119.93 250.23 122.82 250.23 122.82H396.23C396.23 122.82 398 117.63 391.65 114.17Z" fill="#1F6587"/>
<path opacity="0.5" d="M391.65 114.17C385.3 110.7 382.42 113.59 380.11 110.7C377.8 107.81 386.46 100.31 369.11 92.8099C369.11 92.8099 367.96 76.6499 344.29 76.0699C320.62 75.4899 327 92.2299 320.65 96.2699C314.3 100.31 312.57 93.9999 306.22 97.9999C299.87 102 302.76 110.12 297.57 111.27C292.38 112.42 285.44 106.08 279.09 110.12C272.74 114.16 272.74 117.62 269.86 117.62C266.98 117.62 261.2 115.31 257.74 117.62C254.28 119.93 250.23 122.82 250.23 122.82H396.23C396.23 122.82 398 117.63 391.65 114.17Z" fill="white"/>
<path d="M226.08 243.9C221.62 241.47 219.59 243.49 217.97 241.47C216.35 239.45 222.43 234.17 210.27 228.9C210.27 228.9 209.46 217.55 192.83 217.14C176.2 216.73 180.67 228.49 176.21 231.33C171.75 234.17 170.54 229.71 166.08 232.55C161.62 235.39 163.64 241.06 160 241.87C156.36 242.68 151.48 238.22 147 241.06C142.52 243.9 142.54 246.33 140.52 246.33C138.5 246.33 134.43 244.71 132 246.33C129.57 247.95 126.73 249.98 126.73 249.98H229.32C229.32 249.98 230.54 246.33 226.08 243.9Z" fill="white"/>
<path opacity="0.5" d="M226.08 243.9C221.62 241.47 219.59 243.49 217.97 241.47C216.35 239.45 222.43 234.17 210.27 228.9C210.27 228.9 209.46 217.55 192.83 217.14C176.2 216.73 180.67 228.49 176.21 231.33C171.75 234.17 170.54 229.71 166.08 232.55C161.62 235.39 163.64 241.06 160 241.87C156.36 242.68 151.48 238.22 147 241.06C142.52 243.9 142.54 246.33 140.52 246.33C138.5 246.33 134.43 244.71 132 246.33C129.57 247.95 126.73 249.98 126.73 249.98H229.32C229.32 249.98 230.54 246.33 226.08 243.9Z" fill="white"/>
<path d="M352.87 412.87H416.07C414.86 405.14 409.89 406.5 409.23 394.52C408.9 388.52 414.49 381.02 414 373.1C413.6 366.57 407.17 359.88 406.67 352.41C406.22 345.67 411.67 338.19 411.18 330.93C410.67 324.07 404.18 317.48 403.57 310.34C403.01 303.34 408.39 295.83 407.75 288.79C407.11 281.75 400.48 275.28 399.75 268.34C399.02 261.21 404.23 253.53 403.43 246.71C402.59 239.46 395.75 233.2 394.82 226.52C393.82 219.09 398.63 211.15 397.5 204.73C396.11 196.87 388.79 191.18 387.25 185.38C384.38 174.57 384.74 164.16 381.35 163.48C377.74 162.76 376.91 172.97 374.17 184.38C372.79 190.11 365.64 195.92 364.46 203.79C363.51 210.16 368.57 217.91 367.74 225.31C367 231.94 360.33 238.31 359.68 245.52C359.07 252.3 364.48 259.77 363.95 266.86C363.43 273.75 356.95 280.32 356.52 287.32C356.09 294.32 361.65 301.64 361.27 308.55C360.88 315.63 354.53 322.32 354.2 329.13C353.86 336.34 359.55 343.61 359.27 350.29C358.96 357.7 352.7 364.48 352.47 370.96C352.19 378.82 357.96 386.07 357.78 392.06C357.4 405.06 351.45 402.35 351.24 412.81L352.87 412.87Z" fill="#1F6587"/>
<path d="M380 184.25V409.95" stroke="black" stroke-miterlimit="10"/>
<path d="M389.87 207.91L379.58 216.8L371.16 205.57" stroke="black" stroke-miterlimit="10"/>
<path d="M389.87 247.2L379.58 256.08L371.16 244.86" stroke="black" stroke-miterlimit="10"/>
<path d="M389.87 284.14L379.58 293.03L371.16 281.8" stroke="black" stroke-miterlimit="10"/>
<path d="M389.87 328.11L379.58 336.99L371.16 325.77" stroke="black" stroke-miterlimit="10"/>
<path d="M389.87 372.54L379.58 381.42L371.16 370.2" stroke="black" stroke-miterlimit="10"/>
<path d="M309.82 412.87H358.61C357.67 406.87 353.84 407.95 353.33 398.71C353.07 394.05 357.38 388.29 357.01 382.17C356.7 377.17 351.74 371.96 351.35 366.17C351 360.97 355.24 355.17 354.83 349.59C354.44 344.29 349.41 339.21 348.96 333.7C348.51 328.19 352.68 322.49 352.19 317.06C351.7 311.63 346.57 306.63 346.03 301.28C345.47 295.77 349.49 289.85 348.87 284.57C348.22 278.98 342.94 274.15 342.23 269C341.43 263.26 345.17 257.13 344.29 252.18C343.22 246.11 337.57 241.71 336.39 237.24C334.17 228.9 334.45 220.85 331.83 220.33C329.04 219.77 328.4 227.65 326.29 236.47C325.23 240.89 319.7 245.38 318.79 251.47C318.06 256.39 321.96 262.37 321.32 268.08C320.75 273.2 315.61 278.08 315.1 283.68C314.63 288.91 318.81 294.68 318.4 300.15C318 305.47 313.01 310.54 312.66 315.94C312.31 321.34 316.66 327 316.33 332.33C316 337.66 311.13 342.96 310.88 348.22C310.61 353.78 315 359.39 314.79 364.55C314.55 370.27 309.72 375.55 309.54 380.55C309.32 386.61 313.78 392.22 313.64 396.83C313.34 406.83 308.75 404.78 308.59 412.83L309.82 412.87Z" fill="#1F6587"/>
<path d="M330.77 236.4V410.62" stroke="black" stroke-miterlimit="10"/>
<path d="M338.38 254.66L330.44 261.52L323.94 252.85" stroke="black" stroke-miterlimit="10"/>
<path d="M338.38 284.98L330.44 291.84L323.94 283.18" stroke="black" stroke-miterlimit="10"/>
<path d="M338.38 313.5L330.44 320.36L323.94 311.7" stroke="black" stroke-miterlimit="10"/>
<path d="M338.38 347.44L330.44 354.3L323.94 345.63" stroke="black" stroke-miterlimit="10"/>
<path d="M338.38 381.74L330.44 388.59L323.94 379.93" stroke="black" stroke-miterlimit="10"/>
<path d="M266.33 412.4V210.22H277V412.4" fill="#2E353A"/>
<path d="M266.33 412.4V210.22H277V412.4" stroke="#2E353A" stroke-linecap="round" stroke-linejoin="round"/>
<path d="M261 412.4V210.22H271.67V412.4" fill="#1F6587"/>
<path d="M261 412.4V210.22H271.67V412.4" stroke="#2E353A" stroke-linecap="round" stroke-linejoin="round"/>
<g style="mix-blend-mode:multiply" opacity="0.3">
<path d="M271.67 210.22H261V234.22H271.67V210.22Z" fill="#2E353A"/>
</g>
<path d="M306.53 131.29H227.47L261.93 215.93H341V165.75C341 161.224 340.109 156.742 338.376 152.56C336.644 148.379 334.105 144.579 330.904 141.379C327.703 138.179 323.903 135.641 319.721 133.91C315.539 132.179 311.056 131.288 306.53 131.29Z" fill="#1F6587" stroke="#2E353A" stroke-linecap="round" stroke-linejoin="round"/>
<g style="mix-blend-mode:multiply" opacity="0.3">
<path d="M255.9 201.11L261.9 215.93H341V165.75C341 164.99 341 164.23 340.92 163.48H255.92L255.9 201.11Z" fill="black"/>
</g>
<path d="M305.95 163.48H297.63" stroke="#2E353A" stroke-linecap="round" stroke-linejoin="round"/>
<path d="M340.92 163.48H315.74" stroke="#2E353A" stroke-linecap="round" stroke-linejoin="round"/>
<path d="M227.47 131.29C236.612 131.29 245.38 134.921 251.844 141.386C258.308 147.85 261.94 156.618 261.94 165.76V215.94H193V165.75C193.003 156.61 196.635 147.845 203.1 141.382C209.564 134.92 218.33 131.29 227.47 131.29Z" fill="#2E353A" stroke="#2E353A" stroke-linecap="round" stroke-linejoin="round"/>
<path d="M261.93 210.22H202.53V215.93H261.93V210.22Z" fill="#1F6587" stroke="#2E353A" stroke-linecap="round" stroke-linejoin="round"/>
<path d="M261.93 210.22H139V215.93H261.93V210.22Z" fill="#1F6587" stroke="#2E353A" stroke-linecap="round" stroke-linejoin="round"/>
<path opacity="0.3" d="M261.93 210.22H202.53V215.93H261.93V210.22Z" fill="black"/>
<path d="M311.67 110.89H287V128.22H311.67V110.89Z" fill="#2E353A" stroke="#2E353A" stroke-linecap="round" stroke-linejoin="round"/>
<path d="M289 110.89H283.67V164.89H289V110.89Z" fill="white" stroke="#2E353A" stroke-linecap="round" stroke-linejoin="round"/>
<path d="M286.33 172.22C289.644 172.22 292.33 169.534 292.33 166.22C292.33 162.906 289.644 160.22 286.33 160.22C283.016 160.22 280.33 162.906 280.33 166.22C280.33 169.534 283.016 172.22 286.33 172.22Z" fill="#2E353A" stroke="#2E353A" stroke-linecap="round" stroke-linejoin="round"/>
<path d="M198.34 145.15C212.26 152.22 236.46 163.55 258.78 169.25" stroke="white" stroke-linecap="round" stroke-linejoin="round" stroke-dasharray="2 4"/>
<path d="M186.66 139C186.66 139 191.12 141.52 198.34 145.19" stroke="#2E353A" stroke-linecap="round" stroke-linejoin="round" stroke-dasharray="2 4"/>
<path d="M181.65 138.63L191.66 114.85L119.07 97.1399L181.65 138.63Z" fill="white" stroke="#2E353A" stroke-width="1.2629" stroke-linecap="round" stroke-linejoin="round"/>
<path d="M186.53 117.73L181.65 138.63L119.07 97.1399L186.53 117.73Z" fill="#1F6587" stroke="#2E353A" stroke-width="1.2629" stroke-linecap="round" stroke-linejoin="round"/>
<path d="M186.53 117.73L175.14 127.49L119.07 97.1399L186.53 117.73Z" fill="white" stroke="#2E353A" stroke-width="1.2629" stroke-linecap="round" stroke-linejoin="round"/>
<path d="M191.66 114.85L201.8 110.73L119.07 97.1399L191.66 114.85Z" fill="white" stroke="#2E353A" stroke-width="1.2629" stroke-linecap="round" stroke-linejoin="round"/>
<path d="M167.55 134.93L169.9 136.37" stroke="#2E353A" stroke-linecap="round" stroke-linejoin="round"/>
<path d="M154.73 127.07L162.6 131.89" stroke="#2E353A" stroke-linecap="round" stroke-linejoin="round"/>
<path d="M145.89 184.15V158.36L219.67 170.22L145.89 184.15Z" fill="white" stroke="#2E353A" stroke-width="1.2629" stroke-linecap="round" stroke-linejoin="round"/>
<path d="M149.5 163L145.89 184.15L219.67 170.22L149.5 163Z" fill="#1F6587" stroke="#2E353A" stroke-width="1.2629" stroke-linecap="round" stroke-linejoin="round"/>
<path d="M149.5 163L156.21 176.41L219.67 170.22L149.5 163Z" fill="white" stroke="#2E353A" stroke-width="1.2629" stroke-linecap="round" stroke-linejoin="round"/>
<path d="M145.89 158.36L138.15 150.62L219.67 170.22L145.89 158.36Z" fill="white" stroke="#2E353A" stroke-width="1.2629" stroke-linecap="round" stroke-linejoin="round"/>
<path d="M172.31 183.67L178.71 182.37" stroke="#2E353A" stroke-linecap="round" stroke-linejoin="round"/>
<path d="M149.83 188.24L165.92 184.97" stroke="#2E353A" stroke-linecap="round" stroke-linejoin="round"/>
<path d="M137 182.56C137 182.56 79.0001 192.56 68.0001 244.56C57.0001 296.56 115 299.56 125 274.56C135 249.56 91.0001 239.56 81.0001 263.56C71.0001 287.56 101 328.56 142 330.56C176.07 332.22 271.59 292.45 331 282.4C331 282.4 375 270.22 443 272.89" stroke="#2E353A" stroke-linecap="round" stroke-linejoin="round" stroke-dasharray="2 4"/>
<path d="M423.33 345.56H440" stroke="#2E353A" stroke-linecap="round" stroke-linejoin="round"/>
<path d="M423.33 370.22H440" stroke="#2E353A" stroke-linecap="round" stroke-linejoin="round"/>
<path d="M72.3301 369.56H421.33V346.22H72.3301" fill="white"/>
<path d="M72.3301 369.56H421.33V346.22H72.3301" stroke="#2E353A" stroke-linecap="round" stroke-linejoin="round"/>
<path d="M96.5898 412.56V295.14C96.59 294.852 96.6486 294.567 96.7621 294.303C96.8755 294.038 97.0414 293.799 97.2498 293.6L106.37 285.01C106.781 284.626 107.326 284.42 107.888 284.437C108.45 284.454 108.983 284.692 109.37 285.1L117.37 293.61C117.733 294.006 117.936 294.523 117.94 295.06V412.56" fill="#2E353A"/>
<path d="M96.5898 412.56V295.14C96.59 294.852 96.6486 294.567 96.7621 294.303C96.8755 294.038 97.0414 293.799 97.2498 293.6L106.37 285.01C106.781 284.626 107.326 284.42 107.888 284.437C108.45 284.454 108.983 284.692 109.37 285.1L117.37 293.61C117.733 294.006 117.936 294.523 117.94 295.06V412.56" stroke="#2E353A" stroke-linecap="round" stroke-linejoin="round"/>
<path d="M94 413.56V295.14C93.9997 294.851 94.0591 294.565 94.1743 294.3C94.2896 294.035 94.4584 293.797 94.67 293.6L103.79 285.01C103.993 284.819 104.231 284.669 104.492 284.57C104.752 284.471 105.03 284.424 105.309 284.433C105.587 284.441 105.862 284.504 106.116 284.619C106.37 284.733 106.599 284.897 106.79 285.1L114.79 293.61C115.157 294.004 115.361 294.522 115.36 295.06V413.56" fill="white"/>
<path d="M94 413.56V295.14C93.9997 294.851 94.0591 294.565 94.1743 294.3C94.2896 294.035 94.4584 293.797 94.67 293.6L103.79 285.01C103.993 284.819 104.231 284.669 104.492 284.57C104.752 284.471 105.03 284.424 105.309 284.433C105.587 284.441 105.862 284.504 106.116 284.619C106.37 284.733 106.599 284.897 106.79 285.1L114.79 293.61C115.157 294.004 115.361 294.522 115.36 295.06V413.56" stroke="#2E353A" stroke-linecap="round" stroke-linejoin="round"/>
<path d="M173.49 412.56V295.14C173.49 294.852 173.549 294.567 173.662 294.302C173.776 294.038 173.942 293.799 174.15 293.6L183.28 285.01C183.483 284.819 183.721 284.669 183.982 284.57C184.243 284.471 184.52 284.424 184.799 284.433C185.078 284.441 185.352 284.504 185.606 284.619C185.86 284.733 186.089 284.897 186.28 285.1L194.28 293.61C194.647 294.004 194.851 294.522 194.85 295.06V412.56" fill="#2E353A"/>
<path d="M173.49 412.56V295.14C173.49 294.852 173.549 294.567 173.662 294.302C173.776 294.038 173.942 293.799 174.15 293.6L183.28 285.01C183.483 284.819 183.721 284.669 183.982 284.57C184.243 284.471 184.52 284.424 184.799 284.433C185.078 284.441 185.352 284.504 185.606 284.619C185.86 284.733 186.089 284.897 186.28 285.1L194.28 293.61C194.647 294.004 194.851 294.522 194.85 295.06V412.56" stroke="#2E353A" stroke-linecap="round" stroke-linejoin="round"/>
<path d="M171.33 413.56V295.14C171.33 294.851 171.389 294.565 171.504 294.3C171.62 294.035 171.788 293.797 172 293.6L181.12 285.01C181.531 284.626 182.077 284.42 182.639 284.437C183.201 284.454 183.733 284.692 184.12 285.1L192.12 293.61C192.49 294.003 192.697 294.521 192.7 295.06V413.56" fill="white"/>
<path d="M171.33 413.56V295.14C171.33 294.851 171.389 294.565 171.504 294.3C171.62 294.035 171.788 293.797 172 293.6L181.12 285.01C181.531 284.626 182.077 284.42 182.639 284.437C183.201 284.454 183.733 284.692 184.12 285.1L192.12 293.61C192.49 294.003 192.697 294.521 192.7 295.06V413.56" stroke="#2E353A" stroke-linecap="round" stroke-linejoin="round"/>
<path d="M250.82 412.56V295.14C250.82 294.851 250.879 294.565 250.995 294.3C251.11 294.035 251.279 293.797 251.49 293.6L260.61 285.01C261.021 284.626 261.567 284.42 262.129 284.437C262.691 284.454 263.223 284.692 263.61 285.1L271.61 293.61C271.98 294.003 272.188 294.521 272.19 295.06V413.56" fill="#2E353A"/>
<path d="M250.82 412.56V295.14C250.82 294.851 250.879 294.565 250.995 294.3C251.11 294.035 251.279 293.797 251.49 293.6L260.61 285.01C261.021 284.626 261.567 284.42 262.129 284.437C262.691 284.454 263.223 284.692 263.61 285.1L271.61 293.61C271.98 294.003 272.188 294.521 272.19 295.06V413.56" stroke="#2E353A" stroke-linecap="round" stroke-linejoin="round"/>
<path d="M248.67 413.56V295.14C248.67 294.852 248.729 294.567 248.842 294.302C248.956 294.038 249.122 293.799 249.33 293.6L258.46 285.01C258.663 284.819 258.901 284.669 259.162 284.57C259.422 284.471 259.7 284.424 259.979 284.433C260.257 284.441 260.532 284.504 260.786 284.619C261.04 284.733 261.269 284.897 261.46 285.1L269.46 293.61C269.827 294.004 270.031 294.522 270.03 295.06V413.56" fill="white"/>
<path d="M248.67 413.56V295.14C248.67 294.852 248.729 294.567 248.842 294.302C248.956 294.038 249.122 293.799 249.33 293.6L258.46 285.01C258.663 284.819 258.901 284.669 259.162 284.57C259.422 284.471 259.7 284.424 259.979 284.433C260.257 284.441 260.532 284.504 260.786 284.619C261.04 284.733 261.269 284.897 261.46 285.1L269.46 293.61C269.827 294.004 270.031 294.522 270.03 295.06V413.56" stroke="#2E353A" stroke-linecap="round" stroke-linejoin="round"/>
<path d="M328.16 412.56V295.14C328.16 294.852 328.219 294.567 328.332 294.303C328.446 294.038 328.612 293.799 328.82 293.6L337.94 285.01C338.351 284.626 338.897 284.42 339.459 284.437C340.021 284.454 340.553 284.692 340.94 285.1L348.94 293.61C349.303 294.006 349.506 294.523 349.51 295.06V412.56" fill="#2E353A"/>
<path d="M328.16 412.56V295.14C328.16 294.852 328.219 294.567 328.332 294.303C328.446 294.038 328.612 293.799 328.82 293.6L337.94 285.01C338.351 284.626 338.897 284.42 339.459 284.437C340.021 284.454 340.553 284.692 340.94 285.1L348.94 293.61C349.303 294.006 349.506 294.523 349.51 295.06V412.56" stroke="#2E353A" stroke-linecap="round" stroke-linejoin="round"/>
<path d="M326 413.56V295.14C326 294.851 326.059 294.565 326.174 294.3C326.29 294.035 326.458 293.797 326.67 293.6L335.79 285.01C335.993 284.819 336.231 284.669 336.492 284.57C336.752 284.471 337.03 284.424 337.309 284.433C337.587 284.441 337.862 284.504 338.116 284.619C338.37 284.733 338.599 284.897 338.79 285.1L346.79 293.61C347.157 294.004 347.361 294.522 347.36 295.06V413.56" fill="white"/>
<path d="M326 413.56V295.14C326 294.851 326.059 294.565 326.174 294.3C326.29 294.035 326.458 293.797 326.67 293.6L335.79 285.01C335.993 284.819 336.231 284.669 336.492 284.57C336.752 284.471 337.03 284.424 337.309 284.433C337.587 284.441 337.862 284.504 338.116 284.619C338.37 284.733 338.599 284.897 338.79 285.1L346.79 293.61C347.157 294.004 347.361 294.522 347.36 295.06V413.56" stroke="#2E353A" stroke-linecap="round" stroke-linejoin="round"/>
<path d="M405.49 412.56V295.14C405.49 294.852 405.549 294.567 405.662 294.302C405.776 294.038 405.942 293.799 406.15 293.6L415.28 285.01C415.483 284.819 415.721 284.669 415.982 284.57C416.243 284.471 416.52 284.424 416.799 284.433C417.078 284.441 417.352 284.504 417.606 284.619C417.86 284.733 418.089 284.897 418.28 285.1L426.28 293.61C426.647 294.004 426.851 294.522 426.85 295.06V412.56" fill="#2E353A"/>
<path d="M405.49 412.56V295.14C405.49 294.852 405.549 294.567 405.662 294.302C405.776 294.038 405.942 293.799 406.15 293.6L415.28 285.01C415.483 284.819 415.721 284.669 415.982 284.57C416.243 284.471 416.52 284.424 416.799 284.433C417.078 284.441 417.352 284.504 417.606 284.619C417.86 284.733 418.089 284.897 418.28 285.1L426.28 293.61C426.647 294.004 426.851 294.522 426.85 295.06V412.56" stroke="#2E353A" stroke-linecap="round" stroke-linejoin="round"/>
<path d="M403.33 413.56V295.14C403.33 294.851 403.389 294.565 403.504 294.3C403.62 294.035 403.788 293.797 404 293.6L413.12 285.01C413.531 284.626 414.077 284.42 414.639 284.437C415.201 284.454 415.733 284.692 416.12 285.1L424.12 293.61C424.49 294.003 424.697 294.521 424.7 295.06V413.56" fill="white"/>
<path d="M403.33 413.56V295.14C403.33 294.851 403.389 294.565 403.504 294.3C403.62 294.035 403.788 293.797 404 293.6L413.12 285.01C413.531 284.626 414.077 284.42 414.639 284.437C415.201 284.454 415.733 284.692 416.12 285.1L424.12 293.61C424.49 294.003 424.697 294.521 424.7 295.06V413.56" stroke="#2E353A" stroke-linecap="round" stroke-linejoin="round"/>
<path d="M106.78 285.1V293.66" stroke="#2E353A" stroke-linecap="round" stroke-linejoin="round"/>
<path d="M110.21 289.52V309.78" stroke="#2E353A" stroke-linecap="round" stroke-linejoin="round"/>
<path d="M175.54 291.18V316.81" stroke="#2E353A" stroke-linecap="round" stroke-linejoin="round"/>
<path d="M178.85 287.87V299.03" stroke="#2E353A" stroke-linecap="round" stroke-linejoin="round"/>
<path d="M258.46 285.01V310.2" stroke="#2E353A" stroke-linecap="round" stroke-linejoin="round"/>
<path d="M263.21 287.04V324.26" stroke="#2E353A" stroke-linecap="round" stroke-linejoin="round"/>
<path d="M329.78 291.18V319.29" stroke="#2E353A" stroke-linecap="round" stroke-linejoin="round"/>
<path d="M340.53 287.87V294.9" stroke="#2E353A" stroke-linecap="round" stroke-linejoin="round"/>
<path d="M410.41 287.45V302.34" stroke="#2E353A" stroke-linecap="round" stroke-linejoin="round"/>
<path d="M419.51 289.11V332.11" stroke="#2E353A" stroke-linecap="round" stroke-linejoin="round"/>
<path d="M402.97 351.96H393.87" stroke="#2E353A" stroke-linecap="round" stroke-linejoin="round"/>
<path d="M402.97 358.99H371.13" stroke="#2E353A" stroke-linecap="round" stroke-linejoin="round"/>
<path d="M284.29 358.99H269.82" stroke="#2E353A" stroke-linecap="round" stroke-linejoin="round"/>
<path d="M208.21 358.99H193.74" stroke="#2E353A" stroke-linecap="round" stroke-linejoin="round"/>
<path d="M93.6702 355.27H79.2002" stroke="#2E353A" stroke-linecap="round" stroke-linejoin="round"/>
<path d="M93.6699 361.88H87.8799" stroke="#2E353A" stroke-linecap="round" stroke-linejoin="round"/>
<path d="M276.85 355.27H269.82" stroke="#2E353A" stroke-linecap="round" stroke-linejoin="round"/>
<path d="M199.94 363.12H192.91" stroke="#2E353A" stroke-linecap="round" stroke-linejoin="round"/>
<path d="M170.58 363.12H163.55" stroke="#2E353A" stroke-linecap="round" stroke-linejoin="round"/>
<path d="M431.08 358.99H424.88" stroke="#2E353A" stroke-linecap="round" stroke-linejoin="round"/>
<path d="M439.35 358.99H435.63" stroke="#2E353A" stroke-linecap="round" stroke-linejoin="round"/>
<path d="M115 316C115 316 112.5 337.49 109.5 359.48C106.5 381.47 112 403.97 113.5 405.97" stroke="#2E353A" stroke-linecap="round" stroke-linejoin="round"/>
<path d="M105.11 359.5C105.59 355.21 105.99 352.5 105.99 352.5" stroke="#2E353A" stroke-linecap="round" stroke-linejoin="round"/>
<path d="M112.49 403.47C112.49 403.47 103.49 401.47 103.49 385.47C103.49 378.9 103.91 372.17 104.41 366.47" stroke="#2E353A" stroke-linecap="round" stroke-linejoin="round"/>
<path d="M188 290.5C188 290.5 190 292 186.5 309C183 326 183.5 351 188 365" stroke="#2E353A" stroke-linecap="round" stroke-linejoin="round"/>
<path d="M193 322C193 322 188 337 191.5 358" stroke="#2E353A" stroke-linecap="round" stroke-linejoin="round"/>
<path d="M250 331.49C250 331.49 252.5 345.99 255 360.98C257.5 375.97 255.5 396.98 253.5 402.47C251.5 407.96 249.5 412.47 249.5 412.47" stroke="#2E353A" stroke-linecap="round" stroke-linejoin="round"/>
<path d="M259.42 405.12C257.19 411.96 254.42 403.97 254.42 403.97" stroke="#2E353A" stroke-linecap="round" stroke-linejoin="round"/>
<path d="M259.33 354C259.33 354 264.04 378.31 261.38 396.61" stroke="#2E353A" stroke-linecap="round" stroke-linejoin="round"/>
<path d="M249 362C249 362 254 372.5 249.5 382.5" stroke="#2E353A" stroke-linecap="round" stroke-linejoin="round"/>
<path d="M342.3 363.48C342.969 366.537 343.848 369.544 344.93 372.48" stroke="#2E353A" stroke-linecap="round" stroke-linejoin="round"/>
<path d="M346.43 311.5C343.257 321.571 341.244 331.972 340.43 342.5C340.131 347.827 340.43 353.17 341.32 358.43" stroke="#2E353A" stroke-linecap="round" stroke-linejoin="round"/>
<path d="M336.93 357.48C336.93 357.48 341.43 374.48 343.93 380.48C346.43 386.48 345.43 400.97 342.43 407.97" stroke="#2E353A" stroke-linecap="round" stroke-linejoin="round"/>
<path d="M404.41 319C404.41 319 414.41 337 404.91 366.49" stroke="#2E353A" stroke-linecap="round" stroke-linejoin="round"/>
<path d="M413.6 349.74C413.66 355.36 413.16 362.48 410.91 368.48C406.41 380.48 404.41 384.48 404.41 384.48" stroke="#2E353A" stroke-linecap="round" stroke-linejoin="round"/>
<path d="M412.91 340C412.91 340 413.24 342.15 413.44 345.46" stroke="#2E353A" stroke-linecap="round" stroke-linejoin="round"/>
</svg>
